<svg width="14" height="14" viewBox="0 0 14 14" fill="none" xmlns="http://www.w3.org/2000/svg" style="fill-opacity: 0.5;">
<path d="M6.98099 1.03389e-05C3.1328 0.0065772 -0.00944138 3.15211 0.000409126 6.99044C0.0102596 10.901 3.13937 14.0071 7.06307 13.9973C10.8948 13.9907 14.0075 10.8288 14.001 6.95104C13.9944 3.11599 10.839 -0.00655653 6.98099 1.03389e-05ZM5.34255 6.66538C4.94197 6.66538 4.54468 6.6621 4.1441 6.66866C4.02918 6.67195 3.99306 6.63583 3.99963 6.52091C4.0456 5.71975 4.20977 4.94158 4.48886 4.18967C4.5217 4.10102 4.56766 4.07803 4.65632 4.07803C5.28017 4.08132 5.90402 4.08132 6.52459 4.07803C6.62638 4.07803 6.66906 4.09773 6.66906 4.21266C6.66578 4.98755 6.66578 5.76572 6.66906 6.54061C6.66906 6.6424 6.63623 6.67195 6.53772 6.66866C6.14043 6.66538 5.74313 6.66538 5.34255 6.66538ZM8.65882 6.66866C8.26481 6.66866 7.8708 6.66538 7.47679 6.67195C7.36187 6.67523 7.32903 6.63911 7.32903 6.52419C7.33231 5.75915 7.3356 4.99411 7.32903 4.22907C7.32903 4.09773 7.37172 4.07803 7.48992 4.07803C8.10064 4.0846 8.71464 4.0846 9.32536 4.07803C9.43043 4.07803 9.48296 4.10759 9.5158 4.20609C9.78504 4.95471 9.95578 5.72632 9.99846 6.52419C10.005 6.6424 9.96891 6.67523 9.85399 6.67195C9.4567 6.66538 9.05612 6.66866 8.65882 6.66866ZM8.6621 7.32863C9.06268 7.32863 9.45998 7.33192 9.86056 7.32535C9.97876 7.32207 10.0083 7.36147 10.0017 7.47639C9.95578 8.27426 9.79489 9.04587 9.51908 9.79449C9.48625 9.88314 9.44684 9.92254 9.34506 9.92254C8.72121 9.91598 8.09735 9.91926 7.47679 9.92254C7.375 9.92254 7.3356 9.89628 7.3356 9.78464C7.33888 9.01303 7.34216 8.24143 7.3356 7.4731C7.3356 7.3549 7.375 7.32863 7.48664 7.32863C7.87408 7.33192 8.26809 7.32863 8.6621 7.32863ZM5.3327 7.32863C5.72672 7.32863 6.12073 7.33192 6.51474 7.32535C6.63294 7.32207 6.67563 7.34833 6.67563 7.47639C6.66906 8.24143 6.66906 9.00647 6.67563 9.77151C6.67563 9.88643 6.63951 9.91926 6.52787 9.91926C5.91059 9.91598 5.2933 9.91598 4.67602 9.91926C4.5808 9.91926 4.53155 9.89628 4.49543 9.80106C4.21634 9.04587 4.05217 8.27098 4.0062 7.46982C3.99963 7.34505 4.04888 7.32535 4.15395 7.32535C4.54468 7.33192 4.93869 7.32863 5.3327 7.32863ZM2.17732 6.66866C1.83256 6.66866 1.4878 6.66538 1.14304 6.67195C1.03469 6.67523 1.00186 6.64896 1.01171 6.53404C1.07409 5.70005 1.3105 4.91859 1.69794 4.17654C1.73406 4.1043 1.78003 4.07803 1.86211 4.07803C2.47283 4.08132 3.08684 4.08132 3.69755 4.07803C3.78621 4.07803 3.82561 4.0846 3.78621 4.19295C3.52025 4.95471 3.37578 5.74273 3.32981 6.54718C3.32324 6.65553 3.28056 6.66866 3.18862 6.66866C2.85371 6.66538 2.51552 6.66538 2.17732 6.66866ZM2.77491 9.91926C2.47283 9.91926 2.17404 9.91598 1.87197 9.91926C1.7866 9.91926 1.73406 9.89628 1.69138 9.81419C1.3105 9.08199 1.07737 8.3071 1.01171 7.48624C1.00186 7.36803 1.02156 7.32535 1.15289 7.32535C1.826 7.33192 2.4991 7.33192 3.1722 7.32535C3.29369 7.32535 3.33309 7.35818 3.33638 7.47967C3.37578 8.27098 3.52353 9.04258 3.78292 9.79121C3.82889 9.91926 3.77636 9.92254 3.67785 9.92254C3.37906 9.91598 3.07699 9.91926 2.77491 9.91926ZM11.847 6.66538C11.847 6.66866 11.847 6.66866 11.847 6.66538C11.5088 6.66538 11.1706 6.6621 10.8325 6.66866C10.7175 6.67195 10.6716 6.64568 10.665 6.51762C10.6223 5.72303 10.4778 4.94814 10.2152 4.19624C10.1823 4.10102 10.1922 4.07475 10.2973 4.07475C10.9145 4.07803 11.5318 4.07803 12.1491 4.07475C12.2378 4.07475 12.2739 4.11743 12.3067 4.1831C12.6942 4.91859 12.924 5.69677 12.9864 6.52419C12.9962 6.64896 12.9536 6.66866 12.8452 6.66538C12.5136 6.6621 12.1787 6.66538 11.847 6.66538ZM10.1955 9.91926C10.1955 9.88971 10.1922 9.87329 10.1955 9.86016C10.468 9.08198 10.6223 8.27754 10.665 7.4534C10.6716 7.33192 10.7274 7.32863 10.8193 7.32863C11.4924 7.33192 12.1655 7.3352 12.8386 7.32535C12.9798 7.32207 12.9962 7.37132 12.9864 7.49609C12.9306 8.18561 12.7533 8.83901 12.4742 9.46943C12.2739 9.91926 12.2739 9.91926 11.7879 9.91926C11.2593 9.91926 10.7307 9.91926 10.1955 9.91926ZM2.18061 3.41478C3.08684 2.24588 4.21634 1.50382 5.61508 1.1525C5.6118 1.17548 5.61179 1.18205 5.60851 1.18533C5.00108 1.82888 4.49543 2.54467 4.1244 3.34911C4.09813 3.40493 4.06202 3.41478 4.00948 3.41478C3.41846 3.41478 2.82416 3.41478 2.18061 3.41478ZM8.36988 12.8481C8.38301 12.8185 8.38301 12.8054 8.39286 12.7988C9.00358 12.1717 9.49281 11.4592 9.86384 10.6646C9.89668 10.5891 9.94593 10.5792 10.0182 10.5792C10.3202 10.5825 10.619 10.5792 10.9211 10.5792C11.2068 10.5792 11.4957 10.5792 11.8241 10.5792C10.9145 11.7547 9.78175 12.4968 8.36988 12.8481ZM8.36331 1.16891C9.42058 1.27398 11.5023 2.64317 11.7781 3.41478C11.1739 3.41478 10.5731 3.41478 9.97219 3.41478C9.89011 3.41478 9.87697 3.35896 9.85071 3.30643C9.61102 2.79421 9.31551 2.31483 8.97075 1.86828C8.78687 1.62531 8.58002 1.40204 8.36331 1.16891ZM5.6118 12.8284C4.21305 12.4935 3.08355 11.7514 2.20359 10.6121C2.22986 10.5956 2.23971 10.5858 2.24628 10.5858C2.83073 10.5858 3.41518 10.5858 3.99963 10.5825C4.07843 10.5825 4.11455 10.6153 4.1441 10.6843C4.2623 10.9437 4.39692 11.1932 4.54468 11.4362C4.85332 11.932 5.21122 12.3917 5.6118 12.8284ZM6.66906 1.14593C6.66906 1.89455 6.66578 2.60377 6.67234 3.31299C6.67234 3.42791 6.60339 3.41478 6.53116 3.41478C6.01894 3.41478 5.50344 3.4115 4.99123 3.41806C4.86646 3.41806 4.83691 3.39836 4.90257 3.27688C5.0963 2.92555 5.30644 2.59064 5.55269 2.27543C5.87119 1.865 6.2258 1.49069 6.66906 1.14593ZM7.33231 12.8579C7.33231 12.106 7.33231 11.3968 7.32903 10.6876C7.32903 10.5792 7.38813 10.5792 7.46693 10.5792C7.98572 10.5792 8.5045 10.5825 9.02328 10.5759C9.13492 10.5759 9.16119 10.5989 9.10537 10.704C8.97075 10.9503 8.82956 11.1867 8.67195 11.4165C8.30093 11.955 7.8708 12.4278 7.33231 12.8579ZM7.3553 1.15906C8.12362 1.78291 8.71464 2.52497 9.16447 3.41478C8.58002 3.41478 8.03168 3.4115 7.48007 3.41806C7.34873 3.42135 7.32903 3.3721 7.33231 3.25718C7.33888 2.63004 7.3356 1.99962 7.3356 1.37249C7.33231 1.3101 7.3159 1.24443 7.3553 1.15906ZM6.66906 12.8448C6.49176 12.7332 6.36698 12.6051 6.23565 12.4836C5.6906 11.9681 5.25062 11.3738 4.89929 10.7139C4.86974 10.658 4.80079 10.5825 4.94854 10.5825C5.48374 10.5858 6.01894 10.5858 6.55414 10.5825C6.63951 10.5825 6.66578 10.6153 6.66578 10.6974C6.66906 11.4001 6.66906 12.106 6.66906 12.8448Z" fill="black"/>
</svg>
