<svg width="19" height="16" viewBox="0 0 19 16" fill="none" xmlns="http://www.w3.org/2000/svg">
<path d="M11.9237 0.0736084H7.04954C6.37817 0.0736084 5.81421 0.677104 5.81421 1.42779V14.5722C5.81421 15.3229 6.36474 15.9264 7.04954 15.9264H8.91597V13.5124C8.91597 13.4683 8.95626 13.4241 8.99654 13.4241H10.0036C10.0439 13.4241 10.0842 13.4683 10.0842 13.5124V15.9264H11.9237C12.6086 15.9264 13.1591 15.3229 13.1591 14.5722V1.42779C13.1591 0.677104 12.6086 0.0736084 11.9237 0.0736084ZM8.16403 8.13984C8.16403 8.19872 8.12375 8.24288 8.07004 8.24288H7.02269C6.96898 8.24288 6.9287 8.19872 6.9287 8.13984V6.99173C6.9287 6.93285 6.96898 6.8887 7.02269 6.8887H8.07004C8.12375 6.8887 8.16403 6.93285 8.16403 6.99173V8.13984ZM8.16403 5.66698C8.16403 5.72586 8.12375 5.77002 8.07004 5.77002H7.02269C6.96898 5.77002 6.9287 5.72586 6.9287 5.66698V4.51887C6.9287 4.45999 6.96898 4.41583 7.02269 4.41583H8.07004C8.12375 4.41583 8.16403 4.45999 8.16403 4.51887V5.66698ZM8.16403 3.19412C8.16403 3.253 8.12375 3.29716 8.07004 3.29716H7.02269C6.96898 3.29716 6.9287 3.253 6.9287 3.19412V2.04601C6.9287 1.98713 6.96898 1.94297 7.02269 1.94297H8.07004C8.12375 1.94297 8.16403 1.98713 8.16403 2.04601V3.19412ZM10.111 8.13984C10.111 8.19872 10.0707 8.24288 10.017 8.24288H8.96968C8.91597 8.24288 8.87569 8.19872 8.87569 8.13984V6.99173C8.87569 6.93285 8.91597 6.8887 8.96968 6.8887H10.017C10.0707 6.8887 10.111 6.93285 10.111 6.99173V8.13984ZM10.111 5.66698C10.111 5.72586 10.0707 5.77002 10.017 5.77002H8.96968C8.91597 5.77002 8.87569 5.72586 8.87569 5.66698V4.51887C8.87569 4.45999 8.91597 4.41583 8.96968 4.41583H10.017C10.0707 4.41583 10.111 4.45999 10.111 4.51887V5.66698ZM10.111 3.19412C10.111 3.253 10.0707 3.29716 10.017 3.29716H8.96968C8.91597 3.29716 8.87569 3.253 8.87569 3.19412V2.04601C8.87569 1.98713 8.91597 1.94297 8.96968 1.94297H10.017C10.0707 1.94297 10.111 1.98713 10.111 2.04601V3.19412ZM12.058 8.13984C12.058 8.19872 12.0177 8.24288 11.964 8.24288H10.9167C10.863 8.24288 10.8227 8.19872 10.8227 8.13984V6.99173C10.8227 6.93285 10.863 6.8887 10.9167 6.8887H11.964C12.0177 6.8887 12.058 6.93285 12.058 6.99173V8.13984ZM12.058 5.66698C12.058 5.72586 12.0177 5.77002 11.964 5.77002H10.9167C10.863 5.77002 10.8227 5.72586 10.8227 5.66698V4.51887C10.8227 4.45999 10.863 4.41583 10.9167 4.41583H11.964C12.0177 4.41583 12.058 4.45999 12.058 4.51887V5.66698ZM12.058 3.19412C12.058 3.253 12.0177 3.29716 11.964 3.29716H10.9167C10.863 3.29716 10.8227 3.253 10.8227 3.19412V2.04601C10.8227 1.98713 10.863 1.94297 10.9167 1.94297H11.964C12.0177 1.94297 12.058 1.98713 12.058 2.04601V3.19412Z" fill="#4F4F4F"/>
<path d="M18.1401 6.35876H14.7832C14.3535 6.35876 14.0044 6.74147 14.0044 7.21249V15.0579C14.0044 15.529 14.3535 15.9264 14.7832 15.9264H15.8843V13.5124C15.8843 13.4682 15.9245 13.4241 15.9648 13.4241H16.9719C17.0122 13.4241 17.0525 13.4682 17.0525 13.5124V15.9264H18.1535C18.5832 15.9264 18.9323 15.5437 18.9323 15.0579V7.21249C18.9323 6.74147 18.5832 6.35876 18.1401 6.35876ZM15.656 11.3339C15.656 11.3634 15.6291 11.3928 15.6023 11.3928H14.9578C14.9309 11.3928 14.904 11.3634 14.904 11.3339V10.6274C14.904 10.598 14.9309 10.5685 14.9578 10.5685H15.6023C15.6291 10.5685 15.656 10.598 15.656 10.6274V11.3339ZM15.656 9.81783C15.656 9.84727 15.6291 9.8767 15.6023 9.8767H14.9578C14.9309 9.8767 14.904 9.84727 14.904 9.81783V9.11129C14.904 9.08186 14.9309 9.05242 14.9578 9.05242H15.6023C15.6291 9.05242 15.656 9.08186 15.656 9.11129V9.81783ZM15.656 8.28701C15.656 8.31645 15.6291 8.34589 15.6023 8.34589H14.9578C14.9309 8.34589 14.904 8.31645 14.904 8.28701V7.58048C14.904 7.55104 14.9309 7.5216 14.9578 7.5216H15.6023C15.6291 7.5216 15.656 7.55104 15.656 7.58048V8.28701ZM16.851 11.3339C16.851 11.3634 16.8242 11.3928 16.7973 11.3928H16.1528C16.1259 11.3928 16.0991 11.3634 16.0991 11.3339V10.6274C16.0991 10.598 16.1259 10.5685 16.1528 10.5685H16.7973C16.8242 10.5685 16.851 10.598 16.851 10.6274V11.3339ZM16.851 9.81783C16.851 9.84727 16.8242 9.8767 16.7973 9.8767H16.1528C16.1259 9.8767 16.0991 9.84727 16.0991 9.81783V9.11129C16.0991 9.08186 16.1259 9.05242 16.1528 9.05242H16.7973C16.8242 9.05242 16.851 9.08186 16.851 9.11129V9.81783ZM16.851 8.28701C16.851 8.31645 16.8242 8.34589 16.7973 8.34589H16.1528C16.1259 8.34589 16.0991 8.31645 16.0991 8.28701V7.58048C16.0991 7.55104 16.1259 7.5216 16.1528 7.5216H16.7973C16.8242 7.5216 16.851 7.55104 16.851 7.58048V8.28701ZM18.0461 11.3339C18.0461 11.3634 18.0192 11.3928 17.9924 11.3928H17.3479C17.321 11.3928 17.2941 11.3634 17.2941 11.3339V10.6274C17.2941 10.598 17.321 10.5685 17.3479 10.5685H17.9924C18.0192 10.5685 18.0461 10.598 18.0461 10.6274V11.3339ZM18.0461 9.81783C18.0461 9.84727 18.0192 9.8767 17.9924 9.8767H17.3479C17.321 9.8767 17.2941 9.84727 17.2941 9.81783V9.11129C17.2941 9.08186 17.321 9.05242 17.3479 9.05242H17.9924C18.0192 9.05242 18.0461 9.08186 18.0461 9.11129V9.81783ZM18.0461 8.28701C18.0461 8.31645 18.0192 8.34589 17.9924 8.34589H17.3479C17.321 8.34589 17.2941 8.31645 17.2941 8.28701V7.58048C17.2941 7.55104 17.321 7.5216 17.3479 7.5216H17.9924C18.0192 7.5216 18.0461 7.55104 18.0461 7.58048V8.28701Z" fill="#4F4F4F"/>
<path d="M4.20307 6.35876H0.846182C0.416499 6.35876 0.0673828 6.74147 0.0673828 7.21249V15.0579C0.0673828 15.529 0.416499 15.9264 0.846182 15.9264H1.94724V13.5124C1.94724 13.4682 1.98752 13.4241 2.02781 13.4241H3.03487C3.07516 13.4241 3.11544 13.4682 3.11544 13.5124V15.9264H4.2165C4.64618 15.9264 4.9953 15.5437 4.9953 15.0579V7.21249C4.9953 6.74147 4.63275 6.35876 4.20307 6.35876ZM1.71897 11.3339C1.71897 11.3634 1.69212 11.3928 1.66526 11.3928H1.00731C0.980457 11.3928 0.953602 11.3634 0.953602 11.3339V10.6274C0.953602 10.598 0.980457 10.5685 1.00731 10.5685H1.65184C1.67869 10.5685 1.70555 10.598 1.70555 10.6274V11.3339H1.71897ZM1.71897 9.81783C1.71897 9.84727 1.69212 9.8767 1.66526 9.8767H1.00731C0.980457 9.8767 0.953602 9.84727 0.953602 9.81783V9.11129C0.953602 9.08186 0.980457 9.05242 1.00731 9.05242H1.65184C1.67869 9.05242 1.70555 9.08186 1.70555 9.11129V9.81783H1.71897ZM1.71897 8.28701C1.71897 8.31645 1.69212 8.34589 1.66526 8.34589H1.00731C0.980457 8.34589 0.953602 8.31645 0.953602 8.28701V7.58048C0.953602 7.55104 0.980457 7.5216 1.00731 7.5216H1.65184C1.67869 7.5216 1.70555 7.55104 1.70555 7.58048V8.28701H1.71897ZM2.91403 11.3339C2.91403 11.3634 2.88717 11.3928 2.86032 11.3928H2.21579C2.18894 11.3928 2.16208 11.3634 2.16208 11.3339V10.6274C2.16208 10.598 2.18894 10.5685 2.21579 10.5685H2.86032C2.88717 10.5685 2.91403 10.598 2.91403 10.6274V11.3339ZM2.91403 9.81783C2.91403 9.84727 2.88717 9.8767 2.86032 9.8767H2.21579C2.18894 9.8767 2.16208 9.84727 2.16208 9.81783V9.11129C2.16208 9.08186 2.18894 9.05242 2.21579 9.05242H2.86032C2.88717 9.05242 2.91403 9.08186 2.91403 9.11129V9.81783ZM2.91403 8.28701C2.91403 8.31645 2.88717 8.34589 2.86032 8.34589H2.21579C2.18894 8.34589 2.16208 8.31645 2.16208 8.28701V7.58048C2.16208 7.55104 2.18894 7.5216 2.21579 7.5216H2.86032C2.88717 7.5216 2.91403 7.55104 2.91403 7.58048V8.28701ZM4.10908 11.3339C4.10908 11.3634 4.08222 11.3928 4.05537 11.3928H3.41085C3.38399 11.3928 3.35714 11.3634 3.35714 11.3339V10.6274C3.35714 10.598 3.38399 10.5685 3.41085 10.5685H4.05537C4.08222 10.5685 4.10908 10.598 4.10908 10.6274V11.3339ZM4.10908 9.81783C4.10908 9.84727 4.08222 9.8767 4.05537 9.8767H3.41085C3.38399 9.8767 3.35714 9.84727 3.35714 9.81783V9.11129C3.35714 9.08186 3.38399 9.05242 3.41085 9.05242H4.05537C4.08222 9.05242 4.10908 9.08186 4.10908 9.11129V9.81783ZM4.10908 8.28701C4.10908 8.31645 4.08222 8.34589 4.05537 8.34589H3.41085C3.38399 8.34589 3.35714 8.31645 3.35714 8.28701V7.58048C3.35714 7.55104 3.38399 7.5216 3.41085 7.5216H4.05537C4.08222 7.5216 4.10908 7.55104 4.10908 7.58048V8.28701Z" fill="#4F4F4F"/>
</svg>
