<svg width="16" height="18" viewBox="0 0 16 18" fill="none" xmlns="http://www.w3.org/2000/svg">
<circle cx="8" cy="9" r="8" fill="#F7271A"/>
<path d="M6.34277 12.251C6.34277 12.1452 6.36816 11.978 6.41895 11.7495C6.44857 11.6183 6.493 11.4448 6.55225 11.229L7.33301 8.30908C7.34147 8.27523 7.34782 8.24137 7.35205 8.20752C7.36051 8.17367 7.36475 8.14193 7.36475 8.1123C7.36475 7.9388 7.30973 7.83089 7.19971 7.78857C7.08968 7.74626 6.88867 7.71875 6.59668 7.70605V7.36328C6.84212 7.34635 7.19759 7.3125 7.66309 7.26172C8.13281 7.20671 8.46501 7.16016 8.65967 7.12207L9.21826 7.01416L8.20898 10.7148C8.12435 11.0322 8.06722 11.2523 8.0376 11.375C7.96143 11.6882 7.92334 11.8913 7.92334 11.9844C7.92334 12.0775 7.9445 12.1388 7.98682 12.1685C8.02913 12.1938 8.07568 12.2065 8.12646 12.2065C8.25765 12.2065 8.42057 12.0944 8.61523 11.8701C8.8099 11.6458 8.98128 11.411 9.12939 11.1655L9.41504 11.3496C8.99186 11.9717 8.66813 12.3906 8.44385 12.6064C8.07568 12.9619 7.68213 13.1396 7.26318 13.1396C7.0262 13.1396 6.8125 13.0677 6.62207 12.9238C6.43587 12.7757 6.34277 12.5514 6.34277 12.251ZM8.85645 4.11328C9.09766 4.11328 9.3029 4.19792 9.47217 4.36719C9.64144 4.53646 9.72607 4.7417 9.72607 4.98291C9.72607 5.22412 9.64144 5.43148 9.47217 5.60498C9.3029 5.77425 9.09766 5.85889 8.85645 5.85889C8.61523 5.85889 8.40788 5.77425 8.23438 5.60498C8.0651 5.43148 7.98047 5.22412 7.98047 4.98291C7.98047 4.7417 8.0651 4.53646 8.23438 4.36719C8.40788 4.19792 8.61523 4.11328 8.85645 4.11328Z" fill="white"/>
</svg>
