<?xml version="1.0" encoding="utf-8"?>
<!-- Generator: Adobe Illustrator 25.0.0, SVG Export Plug-In . SVG Version: 6.00 Build 0)  -->
<svg version="1.1" id="Layer_1" xmlns="http://www.w3.org/2000/svg" xmlns:xlink="http://www.w3.org/1999/xlink" x="0px" y="0px"
	 viewBox="0 0 420.7 407.7" style="enable-background:new 0 0 420.7 407.7;" xml:space="preserve">
<style type="text/css">
	.st0{fill:#516784;}
	.st1{fill:#D8D9DA;}
	.st2{fill:#3E5770;}
	.st3{fill:#B1B2B3;}
	.st4{fill:#65829E;}
	.st5{fill:#22418F;}
	.st6{fill:#181818;}
	.st7{fill:#B9D545;}
	.st8{fill:#1F8E47;}
</style>
<path class="st0" d="M314.3,277c-19.4,17-49,15.2-66.1-4.3c-17-19.4-15.2-49,4.3-66c19.4-17.1,49-15.2,66.1,4.2
	C335.8,230.4,333.8,260,314.3,277z M387.9,238.6c-0.1-4-0.5-8-1.1-11.9l-20.7-3.4l-7-19.5l13.8-15.8c-4.2-7-9.2-13.3-14.8-19.1
	l-18.7,9.4l-17.2-11.7l1.8-20.9c-7.1-3-14.7-5.2-22.5-6.6l-9.8,18.6l-20.8,0.5l-10.7-18.1c-8,1.8-15.6,4.5-22.8,8l3.1,20.7
	L224,181.5l-19.2-8.2c-5.3,6.1-9.9,12.7-13.7,19.9l14.7,15l-5.9,19.9l-20.5,4.6c-0.4,4.1-0.5,8.3-0.4,12.6c0.1,3.9,0.5,7.7,1,11.5
	l20.7,3.5l6.9,19.5l-13.9,15.8c4.2,7,9.2,13.4,14.8,19.2l18.8-9.4l17.2,11.7l-2,20.9c7.4,3.1,15.1,5.5,23.2,6.8l9.7-18.6l20.8-0.6
	l10.7,18c8-1.8,15.6-4.6,22.8-8.1l-3.1-20.7l16.5-12.7l19.3,8.2c5.3-6.1,9.9-12.8,13.7-19.9l-14.7-14.9l5.8-20l20.5-4.6
	C387.9,246.8,388,242.7,387.9,238.6z"/>
<path class="st1" d="M324.2,288.3c-25.6,22.5-64.7,20-87.3-5.6c-22.6-25.6-20-64.6,5.6-87.1c25.7-22.5,64.8-19.9,87.3,5.7
	C352.4,226.7,349.9,265.8,324.2,288.3z M334.9,196.7c-25-28.4-68.4-31.2-96.8-6.3c-28.4,25-31.3,68.2-6.2,96.6
	c25,28.4,68.3,31.2,96.8,6.3C357.1,268.4,359.9,225.1,334.9,196.7z"/>
<path class="st2" d="M243.8,316.5l0.7,0.5l-1.6,20.7l-0.3,0.2c7.4,3.1,15.1,5.5,23.2,6.8l-0.2-0.3l9.9-18.3l20.8-0.6l10.9,17.7
	l-0.2,0.3c8-1.8,15.6-4.6,22.8-8.1l-0.3-0.1l-2.8-20.6l16.5-12.7l19.3,7.9l0,0.3c5.3-6.1,9.9-12.8,13.7-19.9l-0.3,0.1l-14.4-15
	l5.8-20l20.2-4.9l0.3,0.2c0.3-4,0.5-8.1,0.3-12.3c-0.1-4-0.5-8-1.1-11.9l-0.2,0.3l-5.8-1C341.9,281.9,287.2,306.1,243.8,316.5z"/>
<path class="st3" d="M328.7,293.3c9.8-8.6,16.5-19.3,20.1-30.8c-3.8,3.5-7.7,6.7-11.6,9.8c-3.3,5.8-7.6,11.2-13,15.9
	c-11.7,10.2-26.1,15.3-40.6,15.3c-4.7,1.9-9.3,3.7-13.9,5.4C290.1,313,311.9,308,328.7,293.3z"/>
<path class="st4" d="M241.3,164.4l-2-16.8c0,0,10-5.3,17.6-6.5C256.8,141.1,244.5,145.6,241.3,164.4z"/>
<path class="st0" d="M169.1,147.2c-11.9,15.4-34.1,18.2-49.5,6c-15.4-12.1-18.4-34.4-6.4-49.8c11.8-15.5,34-18.2,49.5-6.1
	C178.2,109.5,181,131.8,169.1,147.2z M217.9,108.3c-0.7-3-1.5-5.9-2.5-8.7l-15.8,0.3l-8-13.6l7.9-13.7c-4.1-4.6-8.7-8.7-13.7-12.2
	l-12.5,9.6l-14.4-6.3L157.2,48c-5.7-1.2-11.6-1.8-17.6-1.8L135,61.4l-15.3,3.3l-10.6-12c-5.6,2.5-10.9,5.5-15.7,9.2l5.3,15
	L88.4,88.6l-15.4-3.5c-3,5.2-5.5,10.8-7.2,16.7l13,9.1l-1.5,15.6l-14.5,6.3c0.3,3.1,0.8,6.3,1.6,9.4c0.7,2.9,1.5,5.7,2.4,8.4
	l15.8-0.3l8,13.6l-8,13.7c4.1,4.6,8.7,8.7,13.7,12.2l12.5-9.6l14.4,6.4l1.6,15.9c5.9,1.3,12,2,18.2,1.9l4.4-15.3l15.3-3.3l10.6,12
	c5.6-2.5,10.9-5.6,15.7-9.2l-5.3-15l10.3-11.8l15.5,3.5c3-5.3,5.5-10.9,7.2-16.8l-13.1-9.1l1.4-15.7l14.5-6.3
	C219.2,114.5,218.6,111.4,217.9,108.3z"/>
<path class="st1" d="M178.1,154.3c-15.7,20.3-45,23.9-65.4,7.9c-20.4-16-24.2-45.4-8.6-65.8c15.7-20.4,45-23.9,65.4-7.9
	C190,104.5,193.8,133.9,178.1,154.3z M172.7,84.5c-22.6-17.7-55.1-13.8-72.5,8.8c-17.4,22.6-13.2,55.2,9.5,72.9
	c22.6,17.7,55.1,13.7,72.5-8.8C199.5,134.8,195.3,102.2,172.7,84.5z"/>
<path class="st2" d="M122.6,186.3l0.6,0.2l1.8,15.7l-0.2,0.2c5.9,1.3,12,2,18.2,1.9l-0.2-0.2l4.7-15l15.3-3.3l10.7,11.7l-0.1,0.3
	c5.6-2.5,10.9-5.6,15.7-9.2l-0.3-0.1l-5.1-15l10.3-11.8l15.4,3.2l0.1,0.3c3-5.3,5.5-10.9,7.2-16.8l-0.2,0.1l-12.8-9.2l1.4-15.7
	l14.2-6.5l0.2,0.1c-0.4-3.1-0.9-6.1-1.6-9.2c-0.7-3-1.5-5.9-2.5-8.7l-0.1,0.3l-4.5,0C190.2,146.8,153.2,172.5,122.6,186.3z"/>
<path class="st3" d="M182.1,157.2c6-7.8,9.4-16.7,10.4-25.8c-2.3,3.1-4.7,6.1-7.2,8.9c-1.6,4.8-4,9.5-7.3,13.7
	c-7.2,9.3-17.1,15.1-27.8,17.1c-3.2,2.1-6.4,4.1-9.5,5.9C156.3,177.3,171.8,170.5,182.1,157.2z"/>
<path class="st4" d="M98.8,73.8l-3.9-12.2c0,0,6.6-5.3,12.1-7.3C107,54.3,98.5,59.4,98.8,73.8z"/>
<path class="st0" d="M136.4,306.7c-12.8,12.6-33.5,12.4-46.2-0.7c-12.7-13.1-12.5-33.9,0.3-46.5c12.8-12.7,33.5-12.4,46.2,0.6
	C149.5,273.2,149.3,294.1,136.4,306.7z M186.1,277.1c-0.2-2.8-0.7-5.6-1.2-8.3l-14.5-1.7l-5.7-13.5l9-11.6c-3.2-4.7-6.9-9-11.1-12.9
	l-12.7,7.3l-12.5-7.6l0.4-14.7c-5.1-1.8-10.4-3.2-15.9-3.8l-6,13.4l-14.5,1.1l-8.2-12.3c-5.5,1.6-10.7,3.7-15.6,6.4l3,14.5l-11,9.5
	l-13.7-5.1c-3.4,4.4-6.4,9.3-8.7,14.5l10.8,10l-3.3,14.2l-14.1,4c-0.1,2.9,0,5.9,0.2,8.9c0.3,2.7,0.7,5.4,1.2,8.1l14.6,1.7l5.6,13.5
	l-9,11.6c3.2,4.7,6.9,9.1,11.1,12.9l12.7-7.2l12.4,7.6L88.9,352c5.2,1.9,10.8,3.3,16.4,4l6-13.4l14.5-1.1l8.2,12.3
	c5.5-1.6,10.7-3.8,15.5-6.5l-3-14.5l11-9.5l13.8,5.1c3.4-4.5,6.4-9.3,8.7-14.5l-10.9-9.9l3.2-14.2l14.1-4
	C186.5,282.9,186.4,280,186.1,277.1z"/>
<path class="st1" d="M147.7,311.9c-14.5,18.8-41.7,22.1-60.6,7.4c-18.9-14.8-22.5-42.1-8-60.9c14.6-18.9,41.7-22.1,60.6-7.3
	C158.7,265.8,162.3,293.1,147.7,311.9z M142.7,247.3c-20.9-16.4-51.1-12.8-67.2,8.1c-16.1,20.9-12.2,51.1,8.8,67.5
	c20.9,16.4,51,12.7,67.1-8.1C167.6,293.9,163.6,263.7,142.7,247.3z"/>
<path class="st2" d="M88.9,336.8l0.5,0.3l-0.3,14.6l-0.2,0.1c5.2,1.9,10.8,3.3,16.4,4l-0.1-0.2l6.2-13.2l14.5-1.1l8.3,12.1l-0.1,0.3
	c5.5-1.6,10.7-3.8,15.5-6.5l-0.2-0.1l-2.8-14.4l11-9.5l13.7,4.9l0,0.2c3.4-4.5,6.4-9.3,8.7-14.5l-0.2,0.1l-10.6-10l3.2-14.2
	l13.9-4.2l0.2,0.2c0.1-2.8,0-5.7-0.3-8.6c-0.2-2.8-0.7-5.6-1.2-8.3l-0.1,0.2l-4.1-0.5C155.9,308.9,118.7,327.9,88.9,336.8z"/>
<path class="st3" d="M151.4,314.6c5.5-7.2,8.7-15.5,9.7-23.9c-2.1,2.9-4.3,5.7-6.6,8.3c-1.5,4.5-3.7,8.8-6.8,12.7
	c-6.6,8.6-15.9,13.9-25.8,15.9c-3,2-5.9,3.8-8.8,5.5C127.6,333.2,141.9,326.9,151.4,314.6z"/>
<path class="st4" d="M81.1,230.6l-2-11.7c0,0,6.7-4,12-5.2C91,213.7,82.6,217.3,81.1,230.6z"/>
<path class="st5" d="M177.1,18.1c0-0.2-0.1-0.4-0.4-0.6c-0.2-0.1-0.6-0.3-1.2-0.4c-1.8-0.4-2.7-1.1-2.7-2.3c0-0.7,0.3-1.2,0.8-1.7
	c0.6-0.5,1.3-0.7,2.2-0.7c1,0,1.7,0.2,2.3,0.7c0.6,0.5,0.9,1,0.9,1.8h-2c0-0.3-0.1-0.5-0.3-0.7c-0.2-0.2-0.5-0.3-0.9-0.3
	c-0.3,0-0.6,0.1-0.8,0.2c-0.2,0.2-0.3,0.3-0.3,0.6c0,0.2,0.1,0.4,0.3,0.5c0.2,0.1,0.6,0.3,1.1,0.4c0.5,0.1,0.9,0.2,1.3,0.3
	c1.1,0.4,1.6,1.1,1.6,2c0,0.7-0.3,1.2-0.9,1.7c-0.6,0.4-1.4,0.6-2.3,0.6c-0.6,0-1.2-0.1-1.7-0.3c-0.5-0.2-0.9-0.5-1.2-0.9
	c-0.3-0.4-0.4-0.8-0.4-1.3h1.9c0,0.4,0.2,0.6,0.4,0.8c0.2,0.2,0.6,0.3,1,0.3c0.4,0,0.7-0.1,0.9-0.2C177,18.5,177.1,18.3,177.1,18.1z
	 M166.8,12.6l0.1,0.9c0.5-0.7,1.3-1,2.2-1c0.8,0,1.4,0.2,1.8,0.7c0.4,0.5,0.6,1.2,0.6,2.1v4.9h-2v-4.8c0-0.4-0.1-0.7-0.3-0.9
	c-0.2-0.2-0.5-0.3-0.9-0.3c-0.6,0-1,0.2-1.3,0.7v5.3h-2v-7.6H166.8z M158.6,16.5c0,0.7,0.1,1.3,0.4,1.6c0.3,0.4,0.7,0.6,1.2,0.6
	c0.5,0,0.9-0.2,1.1-0.6c0.3-0.4,0.4-1,0.4-1.8c0-0.7-0.1-1.2-0.4-1.6c-0.3-0.4-0.7-0.6-1.2-0.6c-0.5,0-0.9,0.2-1.1,0.6
	C158.7,15.1,158.6,15.7,158.6,16.5z M156.6,16.4c0-0.7,0.1-1.4,0.4-2c0.3-0.6,0.7-1,1.2-1.4c0.5-0.3,1.2-0.5,1.9-0.5
	c1,0,1.8,0.3,2.5,0.9c0.6,0.6,1,1.5,1.1,2.5l0,0.5c0,1.2-0.3,2.1-1,2.8c-0.6,0.7-1.5,1-2.6,1s-2-0.3-2.6-1
	C156.9,18.6,156.6,17.6,156.6,16.4L156.6,16.4z M153.1,10.7c0-0.3,0.1-0.6,0.3-0.7c0.2-0.2,0.5-0.3,0.8-0.3c0.3,0,0.6,0.1,0.8,0.3
	s0.3,0.4,0.3,0.7c0,0.3-0.1,0.6-0.3,0.8c-0.2,0.2-0.5,0.3-0.8,0.3c-0.3,0-0.6-0.1-0.8-0.3C153.2,11.2,153.1,11,153.1,10.7z
	 M155.2,20.2h-2v-7.6h2V20.2z M150.7,10.8v1.9h1.3v1.5h-1.3v3.8c0,0.3,0.1,0.5,0.2,0.6c0.1,0.1,0.3,0.2,0.6,0.2c0.2,0,0.4,0,0.6,0
	v1.5c-0.4,0.1-0.8,0.2-1.2,0.2c-1.4,0-2.1-0.7-2.2-2.1v-4.1h-1.1v-1.5h1.1v-1.9H150.7z M144.8,19.4c-0.5,0.6-1.2,0.9-2.1,0.9
	c-0.8,0-1.4-0.2-1.9-0.7c-0.4-0.5-0.6-1.1-0.6-2v-4.9h2v4.9c0,0.8,0.4,1.2,1.1,1.2c0.7,0,1.2-0.2,1.4-0.7v-5.3h2v7.6h-1.9
	L144.8,19.4z M138.6,20.2h-2V9.5h2V20.2z M130.1,16.5c0,0.7,0.1,1.3,0.4,1.6c0.3,0.4,0.7,0.6,1.2,0.6c0.5,0,0.9-0.2,1.1-0.6
	c0.3-0.4,0.4-1,0.4-1.8c0-0.7-0.1-1.2-0.4-1.6c-0.3-0.4-0.7-0.6-1.2-0.6c-0.5,0-0.9,0.2-1.1,0.6C130.2,15.1,130.1,15.7,130.1,16.5z
	 M128.1,16.4c0-0.7,0.1-1.4,0.4-2c0.3-0.6,0.7-1,1.2-1.4c0.5-0.3,1.2-0.5,1.9-0.5c1,0,1.8,0.3,2.5,0.9c0.6,0.6,1,1.5,1.1,2.5l0,0.5
	c0,1.2-0.3,2.1-1,2.8c-0.6,0.7-1.5,1-2.6,1s-2-0.3-2.6-1C128.4,18.6,128.1,17.6,128.1,16.4L128.1,16.4z M125,17.5
	c0-0.4-0.1-0.7-0.4-0.9c-0.3-0.2-0.8-0.4-1.5-0.7c-0.7-0.2-1.3-0.5-1.7-0.7c-1.2-0.6-1.7-1.5-1.7-2.5c0-0.5,0.2-1,0.5-1.5
	c0.3-0.4,0.8-0.8,1.3-1c0.6-0.2,1.2-0.4,2-0.4c0.7,0,1.4,0.1,1.9,0.4c0.6,0.3,1,0.6,1.3,1.1c0.3,0.5,0.5,1,0.5,1.6H125
	c0-0.5-0.1-0.8-0.4-1.1c-0.3-0.3-0.7-0.4-1.2-0.4c-0.5,0-0.9,0.1-1.2,0.3c-0.3,0.2-0.4,0.5-0.4,0.9c0,0.3,0.2,0.6,0.5,0.8
	c0.3,0.2,0.8,0.4,1.5,0.6c1.2,0.4,2.1,0.8,2.6,1.3c0.5,0.5,0.8,1.2,0.8,2c0,0.9-0.3,1.6-1,2.1c-0.7,0.5-1.6,0.7-2.7,0.7
	c-0.8,0-1.5-0.1-2.1-0.4c-0.6-0.3-1.1-0.7-1.5-1.2c-0.3-0.5-0.5-1.1-0.5-1.7h2.1c0,1.1,0.7,1.7,2,1.7c0.5,0,0.9-0.1,1.2-0.3
	C124.9,18.2,125,17.9,125,17.5z"/>
<path class="st5" d="M130.8,395.1c0-0.2-0.1-0.4-0.4-0.6c-0.2-0.1-0.6-0.3-1.2-0.4c-1.8-0.4-2.7-1.1-2.7-2.3c0-0.7,0.3-1.2,0.8-1.7
	c0.6-0.5,1.3-0.7,2.2-0.7c1,0,1.7,0.2,2.3,0.7c0.6,0.5,0.9,1,0.9,1.8h-2c0-0.3-0.1-0.5-0.3-0.7c-0.2-0.2-0.5-0.3-0.9-0.3
	c-0.3,0-0.6,0.1-0.8,0.2c-0.2,0.2-0.3,0.3-0.3,0.6c0,0.2,0.1,0.4,0.3,0.5c0.2,0.1,0.6,0.3,1.1,0.4c0.5,0.1,0.9,0.2,1.3,0.3
	c1.1,0.4,1.6,1.1,1.6,2c0,0.7-0.3,1.2-0.9,1.7c-0.6,0.4-1.4,0.6-2.3,0.6c-0.6,0-1.2-0.1-1.7-0.3c-0.5-0.2-0.9-0.5-1.2-0.9
	c-0.3-0.4-0.4-0.8-0.4-1.3h1.9c0,0.4,0.2,0.6,0.4,0.8c0.2,0.2,0.6,0.3,1,0.3c0.4,0,0.7-0.1,0.9-0.2
	C130.7,395.5,130.8,395.3,130.8,395.1z M122.3,391.1c-0.4,0-0.7,0.1-1,0.4c-0.2,0.3-0.4,0.7-0.5,1.2h2.8v-0.2c0-0.4-0.1-0.8-0.4-1
	C123,391.3,122.7,391.1,122.3,391.1z M122.5,397.3c-1.1,0-2-0.3-2.7-1c-0.7-0.7-1-1.6-1-2.7v-0.2c0-0.8,0.1-1.4,0.4-2
	c0.3-0.6,0.7-1.1,1.2-1.4c0.5-0.3,1.2-0.5,1.8-0.5c1,0,1.8,0.3,2.4,1c0.6,0.7,0.9,1.6,0.9,2.8v0.8h-4.8c0.1,0.5,0.3,0.9,0.6,1.2
	c0.3,0.3,0.7,0.4,1.2,0.4c0.8,0,1.4-0.3,1.8-0.8l1,1.1c-0.3,0.4-0.7,0.8-1.2,1C123.7,397.2,123.1,397.3,122.5,397.3z M112.6,393.5
	c0,0.7,0.1,1.2,0.4,1.6c0.3,0.4,0.7,0.6,1.1,0.6c0.6,0,1.1-0.2,1.3-0.7v-3.2c-0.3-0.5-0.7-0.7-1.3-0.7c-0.5,0-0.9,0.2-1.1,0.6
	C112.7,392.1,112.6,392.7,112.6,393.5z M110.6,393.4c0-1.2,0.3-2.1,0.8-2.8c0.6-0.7,1.3-1.1,2.2-1.1c0.8,0,1.5,0.3,1.9,0.9l0.1-0.7
	h1.8v7.3c0,0.7-0.2,1.2-0.5,1.7c-0.3,0.5-0.7,0.9-1.3,1.1c-0.5,0.3-1.2,0.4-1.9,0.4c-0.6,0-1.1-0.1-1.6-0.3
	c-0.5-0.2-0.9-0.5-1.2-0.9l0.9-1.2c0.5,0.6,1.1,0.8,1.8,0.8c0.5,0,1-0.1,1.2-0.4c0.3-0.3,0.4-0.7,0.4-1.2v-0.4
	c-0.5,0.5-1.1,0.8-1.8,0.8c-0.9,0-1.6-0.4-2.2-1.1C110.8,395.6,110.6,394.6,110.6,393.4L110.6,393.4z M104.7,389.6l0.1,0.9
	c0.5-0.7,1.3-1,2.2-1c0.8,0,1.4,0.2,1.8,0.7c0.4,0.5,0.6,1.2,0.6,2.1v4.9h-2v-4.8c0-0.4-0.1-0.7-0.3-0.9c-0.2-0.2-0.5-0.3-0.9-0.3
	c-0.6,0-1,0.2-1.3,0.7v5.3h-2v-7.6H104.7z M98.4,391.1c-0.4,0-0.7,0.1-1,0.4c-0.2,0.3-0.4,0.7-0.5,1.2h2.8v-0.2c0-0.4-0.1-0.8-0.4-1
	C99.1,391.3,98.8,391.1,98.4,391.1z M98.6,397.3c-1.1,0-2-0.3-2.7-1c-0.7-0.7-1-1.6-1-2.7v-0.2c0-0.8,0.1-1.4,0.4-2
	c0.3-0.6,0.7-1.1,1.2-1.4c0.5-0.3,1.2-0.5,1.8-0.5c1,0,1.8,0.3,2.4,1c0.6,0.7,0.9,1.6,0.9,2.8v0.8h-4.8c0.1,0.5,0.3,0.9,0.6,1.2
	c0.3,0.3,0.7,0.4,1.2,0.4c0.8,0,1.4-0.3,1.8-0.8l1,1.1c-0.3,0.4-0.7,0.8-1.2,1C99.8,397.2,99.2,397.3,98.6,397.3z M93.4,397.2h-2
	v-10.7h2V397.2z M89.7,397.2h-2v-10.7h2V397.2z M82.6,395.8c0.3,0,0.6-0.1,0.8-0.2c0.3-0.1,0.4-0.3,0.6-0.5v-1.3h-0.8
	c-1,0-1.5,0.3-1.6,1l0,0.1c0,0.3,0.1,0.5,0.3,0.6C82,395.7,82.3,395.8,82.6,395.8z M84.2,397.2c-0.1-0.2-0.2-0.4-0.2-0.7
	c-0.5,0.5-1.1,0.8-1.9,0.8c-0.7,0-1.4-0.2-1.8-0.6c-0.5-0.4-0.7-1-0.7-1.6c0-0.8,0.3-1.4,0.9-1.8c0.6-0.4,1.5-0.6,2.6-0.6H84v-0.4
	c0-0.3-0.1-0.6-0.3-0.8c-0.2-0.2-0.5-0.3-0.8-0.3c-0.3,0-0.6,0.1-0.8,0.2c-0.2,0.2-0.3,0.4-0.3,0.7h-2c0-0.4,0.1-0.8,0.4-1.2
	c0.3-0.4,0.7-0.7,1.1-0.9c0.5-0.2,1-0.3,1.7-0.3c0.9,0,1.7,0.2,2.2,0.7c0.5,0.5,0.8,1.1,0.8,2v3.3c0,0.7,0.1,1.3,0.3,1.6v0.1H84.2z
	 M73.8,390.5c0.5-0.6,1.2-1,2-1c1.6,0,2.5,1,2.5,2.9v4.8h-2v-4.8c0-0.4-0.1-0.8-0.3-1c-0.2-0.2-0.5-0.3-0.9-0.3
	c-0.6,0-1,0.2-1.3,0.7v5.4h-2v-10.7h2V390.5z M70.6,393.8c-0.1,1.1-0.5,2-1.2,2.6c-0.7,0.6-1.7,0.9-2.9,0.9c-1.3,0-2.3-0.4-3.1-1.3
	c-0.7-0.9-1.1-2.1-1.1-3.6v-0.6c0-1,0.2-1.8,0.5-2.6c0.3-0.7,0.8-1.3,1.5-1.7c0.6-0.4,1.4-0.6,2.2-0.6c1.2,0,2.1,0.3,2.8,0.9
	c0.7,0.6,1.1,1.5,1.2,2.6h-2.1c-0.1-0.7-0.2-1.1-0.6-1.4c-0.3-0.3-0.8-0.4-1.4-0.4c-0.7,0-1.2,0.3-1.6,0.8c-0.3,0.5-0.5,1.3-0.5,2.3
	v0.8c0,1.1,0.2,1.9,0.5,2.4c0.3,0.5,0.9,0.8,1.6,0.8c0.6,0,1.1-0.1,1.4-0.4c0.3-0.3,0.5-0.8,0.6-1.4H70.6z"/>
<path class="st5" d="M314.5,379.5v1.9h1.3v1.5h-1.3v3.8c0,0.3,0.1,0.5,0.2,0.6c0.1,0.1,0.3,0.2,0.6,0.2c0.2,0,0.4,0,0.6,0v1.5
	c-0.4,0.1-0.8,0.2-1.2,0.2c-1.4,0-2.1-0.7-2.2-2.1v-4.1h-1.1v-1.5h1.1v-1.9H314.5z M307.8,387.5c0.4,0,0.7-0.1,0.9-0.3
	c0.2-0.2,0.4-0.5,0.4-0.8h1.9c0,0.5-0.1,1-0.4,1.4c-0.3,0.4-0.7,0.8-1.1,1c-0.5,0.2-1,0.3-1.6,0.3c-1.1,0-1.9-0.3-2.6-1
	c-0.6-0.7-0.9-1.6-0.9-2.8v-0.1c0-1.2,0.3-2.1,0.9-2.8c0.6-0.7,1.5-1,2.5-1c0.9,0,1.7,0.3,2.3,0.8c0.6,0.5,0.9,1.2,0.9,2.1h-1.9
	c0-0.4-0.1-0.7-0.4-0.9c-0.2-0.2-0.5-0.4-0.9-0.4c-0.5,0-0.8,0.2-1.1,0.5c-0.2,0.3-0.4,0.9-0.4,1.7v0.2c0,0.8,0.1,1.3,0.4,1.7
	S307.3,387.5,307.8,387.5z M299.7,387.6c0.3,0,0.6-0.1,0.8-0.2c0.3-0.1,0.4-0.3,0.6-0.5v-1.3h-0.8c-1,0-1.5,0.3-1.6,1l0,0.1
	c0,0.3,0.1,0.5,0.3,0.6C299.2,387.5,299.4,387.6,299.7,387.6z M301.4,389c-0.1-0.2-0.2-0.4-0.2-0.7c-0.5,0.5-1.1,0.8-1.9,0.8
	c-0.7,0-1.4-0.2-1.8-0.6c-0.5-0.4-0.7-1-0.7-1.6c0-0.8,0.3-1.4,0.9-1.8c0.6-0.4,1.5-0.6,2.6-0.6h0.9v-0.4c0-0.3-0.1-0.6-0.3-0.8
	c-0.2-0.2-0.5-0.3-0.8-0.3c-0.3,0-0.6,0.1-0.8,0.2c-0.2,0.2-0.3,0.4-0.3,0.7h-2c0-0.4,0.1-0.8,0.4-1.2c0.3-0.4,0.7-0.7,1.1-0.9
	c0.5-0.2,1-0.3,1.7-0.3c0.9,0,1.7,0.2,2.2,0.7c0.5,0.5,0.8,1.1,0.8,2v3.3c0,0.7,0.1,1.3,0.3,1.6v0.1H301.4z M293.7,385.1
	c0-0.7-0.1-1.2-0.4-1.6c-0.2-0.4-0.6-0.6-1.1-0.6c-0.6,0-1.1,0.2-1.3,0.7v3.1c0.2,0.5,0.7,0.7,1.3,0.7
	C293.2,387.5,293.7,386.7,293.7,385.1z M295.7,385.2c0,1.2-0.3,2.1-0.8,2.8c-0.5,0.7-1.2,1-2.1,1c-0.8,0-1.4-0.3-1.8-0.8v3.6h-2
	v-10.5h1.9l0.1,0.7c0.5-0.6,1.1-0.9,1.9-0.9c0.9,0,1.7,0.3,2.2,1s0.8,1.6,0.8,2.8V385.2z M278.5,381.4l0.1,0.8c0.5-0.7,1.3-1,2.2-1
	c1,0,1.6,0.4,2,1.2c0.5-0.8,1.3-1.2,2.3-1.2c0.8,0,1.4,0.2,1.8,0.7c0.4,0.5,0.6,1.2,0.6,2.1v4.8h-2v-4.8c0-0.4-0.1-0.7-0.3-0.9
	c-0.2-0.2-0.5-0.3-0.9-0.3c-0.6,0-1,0.3-1.3,0.9l0,5.2h-2v-4.8c0-0.4-0.1-0.8-0.3-0.9c-0.2-0.2-0.5-0.3-0.9-0.3
	c-0.6,0-1,0.2-1.2,0.7v5.3h-2v-7.6H278.5z M274.8,389h-2.1v-10.2h2.1V389z"/>
<path class="st5" d="M311.5,244.6v1.3h0.9v1h-0.9v2.6c0,0.2,0,0.3,0.1,0.4c0.1,0.1,0.2,0.1,0.4,0.1c0.2,0,0.3,0,0.4,0v1.1
	c-0.3,0.1-0.6,0.1-0.9,0.1c-1,0-1.5-0.5-1.5-1.5v-2.8h-0.8v-1h0.8v-1.3H311.5z M305.5,245.9l0,0.6c0.4-0.5,0.9-0.7,1.5-0.7
	c0.6,0,1,0.2,1.3,0.5s0.4,0.8,0.4,1.5v3.4h-1.4v-3.4c0-0.3-0.1-0.5-0.2-0.6c-0.1-0.1-0.3-0.2-0.6-0.2c-0.4,0-0.7,0.2-0.9,0.5v3.7
	h-1.4v-5.3H305.5z M301.1,246.9c-0.3,0-0.5,0.1-0.7,0.3c-0.2,0.2-0.3,0.5-0.3,0.8h2v-0.1c0-0.3-0.1-0.6-0.3-0.7
	C301.6,247,301.4,246.9,301.1,246.9z M301.2,251.3c-0.8,0-1.4-0.2-1.9-0.7c-0.5-0.5-0.7-1.1-0.7-1.9v-0.1c0-0.5,0.1-1,0.3-1.4
	c0.2-0.4,0.5-0.7,0.9-1c0.4-0.2,0.8-0.3,1.3-0.3c0.7,0,1.3,0.2,1.7,0.7c0.4,0.5,0.6,1.1,0.6,1.9v0.6H300c0,0.3,0.2,0.6,0.4,0.8
	c0.2,0.2,0.5,0.3,0.9,0.3c0.5,0,1-0.2,1.3-0.6l0.7,0.8c-0.2,0.3-0.5,0.5-0.9,0.7C302.1,251.2,301.7,251.3,301.2,251.3z M291.5,245.9
	l0,0.6c0.4-0.5,0.9-0.7,1.5-0.7c0.7,0,1.1,0.3,1.4,0.8c0.4-0.5,0.9-0.8,1.6-0.8c0.6,0,1,0.2,1.3,0.5c0.3,0.3,0.4,0.8,0.4,1.5v3.4
	h-1.4v-3.4c0-0.3-0.1-0.5-0.2-0.7c-0.1-0.1-0.3-0.2-0.6-0.2c-0.4,0-0.7,0.2-0.9,0.6l0,3.6h-1.4v-3.4c0-0.3-0.1-0.5-0.2-0.7
	c-0.1-0.1-0.3-0.2-0.6-0.2c-0.4,0-0.7,0.2-0.9,0.5v3.7h-1.4v-5.3H291.5z M287,246.9c-0.3,0-0.5,0.1-0.7,0.3
	c-0.2,0.2-0.3,0.5-0.3,0.8h2v-0.1c0-0.3-0.1-0.6-0.3-0.7C287.5,247,287.3,246.9,287,246.9z M287.2,251.3c-0.8,0-1.4-0.2-1.9-0.7
	c-0.5-0.5-0.7-1.1-0.7-1.9v-0.1c0-0.5,0.1-1,0.3-1.4c0.2-0.4,0.5-0.7,0.9-1c0.4-0.2,0.8-0.3,1.3-0.3c0.7,0,1.3,0.2,1.7,0.7
	c0.4,0.5,0.6,1.1,0.6,1.9v0.6H286c0,0.3,0.2,0.6,0.4,0.8c0.2,0.2,0.5,0.3,0.9,0.3c0.5,0,1-0.2,1.3-0.6l0.7,0.8
	c-0.2,0.3-0.5,0.5-0.9,0.7C288,251.2,287.6,251.3,287.2,251.3z M284.1,247.2c-0.2,0-0.4,0-0.5,0c-0.5,0-0.9,0.2-1.1,0.5v3.5h-1.4
	v-5.3h1.3l0,0.6c0.3-0.5,0.7-0.7,1.2-0.7c0.2,0,0.3,0,0.4,0.1L284.1,247.2z M278.7,250.6c-0.3,0.4-0.8,0.6-1.4,0.6
	c-0.6,0-1-0.2-1.3-0.5c-0.3-0.3-0.4-0.8-0.5-1.4v-3.5h1.4v3.4c0,0.6,0.3,0.8,0.8,0.8c0.5,0,0.8-0.2,1-0.5v-3.7h1.4v5.3h-1.3
	L278.7,250.6z M272.6,250.1c0.3,0,0.5-0.1,0.6-0.2c0.2-0.1,0.2-0.3,0.3-0.6h1.3c0,0.4-0.1,0.7-0.3,1c-0.2,0.3-0.5,0.5-0.8,0.7
	c-0.3,0.2-0.7,0.2-1.1,0.2c-0.8,0-1.4-0.2-1.8-0.7c-0.4-0.5-0.7-1.1-0.7-2v-0.1c0-0.8,0.2-1.5,0.6-1.9c0.4-0.5,1-0.7,1.8-0.7
	c0.7,0,1.2,0.2,1.6,0.6c0.4,0.4,0.6,0.9,0.6,1.5h-1.3c0-0.3-0.1-0.5-0.3-0.7c-0.2-0.2-0.4-0.3-0.6-0.3c-0.3,0-0.6,0.1-0.7,0.4
	c-0.2,0.2-0.2,0.6-0.2,1.2v0.1c0,0.5,0.1,0.9,0.2,1.2C272,250,272.2,250.1,272.6,250.1z M265.9,248.6c0,0.5,0.1,0.9,0.3,1.2
	c0.2,0.3,0.5,0.4,0.8,0.4c0.3,0,0.6-0.1,0.8-0.4c0.2-0.3,0.3-0.7,0.3-1.3c0-0.5-0.1-0.9-0.3-1.1c-0.2-0.3-0.5-0.4-0.8-0.4
	c-0.3,0-0.6,0.1-0.8,0.4C266,247.6,265.9,248,265.9,248.6z M264.5,248.5c0-0.5,0.1-1,0.3-1.4c0.2-0.4,0.5-0.7,0.9-1
	c0.4-0.2,0.8-0.3,1.3-0.3c0.7,0,1.3,0.2,1.7,0.7c0.5,0.4,0.7,1,0.8,1.8l0,0.4c0,0.8-0.2,1.5-0.7,2c-0.5,0.5-1.1,0.7-1.8,0.7
	c-0.8,0-1.4-0.2-1.8-0.7C264.7,250,264.5,249.4,264.5,248.5L264.5,248.5z M264.2,247.2c-0.2,0-0.4,0-0.5,0c-0.5,0-0.9,0.2-1.1,0.5
	v3.5h-1.4v-5.3h1.3l0,0.6c0.3-0.5,0.7-0.7,1.2-0.7c0.2,0,0.3,0,0.4,0.1L264.2,247.2z M256.3,247.5h1.3c0.4,0,0.7-0.1,0.9-0.3
	c0.2-0.2,0.3-0.4,0.3-0.8c0-0.3-0.1-0.6-0.3-0.8c-0.2-0.2-0.5-0.3-0.8-0.3h-1.3V247.5z M256.3,248.7v2.5h-1.5V244h2.8
	c0.5,0,1,0.1,1.4,0.3c0.4,0.2,0.7,0.5,0.9,0.8c0.2,0.4,0.3,0.8,0.3,1.2c0,0.7-0.2,1.2-0.7,1.7c-0.5,0.4-1.1,0.6-2,0.6H256.3z
	 M308.8,239.7h-1.4v-7.5h1.4V239.7z M303.8,238.7c0.2,0,0.4,0,0.6-0.1c0.2-0.1,0.3-0.2,0.4-0.4v-0.9h-0.5c-0.7,0-1.1,0.2-1.1,0.7
	l0,0.1c0,0.2,0.1,0.3,0.2,0.4S303.6,238.7,303.8,238.7z M305,239.7c-0.1-0.1-0.1-0.3-0.1-0.5c-0.3,0.4-0.8,0.6-1.3,0.6
	c-0.5,0-0.9-0.1-1.3-0.4c-0.3-0.3-0.5-0.7-0.5-1.1c0-0.6,0.2-1,0.6-1.3c0.4-0.3,1-0.5,1.8-0.5h0.6v-0.3c0-0.2-0.1-0.4-0.2-0.6
	c-0.1-0.1-0.3-0.2-0.6-0.2c-0.2,0-0.4,0.1-0.6,0.2c-0.1,0.1-0.2,0.3-0.2,0.5h-1.4c0-0.3,0.1-0.6,0.3-0.8c0.2-0.3,0.5-0.5,0.8-0.6
	c0.3-0.1,0.7-0.2,1.2-0.2c0.7,0,1.2,0.2,1.5,0.5c0.4,0.3,0.6,0.8,0.6,1.4v2.3c0,0.5,0.1,0.9,0.2,1.1v0.1H305z M299.2,233.1
	c0-0.2,0.1-0.4,0.2-0.5c0.1-0.1,0.3-0.2,0.6-0.2c0.2,0,0.4,0.1,0.6,0.2c0.1,0.1,0.2,0.3,0.2,0.5c0,0.2-0.1,0.4-0.2,0.5
	c-0.1,0.1-0.3,0.2-0.6,0.2c-0.2,0-0.4-0.1-0.6-0.2C299.3,233.5,299.2,233.3,299.2,233.1z M300.7,239.7h-1.4v-5.3h1.4V239.7z
	 M296.2,238.7c0.3,0,0.5-0.1,0.6-0.2c0.2-0.1,0.2-0.3,0.3-0.6h1.3c0,0.4-0.1,0.7-0.3,1c-0.2,0.3-0.5,0.5-0.8,0.7
	c-0.3,0.2-0.7,0.2-1.1,0.2c-0.8,0-1.4-0.2-1.8-0.7c-0.4-0.5-0.7-1.1-0.7-2V237c0-0.8,0.2-1.5,0.6-1.9c0.4-0.5,1-0.7,1.8-0.7
	c0.7,0,1.2,0.2,1.6,0.6c0.4,0.4,0.6,0.9,0.6,1.5h-1.3c0-0.3-0.1-0.5-0.3-0.7c-0.2-0.2-0.4-0.3-0.6-0.3c-0.3,0-0.6,0.1-0.7,0.4
	c-0.2,0.2-0.2,0.6-0.2,1.2v0.1c0,0.5,0.1,0.9,0.2,1.2C295.6,238.6,295.9,238.7,296.2,238.7z M293.5,235.8c-0.2,0-0.4,0-0.5,0
	c-0.5,0-0.9,0.2-1.1,0.5v3.5h-1.4v-5.3h1.3l0,0.6c0.3-0.5,0.7-0.7,1.2-0.7c0.2,0,0.3,0,0.4,0.1L293.5,235.8z M287.3,235.5
	c-0.3,0-0.5,0.1-0.7,0.3c-0.2,0.2-0.3,0.5-0.3,0.8h2v-0.1c0-0.3-0.1-0.6-0.3-0.7C287.9,235.6,287.6,235.5,287.3,235.5z M287.5,239.8
	c-0.8,0-1.4-0.2-1.9-0.7c-0.5-0.5-0.7-1.1-0.7-1.9v-0.1c0-0.5,0.1-1,0.3-1.4c0.2-0.4,0.5-0.7,0.9-1c0.4-0.2,0.8-0.3,1.3-0.3
	c0.7,0,1.3,0.2,1.7,0.7c0.4,0.5,0.6,1.1,0.6,1.9v0.6h-3.4c0,0.3,0.2,0.6,0.4,0.8c0.2,0.2,0.5,0.3,0.9,0.3c0.5,0,1-0.2,1.3-0.6
	l0.7,0.8c-0.2,0.3-0.5,0.5-0.9,0.7C288.3,239.7,287.9,239.8,287.5,239.8z M277.7,234.4l0,0.6c0.4-0.5,0.9-0.7,1.5-0.7
	c0.7,0,1.1,0.3,1.4,0.8c0.4-0.5,0.9-0.8,1.6-0.8c0.6,0,1,0.2,1.3,0.5c0.3,0.3,0.4,0.8,0.4,1.5v3.4h-1.4v-3.4c0-0.3-0.1-0.5-0.2-0.7
	c-0.1-0.1-0.3-0.2-0.6-0.2c-0.4,0-0.7,0.2-0.9,0.6l0,3.6h-1.4v-3.4c0-0.3-0.1-0.5-0.2-0.7s-0.3-0.2-0.6-0.2c-0.4,0-0.7,0.2-0.9,0.5
	v3.7h-1.4v-5.3H277.7z M269.1,234.4l0,0.6c0.4-0.5,0.9-0.7,1.5-0.7c0.7,0,1.1,0.3,1.4,0.8c0.4-0.5,0.9-0.8,1.6-0.8
	c0.6,0,1,0.2,1.3,0.5c0.3,0.3,0.4,0.8,0.4,1.5v3.4h-1.4v-3.4c0-0.3-0.1-0.5-0.2-0.7c-0.1-0.1-0.3-0.2-0.6-0.2
	c-0.4,0-0.7,0.2-0.9,0.6l0,3.6h-1.4v-3.4c0-0.3-0.1-0.5-0.2-0.7s-0.3-0.2-0.6-0.2c-0.4,0-0.7,0.2-0.9,0.5v3.7h-1.4v-5.3H269.1z
	 M263.3,237.1c0,0.5,0.1,0.9,0.3,1.2c0.2,0.3,0.5,0.4,0.8,0.4c0.3,0,0.6-0.1,0.8-0.4c0.2-0.3,0.3-0.7,0.3-1.3c0-0.5-0.1-0.9-0.3-1.1
	s-0.5-0.4-0.8-0.4c-0.3,0-0.6,0.1-0.8,0.4C263.4,236.2,263.3,236.6,263.3,237.1z M261.9,237c0-0.5,0.1-1,0.3-1.4
	c0.2-0.4,0.5-0.7,0.9-1c0.4-0.2,0.8-0.3,1.3-0.3c0.7,0,1.3,0.2,1.7,0.7c0.5,0.4,0.7,1,0.8,1.8l0,0.4c0,0.8-0.2,1.5-0.7,2
	c-0.5,0.5-1.1,0.7-1.8,0.7c-0.8,0-1.4-0.2-1.8-0.7C262.1,238.6,261.9,237.9,261.9,237L261.9,237z M261.2,237.4
	c-0.1,0.8-0.3,1.4-0.8,1.8c-0.5,0.4-1.2,0.7-2,0.7c-0.9,0-1.6-0.3-2.2-0.9c-0.5-0.6-0.8-1.5-0.8-2.5v-0.4c0-0.7,0.1-1.3,0.4-1.8
	c0.2-0.5,0.6-0.9,1-1.2c0.4-0.3,1-0.4,1.6-0.4c0.8,0,1.5,0.2,2,0.7s0.8,1.1,0.9,1.9h-1.5c0-0.5-0.2-0.8-0.4-1
	c-0.2-0.2-0.6-0.3-1-0.3c-0.5,0-0.9,0.2-1.1,0.5c-0.2,0.3-0.4,0.9-0.4,1.6v0.5c0,0.8,0.1,1.3,0.3,1.7c0.2,0.4,0.6,0.5,1.1,0.5
	c0.5,0,0.8-0.1,1-0.3c0.2-0.2,0.4-0.5,0.4-1H261.2z"/>
<path class="st5" d="M136.4,289.3l0,0.6c0.4-0.5,0.9-0.7,1.5-0.7c0.6,0,1,0.2,1.3,0.5c0.3,0.3,0.4,0.8,0.4,1.5v3.4h-1.4v-3.4
	c0-0.3-0.1-0.5-0.2-0.6c-0.1-0.1-0.3-0.2-0.6-0.2c-0.4,0-0.7,0.2-0.9,0.5v3.7h-1.4v-5.3H136.4z M130.6,292c0,0.5,0.1,0.9,0.3,1.2
	c0.2,0.3,0.5,0.4,0.8,0.4c0.3,0,0.6-0.1,0.8-0.4c0.2-0.3,0.3-0.7,0.3-1.3c0-0.5-0.1-0.9-0.3-1.1c-0.2-0.3-0.5-0.4-0.8-0.4
	c-0.3,0-0.6,0.1-0.8,0.4C130.7,291,130.6,291.4,130.6,292z M129.2,291.9c0-0.5,0.1-1,0.3-1.4c0.2-0.4,0.5-0.7,0.9-1
	c0.4-0.2,0.8-0.3,1.3-0.3c0.7,0,1.3,0.2,1.7,0.7c0.5,0.4,0.7,1,0.8,1.8l0,0.4c0,0.8-0.2,1.5-0.7,2c-0.5,0.5-1.1,0.7-1.8,0.7
	c-0.8,0-1.4-0.2-1.8-0.7C129.5,293.5,129.2,292.8,129.2,291.9L129.2,291.9z M126.8,287.9c0-0.2,0.1-0.4,0.2-0.5
	c0.1-0.1,0.3-0.2,0.6-0.2c0.2,0,0.4,0.1,0.6,0.2c0.1,0.1,0.2,0.3,0.2,0.5c0,0.2-0.1,0.4-0.2,0.5c-0.1,0.1-0.3,0.2-0.6,0.2
	s-0.4-0.1-0.6-0.2C126.9,288.3,126.8,288.1,126.8,287.9z M128.3,294.6h-1.4v-5.3h1.4V294.6z M125.1,288v1.3h0.9v1h-0.9v2.6
	c0,0.2,0,0.3,0.1,0.4c0.1,0.1,0.2,0.1,0.4,0.1c0.2,0,0.3,0,0.4,0v1.1c-0.3,0.1-0.6,0.1-0.9,0.1c-1,0-1.5-0.5-1.5-1.5v-2.8h-0.8v-1
	h0.8V288H125.1z M119.9,293.6c0.2,0,0.4,0,0.6-0.1c0.2-0.1,0.3-0.2,0.4-0.4v-0.9h-0.5c-0.7,0-1.1,0.2-1.1,0.7l0,0.1
	c0,0.2,0.1,0.3,0.2,0.4C119.6,293.5,119.7,293.6,119.9,293.6z M121.1,294.6c-0.1-0.1-0.1-0.3-0.1-0.5c-0.3,0.4-0.8,0.6-1.3,0.6
	c-0.5,0-0.9-0.1-1.3-0.4c-0.3-0.3-0.5-0.7-0.5-1.1c0-0.6,0.2-1,0.6-1.3c0.4-0.3,1-0.5,1.8-0.5h0.6v-0.3c0-0.2-0.1-0.4-0.2-0.6
	c-0.1-0.1-0.3-0.2-0.6-0.2c-0.2,0-0.4,0.1-0.6,0.2c-0.1,0.1-0.2,0.3-0.2,0.5H118c0-0.3,0.1-0.6,0.3-0.8c0.2-0.3,0.5-0.5,0.8-0.6
	c0.3-0.1,0.7-0.2,1.2-0.2c0.7,0,1.2,0.2,1.5,0.5c0.4,0.3,0.6,0.8,0.6,1.4v2.3c0,0.5,0.1,0.9,0.2,1.1v0.1H121.1z M114.9,290.3
	c-0.3,0-0.5,0.1-0.7,0.3c-0.2,0.2-0.3,0.5-0.3,0.8h2v-0.1c0-0.3-0.1-0.6-0.3-0.7C115.4,290.4,115.2,290.3,114.9,290.3z M115.1,294.7
	c-0.8,0-1.4-0.2-1.9-0.7c-0.5-0.5-0.7-1.1-0.7-1.9v-0.1c0-0.5,0.1-1,0.3-1.4c0.2-0.4,0.5-0.7,0.9-1c0.4-0.2,0.8-0.3,1.3-0.3
	c0.7,0,1.3,0.2,1.7,0.7c0.4,0.5,0.6,1.1,0.6,1.9v0.6h-3.4c0,0.3,0.2,0.6,0.4,0.8c0.2,0.2,0.5,0.3,0.9,0.3c0.5,0,1-0.2,1.3-0.6
	l0.7,0.8c-0.2,0.3-0.5,0.5-0.9,0.7C115.9,294.6,115.5,294.7,115.1,294.7z M112.1,290.6c-0.2,0-0.4,0-0.5,0c-0.5,0-0.9,0.2-1.1,0.5
	v3.5h-1.4v-5.3h1.3l0,0.6c0.3-0.5,0.7-0.7,1.2-0.7c0.2,0,0.3,0,0.4,0.1L112.1,290.6z M106.1,293.5c0.3,0,0.5-0.1,0.6-0.2
	c0.2-0.1,0.2-0.3,0.3-0.6h1.3c0,0.4-0.1,0.7-0.3,1c-0.2,0.3-0.5,0.5-0.8,0.7c-0.3,0.2-0.7,0.2-1.1,0.2c-0.8,0-1.4-0.2-1.8-0.7
	c-0.4-0.5-0.7-1.1-0.7-2v-0.1c0-0.8,0.2-1.5,0.6-1.9c0.4-0.5,1-0.7,1.8-0.7c0.7,0,1.2,0.2,1.6,0.6c0.4,0.4,0.6,0.9,0.6,1.5H107
	c0-0.3-0.1-0.5-0.3-0.7c-0.2-0.2-0.4-0.3-0.6-0.3c-0.3,0-0.6,0.1-0.7,0.4c-0.2,0.2-0.2,0.6-0.2,1.2v0.1c0,0.5,0.1,0.9,0.2,1.2
	C105.5,293.4,105.7,293.5,106.1,293.5z M102.7,292.1H100V291h2.7V292.1z M95.5,292c0,0.5,0.1,0.9,0.3,1.2c0.2,0.3,0.5,0.4,0.8,0.4
	c0.3,0,0.6-0.1,0.8-0.4c0.2-0.3,0.3-0.7,0.3-1.3c0-0.5-0.1-0.9-0.3-1.1c-0.2-0.3-0.5-0.4-0.8-0.4c-0.3,0-0.6,0.1-0.8,0.4
	C95.6,291,95.5,291.4,95.5,292z M94.1,291.9c0-0.5,0.1-1,0.3-1.4c0.2-0.4,0.5-0.7,0.9-1c0.4-0.2,0.8-0.3,1.3-0.3
	c0.7,0,1.3,0.2,1.7,0.7c0.5,0.4,0.7,1,0.8,1.8l0,0.4c0,0.8-0.2,1.5-0.7,2c-0.5,0.5-1.1,0.7-1.8,0.7c-0.8,0-1.4-0.2-1.8-0.7
	C94.3,293.5,94.1,292.8,94.1,291.9L94.1,291.9z M93.5,292.2c-0.1,0.8-0.3,1.4-0.8,1.8c-0.5,0.4-1.2,0.7-2,0.7
	c-0.9,0-1.6-0.3-2.2-0.9c-0.5-0.6-0.8-1.5-0.8-2.5v-0.4c0-0.7,0.1-1.3,0.4-1.8c0.2-0.5,0.6-0.9,1-1.2c0.4-0.3,1-0.4,1.6-0.4
	c0.8,0,1.5,0.2,2,0.7c0.5,0.4,0.8,1.1,0.9,1.9H92c0-0.5-0.2-0.8-0.4-1c-0.2-0.2-0.6-0.3-1-0.3c-0.5,0-0.9,0.2-1.1,0.5
	c-0.2,0.3-0.4,0.9-0.4,1.6v0.5c0,0.8,0.1,1.3,0.3,1.7c0.2,0.4,0.6,0.5,1.1,0.5c0.5,0,0.8-0.1,1-0.3c0.2-0.2,0.4-0.5,0.4-1H93.5z
	 M132.4,277.9l0,0.6c0.4-0.5,0.9-0.7,1.5-0.7c0.6,0,1,0.2,1.3,0.5s0.4,0.8,0.4,1.5v3.4h-1.4v-3.4c0-0.3-0.1-0.5-0.2-0.6
	c-0.1-0.1-0.3-0.2-0.6-0.2c-0.4,0-0.7,0.2-0.9,0.5v3.7h-1.4v-5.3H132.4z M126.6,280.6c0,0.5,0.1,0.9,0.3,1.2
	c0.2,0.3,0.5,0.4,0.8,0.4c0.3,0,0.6-0.1,0.8-0.4c0.2-0.3,0.3-0.7,0.3-1.3c0-0.5-0.1-0.9-0.3-1.1c-0.2-0.3-0.5-0.4-0.8-0.4
	c-0.3,0-0.6,0.1-0.8,0.4C126.7,279.6,126.6,280,126.6,280.6z M125.2,280.5c0-0.5,0.1-1,0.3-1.4s0.5-0.7,0.9-1
	c0.4-0.2,0.8-0.3,1.3-0.3c0.7,0,1.3,0.2,1.7,0.7c0.5,0.4,0.7,1,0.8,1.8l0,0.4c0,0.8-0.2,1.5-0.7,2c-0.5,0.5-1.1,0.7-1.8,0.7
	c-0.8,0-1.4-0.2-1.8-0.7C125.4,282,125.2,281.4,125.2,280.5L125.2,280.5z M122.8,276.5c0-0.2,0.1-0.4,0.2-0.5
	c0.1-0.1,0.3-0.2,0.6-0.2c0.2,0,0.4,0.1,0.6,0.2c0.1,0.1,0.2,0.3,0.2,0.5c0,0.2-0.1,0.4-0.2,0.5c-0.1,0.1-0.3,0.2-0.6,0.2
	s-0.4-0.1-0.6-0.2C122.8,276.9,122.8,276.7,122.8,276.5z M124.3,283.1h-1.4v-5.3h1.4V283.1z M121.1,276.6v1.3h0.9v1h-0.9v2.6
	c0,0.2,0,0.3,0.1,0.4s0.2,0.1,0.4,0.1c0.2,0,0.3,0,0.4,0v1.1c-0.3,0.1-0.6,0.1-0.9,0.1c-1,0-1.5-0.5-1.5-1.5v-2.8h-0.8v-1h0.8v-1.3
	H121.1z M115.9,282.2c0.2,0,0.4,0,0.6-0.1c0.2-0.1,0.3-0.2,0.4-0.4v-0.9h-0.5c-0.7,0-1.1,0.2-1.1,0.7l0,0.1c0,0.2,0.1,0.3,0.2,0.4
	C115.5,282.1,115.7,282.2,115.9,282.2z M117.1,283.1c-0.1-0.1-0.1-0.3-0.1-0.5c-0.3,0.4-0.8,0.6-1.3,0.6c-0.5,0-0.9-0.1-1.3-0.4
	c-0.3-0.3-0.5-0.7-0.5-1.1c0-0.6,0.2-1,0.6-1.3c0.4-0.3,1-0.5,1.8-0.5h0.6v-0.3c0-0.2-0.1-0.4-0.2-0.6c-0.1-0.1-0.3-0.2-0.6-0.2
	c-0.2,0-0.4,0.1-0.6,0.2c-0.1,0.1-0.2,0.3-0.2,0.5h-1.4c0-0.3,0.1-0.6,0.3-0.8c0.2-0.3,0.5-0.5,0.8-0.6c0.3-0.1,0.7-0.2,1.2-0.2
	c0.7,0,1.2,0.2,1.5,0.5c0.4,0.3,0.6,0.8,0.6,1.4v2.3c0,0.5,0.1,0.9,0.2,1.1v0.1H117.1z M111,281.4l1-3.6h1.5l-1.8,5.3h-1.3l-1.8-5.3
	h1.5L111,281.4z M104.7,280.6c0,0.5,0.1,0.9,0.3,1.2c0.2,0.3,0.5,0.4,0.8,0.4c0.3,0,0.6-0.1,0.8-0.4c0.2-0.3,0.3-0.7,0.3-1.3
	c0-0.5-0.1-0.9-0.3-1.1c-0.2-0.3-0.5-0.4-0.8-0.4c-0.3,0-0.6,0.1-0.8,0.4C104.7,279.6,104.7,280,104.7,280.6z M103.2,280.5
	c0-0.5,0.1-1,0.3-1.4c0.2-0.4,0.5-0.7,0.9-1c0.4-0.2,0.8-0.3,1.3-0.3c0.7,0,1.3,0.2,1.7,0.7c0.5,0.4,0.7,1,0.8,1.8l0,0.4
	c0,0.8-0.2,1.5-0.7,2c-0.5,0.5-1.1,0.7-1.8,0.7c-0.8,0-1.4-0.2-1.8-0.7C103.5,282,103.2,281.4,103.2,280.5L103.2,280.5z M99.2,277.9
	l0,0.6c0.4-0.5,0.9-0.7,1.5-0.7c0.6,0,1,0.2,1.3,0.5c0.3,0.3,0.4,0.8,0.4,1.5v3.4H101v-3.4c0-0.3-0.1-0.5-0.2-0.6
	c-0.1-0.1-0.3-0.2-0.6-0.2c-0.4,0-0.7,0.2-0.9,0.5v3.7h-1.4v-5.3H99.2z M93.5,277.9l0,0.6c0.4-0.5,0.9-0.7,1.5-0.7
	c0.6,0,1,0.2,1.3,0.5s0.4,0.8,0.4,1.5v3.4h-1.4v-3.4c0-0.3-0.1-0.5-0.2-0.6c-0.1-0.1-0.3-0.2-0.6-0.2c-0.4,0-0.7,0.2-0.9,0.5v3.7
	h-1.4v-5.3H93.5z M91,283.1h-1.5V276H91V283.1z"/>
<path class="st5" d="M156.7,127.6l0,0.6c0.4-0.5,0.9-0.7,1.5-0.7c0.6,0,1,0.2,1.3,0.5c0.3,0.3,0.4,0.8,0.4,1.5v3.4h-1.4v-3.4
	c0-0.3-0.1-0.5-0.2-0.6c-0.1-0.1-0.3-0.2-0.6-0.2c-0.4,0-0.7,0.2-0.9,0.5v3.7h-1.4v-5.3H156.7z M150.9,130.3c0,0.5,0.1,0.9,0.3,1.2
	c0.2,0.3,0.5,0.4,0.8,0.4c0.3,0,0.6-0.1,0.8-0.4c0.2-0.3,0.3-0.7,0.3-1.3c0-0.5-0.1-0.9-0.3-1.1c-0.2-0.3-0.5-0.4-0.8-0.4
	c-0.3,0-0.6,0.1-0.8,0.4C151,129.3,150.9,129.7,150.9,130.3z M149.5,130.2c0-0.5,0.1-1,0.3-1.4c0.2-0.4,0.5-0.7,0.9-1
	c0.4-0.2,0.8-0.3,1.3-0.3c0.7,0,1.3,0.2,1.7,0.7c0.5,0.4,0.7,1,0.8,1.8l0,0.4c0,0.8-0.2,1.5-0.7,2c-0.5,0.5-1.1,0.7-1.8,0.7
	c-0.8,0-1.4-0.2-1.8-0.7C149.7,131.8,149.5,131.1,149.5,130.2L149.5,130.2z M147,126.2c0-0.2,0.1-0.4,0.2-0.5
	c0.1-0.1,0.3-0.2,0.6-0.2c0.2,0,0.4,0.1,0.6,0.2c0.1,0.1,0.2,0.3,0.2,0.5c0,0.2-0.1,0.4-0.2,0.5c-0.1,0.1-0.3,0.2-0.6,0.2
	s-0.4-0.1-0.6-0.2C147.1,126.6,147,126.5,147,126.2z M148.5,132.9h-1.4v-5.3h1.4V132.9z M145.4,126.3v1.3h0.9v1h-0.9v2.6
	c0,0.2,0,0.3,0.1,0.4c0.1,0.1,0.2,0.1,0.4,0.1c0.2,0,0.3,0,0.4,0v1.1c-0.3,0.1-0.6,0.1-0.9,0.1c-1,0-1.5-0.5-1.5-1.5v-2.8h-0.8v-1
	h0.8v-1.3H145.4z M140.2,131.9c0.2,0,0.4,0,0.6-0.1c0.2-0.1,0.3-0.2,0.4-0.4v-0.9h-0.5c-0.7,0-1.1,0.2-1.1,0.7l0,0.1
	c0,0.2,0.1,0.3,0.2,0.4C139.8,131.9,140,131.9,140.2,131.9z M141.4,132.9c-0.1-0.1-0.1-0.3-0.1-0.5c-0.3,0.4-0.8,0.6-1.3,0.6
	c-0.5,0-0.9-0.1-1.3-0.4c-0.3-0.3-0.5-0.7-0.5-1.1c0-0.6,0.2-1,0.6-1.3c0.4-0.3,1-0.5,1.8-0.5h0.6v-0.3c0-0.2-0.1-0.4-0.2-0.6
	c-0.1-0.1-0.3-0.2-0.6-0.2c-0.2,0-0.4,0.1-0.6,0.2c-0.1,0.1-0.2,0.3-0.2,0.5h-1.4c0-0.3,0.1-0.6,0.3-0.8c0.2-0.3,0.5-0.5,0.8-0.6
	c0.3-0.1,0.7-0.2,1.2-0.2c0.7,0,1.2,0.2,1.5,0.5c0.4,0.3,0.6,0.8,0.6,1.4v2.3c0,0.5,0.1,0.9,0.2,1.1v0.1H141.4z M133.9,130.3
	c0,0.5,0.1,0.9,0.3,1.1c0.2,0.3,0.4,0.4,0.8,0.4c0.4,0,0.7-0.2,0.9-0.6v-2.1c-0.2-0.4-0.5-0.6-0.9-0.6
	C134.2,128.7,133.9,129.2,133.9,130.3z M132.5,130.2c0-0.8,0.2-1.5,0.6-2c0.4-0.5,0.9-0.7,1.5-0.7c0.5,0,0.9,0.2,1.3,0.6v-2.7h1.4
	v7.5h-1.3l-0.1-0.6c-0.4,0.4-0.8,0.7-1.4,0.7c-0.6,0-1.1-0.2-1.5-0.7C132.6,131.8,132.5,131.1,132.5,130.2z M130,126.2
	c0-0.2,0.1-0.4,0.2-0.5c0.1-0.1,0.3-0.2,0.6-0.2c0.2,0,0.4,0.1,0.6,0.2s0.2,0.3,0.2,0.5c0,0.2-0.1,0.4-0.2,0.5
	c-0.1,0.1-0.3,0.2-0.6,0.2c-0.2,0-0.4-0.1-0.6-0.2C130.1,126.6,130,126.5,130,126.2z M131.5,132.9h-1.4v-5.3h1.4V132.9z
	 M128.8,132.9h-1.4v-7.5h1.4V132.9z M123.9,131.9c0.2,0,0.4,0,0.6-0.1c0.2-0.1,0.3-0.2,0.4-0.4v-0.9h-0.5c-0.7,0-1.1,0.2-1.1,0.7
	l0,0.1c0,0.2,0.1,0.3,0.2,0.4C123.5,131.9,123.7,131.9,123.9,131.9z M125.1,132.9c-0.1-0.1-0.1-0.3-0.1-0.5
	c-0.3,0.4-0.8,0.6-1.3,0.6c-0.5,0-0.9-0.1-1.3-0.4c-0.3-0.3-0.5-0.7-0.5-1.1c0-0.6,0.2-1,0.6-1.3c0.4-0.3,1-0.5,1.8-0.5h0.6v-0.3
	c0-0.2-0.1-0.4-0.2-0.6c-0.1-0.1-0.3-0.2-0.6-0.2c-0.2,0-0.4,0.1-0.6,0.2c-0.1,0.1-0.2,0.3-0.2,0.5h-1.4c0-0.3,0.1-0.6,0.3-0.8
	c0.2-0.3,0.5-0.5,0.8-0.6c0.3-0.1,0.7-0.2,1.2-0.2c0.7,0,1.2,0.2,1.5,0.5c0.4,0.3,0.6,0.8,0.6,1.4v2.3c0,0.5,0.1,0.9,0.2,1.1v0.1
	H125.1z M118.4,131.1l1.6-5.3h1.6l-2.5,7.1h-1.5l-2.5-7.1h1.6L118.4,131.1z M152.7,116.2l0,0.6c0.4-0.5,0.9-0.7,1.5-0.7
	c0.6,0,1,0.2,1.3,0.5c0.3,0.3,0.4,0.8,0.4,1.5v3.4h-1.4v-3.4c0-0.3-0.1-0.5-0.2-0.6c-0.1-0.1-0.3-0.2-0.6-0.2
	c-0.4,0-0.7,0.2-0.9,0.5v3.7h-1.4v-5.3H152.7z M146.9,118.9c0,0.5,0.1,0.9,0.3,1.2c0.2,0.3,0.5,0.4,0.8,0.4c0.3,0,0.6-0.1,0.8-0.4
	c0.2-0.3,0.3-0.7,0.3-1.3c0-0.5-0.1-0.9-0.3-1.1c-0.2-0.3-0.5-0.4-0.8-0.4c-0.3,0-0.6,0.1-0.8,0.4
	C147,117.9,146.9,118.3,146.9,118.9z M145.5,118.8c0-0.5,0.1-1,0.3-1.4c0.2-0.4,0.5-0.7,0.9-1c0.4-0.2,0.8-0.3,1.3-0.3
	c0.7,0,1.3,0.2,1.7,0.7c0.5,0.4,0.7,1,0.8,1.8l0,0.4c0,0.8-0.2,1.5-0.7,2c-0.5,0.5-1.1,0.7-1.8,0.7s-1.4-0.2-1.8-0.7
	C145.7,120.3,145.5,119.7,145.5,118.8L145.5,118.8z M143.1,114.8c0-0.2,0.1-0.4,0.2-0.5c0.1-0.1,0.3-0.2,0.6-0.2
	c0.2,0,0.4,0.1,0.6,0.2c0.1,0.1,0.2,0.3,0.2,0.5c0,0.2-0.1,0.4-0.2,0.5c-0.1,0.1-0.3,0.2-0.6,0.2s-0.4-0.1-0.6-0.2
	C143.1,115.2,143.1,115,143.1,114.8z M144.6,121.5h-1.4v-5.3h1.4V121.5z M141.4,114.9v1.3h0.9v1h-0.9v2.6c0,0.2,0,0.3,0.1,0.4
	c0.1,0.1,0.2,0.1,0.4,0.1c0.2,0,0.3,0,0.4,0v1.1c-0.3,0.1-0.6,0.1-0.9,0.1c-1,0-1.5-0.5-1.5-1.5v-2.8h-0.8v-1h0.8v-1.3H141.4z
	 M137.3,120.9c-0.3,0.4-0.8,0.6-1.4,0.6c-0.6,0-1-0.2-1.3-0.5c-0.3-0.3-0.4-0.8-0.5-1.4v-3.5h1.4v3.4c0,0.6,0.3,0.8,0.8,0.8
	c0.5,0,0.8-0.2,1-0.5v-3.7h1.4v5.3h-1.3L137.3,120.9z M132.9,121.5h-1.4V114h1.4V121.5z M127,118.9c0,0.5,0.1,0.9,0.3,1.2
	c0.2,0.3,0.5,0.4,0.8,0.4c0.3,0,0.6-0.1,0.8-0.4c0.2-0.3,0.3-0.7,0.3-1.3c0-0.5-0.1-0.9-0.3-1.1c-0.2-0.3-0.5-0.4-0.8-0.4
	c-0.3,0-0.6,0.1-0.8,0.4C127.1,117.9,127,118.3,127,118.9z M125.6,118.8c0-0.5,0.1-1,0.3-1.4c0.2-0.4,0.5-0.7,0.9-1
	c0.4-0.2,0.8-0.3,1.3-0.3c0.7,0,1.3,0.2,1.7,0.7c0.5,0.4,0.7,1,0.8,1.8l0,0.4c0,0.8-0.2,1.5-0.7,2c-0.5,0.5-1.1,0.7-1.8,0.7
	c-0.8,0-1.4-0.2-1.8-0.7C125.8,120.3,125.6,119.7,125.6,118.8L125.6,118.8z M123.4,119.6c0-0.3-0.1-0.5-0.3-0.6
	c-0.2-0.1-0.5-0.3-1.1-0.5c-0.5-0.2-0.9-0.3-1.2-0.5c-0.8-0.4-1.2-1-1.2-1.8c0-0.4,0.1-0.7,0.3-1c0.2-0.3,0.5-0.5,0.9-0.7
	c0.4-0.2,0.9-0.3,1.4-0.3c0.5,0,1,0.1,1.4,0.3c0.4,0.2,0.7,0.4,0.9,0.8c0.2,0.3,0.3,0.7,0.3,1.1h-1.5c0-0.3-0.1-0.6-0.3-0.8
	c-0.2-0.2-0.5-0.3-0.9-0.3c-0.4,0-0.6,0.1-0.8,0.2c-0.2,0.1-0.3,0.3-0.3,0.6c0,0.2,0.1,0.4,0.3,0.6c0.2,0.2,0.6,0.3,1,0.4
	c0.8,0.3,1.4,0.6,1.8,0.9c0.4,0.4,0.6,0.8,0.6,1.4c0,0.6-0.2,1.1-0.7,1.5c-0.5,0.3-1.1,0.5-1.9,0.5c-0.5,0-1-0.1-1.5-0.3
	c-0.4-0.2-0.8-0.5-1-0.8c-0.2-0.3-0.4-0.8-0.4-1.2h1.5c0,0.8,0.5,1.2,1.4,1.2c0.3,0,0.6-0.1,0.8-0.2
	C123.3,120,123.4,119.8,123.4,119.6z"/>
<polygon class="st6" points="220.8,343.1 231.1,344.6 224.7,352.7 "/>
<g>
	<path class="st6" d="M230.9,350.8c-0.6-0.3-1.1-0.7-1.7-1.1l0.4-0.6c0.5,0.4,1.1,0.7,1.7,1L230.9,350.8z M237.8,354.7
		c-1.2-0.6-2.3-1.2-3.5-1.9l0.4-0.6c1.1,0.6,2.3,1.3,3.5,1.9L237.8,354.7z M245,358c-1.2-0.5-2.4-1-3.6-1.6l0.3-0.6
		c1.2,0.5,2.4,1.1,3.6,1.6L245,358z M252.4,360.8c-1.3-0.4-2.5-0.9-3.7-1.3l0.2-0.7c1.2,0.5,2.5,0.9,3.7,1.3L252.4,360.8z M260,363
		c-1.3-0.3-2.6-0.7-3.8-1l0.2-0.7c1.3,0.4,2.5,0.7,3.8,1L260,363z M267.7,364.6c-1.3-0.2-2.6-0.5-3.9-0.7l0.1-0.7
		c1.3,0.3,2.6,0.5,3.9,0.7L267.7,364.6z M275.5,365.7c-1.3-0.1-2.6-0.3-3.9-0.5l0.1-0.7c1.3,0.2,2.6,0.3,3.9,0.5L275.5,365.7z
		 M283.4,366.2c-1.3,0-2.6-0.1-3.9-0.2l0-0.7c1.3,0.1,2.6,0.2,3.9,0.2L283.4,366.2z M291.3,366.2c-1.3,0-2.6,0.1-3.9,0.1l0-0.7
		c1.3,0,2.6,0,3.9-0.1L291.3,366.2z M299.2,365.7c-1.3,0.1-2.6,0.2-3.9,0.3l0-0.7c1.3-0.1,2.6-0.2,3.9-0.3L299.2,365.7z M307,364.6
		c-1.3,0.2-2.6,0.4-3.9,0.6l-0.1-0.7c1.3-0.2,2.6-0.4,3.9-0.6L307,364.6z M314.7,363c-1.3,0.3-2.6,0.6-3.9,0.9l-0.1-0.7
		c1.3-0.3,2.6-0.5,3.8-0.8L314.7,363z M322.3,361c-1.3,0.4-2.5,0.8-3.8,1.1l-0.2-0.7c1.3-0.3,2.5-0.7,3.8-1.1L322.3,361z
		 M329.8,358.4c-1.2,0.5-2.5,0.9-3.7,1.3l-0.2-0.7c1.2-0.4,2.5-0.9,3.7-1.3L329.8,358.4z M337.1,355.4c-1.2,0.5-2.4,1.1-3.6,1.6
		l-0.3-0.7c1.2-0.5,2.4-1,3.6-1.6L337.1,355.4z M342.4,352.8c-0.6,0.3-1.2,0.6-1.8,0.9l-0.3-0.6c0.6-0.3,1.2-0.6,1.8-0.9
		L342.4,352.8z M344.1,352c-0.6,0.3-1.1,0.6-1.7,0.9l-0.3-0.6c0.6-0.3,1.1-0.6,1.7-0.9L344.1,352z M350.7,348.2
		c-1.1,0.7-2.2,1.3-3.3,1.9l-0.4-0.6c1.1-0.6,2.2-1.3,3.3-1.9L350.7,348.2z M357.1,344c-1,0.7-2.1,1.4-3.2,2.1l-0.4-0.6
		c1.1-0.7,2.1-1.4,3.1-2.1L357.1,344z M363.2,339.5c-1,0.8-2,1.6-3,2.3l-0.4-0.6c1-0.8,2-1.5,3-2.3L363.2,339.5z M369,334.6
		c-0.9,0.8-1.9,1.7-2.9,2.5l-0.5-0.5c1-0.8,1.9-1.6,2.9-2.5L369,334.6z M374.5,329.3c-0.9,0.9-1.8,1.8-2.7,2.7l-0.5-0.5
		c0.9-0.9,1.8-1.8,2.7-2.7L374.5,329.3z M379.7,323.7c-0.8,1-1.7,1.9-2.5,2.8l-0.5-0.5c0.9-0.9,1.7-1.9,2.5-2.8L379.7,323.7z
		 M384.5,317.8c-0.8,1-1.5,2-2.3,3l-0.6-0.4c0.8-1,1.6-2,2.3-3L384.5,317.8z M388.9,311.6c-0.7,1.1-1.4,2.1-2.1,3.1l-0.6-0.4
		c0.7-1,1.4-2.1,2.1-3.1L388.9,311.6z M391.9,306.7c-0.3,0.5-0.6,1.1-1,1.6l-0.6-0.4c0.3-0.5,0.7-1.1,1-1.6L391.9,306.7z"/>
</g>
<polygon class="st6" points="66.8,81.1 61.7,77.5 61.2,83.8 "/>
<g>
	<path d="M208.1,66.4c0.4,0.5,0.8,1,1.2,1.6l0.6-0.4c-0.4-0.5-0.8-1.1-1.2-1.6L208.1,66.4z M202.9,60.5c0.9,0.9,1.8,1.9,2.7,2.9
		l0.6-0.5c-0.9-1-1.8-2-2.7-2.9L202.9,60.5z M197.1,55.1c1,0.9,2,1.7,2.9,2.6l0.5-0.5c-1-0.9-2-1.8-3-2.6L197.1,55.1z M190.8,50.3
		c1.1,0.8,2.1,1.5,3.2,2.3l0.5-0.6c-1.1-0.8-2.1-1.6-3.2-2.3L190.8,50.3z M184.2,46.2c1.1,0.6,2.3,1.3,3.4,2l0.4-0.6
		c-1.1-0.7-2.3-1.4-3.4-2L184.2,46.2z M177.1,42.6c1.2,0.5,2.4,1.1,3.6,1.7l0.3-0.7c-1.2-0.6-2.4-1.2-3.6-1.7L177.1,42.6z
		 M169.8,39.7c1.2,0.4,2.5,0.9,3.7,1.4l0.3-0.7c-1.2-0.5-2.5-0.9-3.7-1.4L169.8,39.7z M162.2,37.5c1.3,0.3,2.6,0.7,3.8,1l0.2-0.7
		c-1.3-0.4-2.5-0.7-3.8-1L162.2,37.5z M154.5,35.9c1.3,0.2,2.6,0.4,3.9,0.7l0.1-0.7c-1.3-0.3-2.6-0.5-3.9-0.7L154.5,35.9z
		 M146.6,35.1c1.3,0.1,2.6,0.2,3.9,0.3l0.1-0.7c-1.3-0.1-2.6-0.3-4-0.3L146.6,35.1z M140.7,34.9c0.7,0,1.3,0,2,0l0-0.7
		c-0.7,0-1.3,0-2,0L140.7,34.9z M138.8,34.9c0.6,0,1.3,0,1.9,0l0-0.7c-0.6,0-1.3,0-1.9,0L138.8,34.9z M131.2,35.4
		c1.3-0.1,2.5-0.2,3.8-0.3l0-0.7c-1.3,0.1-2.5,0.2-3.8,0.3L131.2,35.4z M123.7,36.5c1.2-0.2,2.5-0.4,3.7-0.6l-0.1-0.7
		c-1.3,0.2-2.5,0.4-3.8,0.6L123.7,36.5z M116.4,38.2c1.2-0.3,2.4-0.7,3.7-0.9l-0.2-0.7c-1.2,0.3-2.5,0.6-3.7,0.9L116.4,38.2z
		 M109.1,40.5c1.2-0.4,2.4-0.9,3.6-1.3l-0.2-0.7c-1.2,0.4-2.4,0.8-3.6,1.3L109.1,40.5z M102.2,43.5c1.1-0.5,2.3-1.1,3.5-1.6
		l-0.3-0.7c-1.2,0.5-2.3,1-3.5,1.6L102.2,43.5z M95.5,47.1c1.1-0.6,2.2-1.3,3.3-1.9l-0.4-0.7c-1.1,0.6-2.2,1.2-3.3,1.9L95.5,47.1z
		 M89.1,51.2c1-0.7,2.1-1.5,3.1-2.1l-0.4-0.6c-1.1,0.7-2.1,1.4-3.2,2.2L89.1,51.2z M83.2,56c1-0.8,1.9-1.6,2.9-2.4l-0.5-0.6
		c-1,0.8-2,1.6-2.9,2.4L83.2,56z M77.7,61.2c0.9-0.9,1.8-1.8,2.7-2.7L79.9,58c-0.9,0.9-1.8,1.8-2.7,2.7L77.7,61.2z M72.8,66.9
		c0.8-1,1.6-2,2.4-2.9l-0.6-0.5c-0.8,1-1.6,2-2.4,3L72.8,66.9z M68.4,73.1c0.7-1.1,1.4-2.1,2.1-3.1l-0.6-0.4c-0.7,1-1.4,2.1-2.1,3.2
		L68.4,73.1z M65.6,78c0.3-0.6,0.6-1.1,0.9-1.7L65.8,76c-0.3,0.6-0.6,1.1-0.9,1.7L65.6,78z"/>
</g>
<polygon class="st6" points="162.5,351.5 166.1,356.6 168.7,350.9 "/>
<g>
	<path d="M24.7,317c-0.2-0.6-0.4-1.2-0.6-1.9l-0.7,0.2c0.2,0.6,0.4,1.3,0.6,1.9L24.7,317z M27.6,324.3c-0.5-1.2-1-2.4-1.5-3.6
		l-0.7,0.3c0.5,1.2,1,2.5,1.5,3.7L27.6,324.3z M31.2,331.3c-0.7-1.1-1.3-2.3-1.9-3.5l-0.7,0.3c0.6,1.2,1.2,2.3,1.9,3.5L31.2,331.3z
		 M35.4,338c-0.8-1.1-1.5-2.2-2.2-3.3l-0.6,0.4c0.7,1.1,1.5,2.2,2.2,3.3L35.4,338z M40.3,344.2c-0.9-1-1.7-2-2.5-3.1l-0.6,0.5
		c0.8,1,1.7,2.1,2.5,3.1L40.3,344.2z M45.7,350c-0.9-0.9-1.9-1.9-2.8-2.8l-0.5,0.5c0.9,1,1.8,1.9,2.8,2.8L45.7,350z M51.6,355.2
		c-1-0.8-2-1.7-3-2.5l-0.5,0.6c1,0.9,2,1.7,3,2.6L51.6,355.2z M57.9,359.9c-1.1-0.7-2.2-1.5-3.2-2.3l-0.4,0.6
		c1.1,0.8,2.1,1.5,3.3,2.3L57.9,359.9z M64.7,364c-1.2-0.6-2.3-1.3-3.4-2l-0.4,0.6c1.1,0.7,2.3,1.3,3.4,2L64.7,364z M71.8,367.4
		c-1.2-0.5-2.4-1.1-3.6-1.7l-0.3,0.7c1.2,0.6,2.4,1.1,3.6,1.7L71.8,367.4z M77.3,369.7c-0.6-0.2-1.2-0.5-1.8-0.7l-0.3,0.7
		c0.6,0.2,1.2,0.5,1.9,0.7L77.3,369.7z M79,370.3c-0.6-0.2-1.2-0.4-1.8-0.6l-0.3,0.7c0.6,0.2,1.2,0.4,1.8,0.6L79,370.3z M86.3,372.4
		c-1.2-0.3-2.4-0.6-3.7-1l-0.2,0.7c1.2,0.4,2.5,0.7,3.7,1L86.3,372.4z M93.7,374c-1.2-0.2-2.5-0.4-3.7-0.7l-0.2,0.7
		c1.3,0.3,2.5,0.5,3.8,0.7L93.7,374z M101.3,374.9c-1.3-0.1-2.5-0.2-3.8-0.4l-0.1,0.7c1.3,0.2,2.5,0.3,3.8,0.4L101.3,374.9z
		 M108.8,375.1c-1.3,0-2.5,0-3.8,0l0,0.7c1.3,0,2.6,0.1,3.8,0L108.8,375.1z M116.4,374.7c-1.3,0.1-2.5,0.2-3.8,0.3l0,0.7
		c1.3-0.1,2.5-0.2,3.8-0.3L116.4,374.7z M123.9,373.7c-1.2,0.2-2.5,0.4-3.7,0.6l0.1,0.7c1.3-0.2,2.5-0.4,3.8-0.6L123.9,373.7z
		 M131.3,371.9c-1.2,0.3-2.4,0.7-3.7,1l0.2,0.7c1.2-0.3,2.5-0.6,3.7-1L131.3,371.9z M138.5,369.5c-1.2,0.5-2.4,0.9-3.6,1.3l0.2,0.7
		c1.2-0.4,2.4-0.8,3.6-1.3L138.5,369.5z M145.4,366.5c-1.1,0.6-2.3,1.1-3.4,1.6l0.3,0.7c1.2-0.5,2.3-1.1,3.5-1.6L145.4,366.5z
		 M152,362.8c-1.1,0.7-2.2,1.3-3.3,1.9l0.4,0.7c1.1-0.6,2.2-1.3,3.3-1.9L152,362.8z M158.3,358.4c-1,0.8-2,1.5-3.1,2.2l0.4,0.6
		c1-0.7,2.1-1.5,3.1-2.3L158.3,358.4z M162.6,354.8c-0.5,0.4-0.9,0.8-1.4,1.2l0.5,0.6c0.5-0.4,1-0.8,1.4-1.3L162.6,354.8z"/>
</g>
</svg>
