<?xml version="1.0" encoding="utf-8"?>
<!-- Generator: Adobe Illustrator 25.0.0, SVG Export Plug-In . SVG Version: 6.00 Build 0)  -->
<svg version="1.1" id="Layer_1" xmlns="http://www.w3.org/2000/svg" xmlns:xlink="http://www.w3.org/1999/xlink" x="0px" y="0px"
	 viewBox="0 0 800 668" style="enable-background:new 0 0 800 668;" xml:space="preserve">
<style type="text/css">
	.st0{fill:#B9D545;}
	.st1{fill:#22A455;}
	.st2{fill:#D9D9D9;}
	.st3{fill:#214390;}
	.st4{fill:#21A355;}
	.st5{fill:#FFFFFF;}
	.st6{opacity:0.85;fill:none;stroke:#ACB0C1;stroke-miterlimit:10;}
	.st7{opacity:0.3;fill:#662F8E;}
	.st8{fill:#231F20;}
	.st9{fill:none;}
</style>
<g>
	<path class="st0" d="M599.3,208c0.6,6.5,1,13,1,19.7c0,88.1-55.8,163.2-134,191.9c0.2,3.5,0.3,7.1,0.3,10.7
		c0,59.4-24.2,113.1-63.2,152c38,32.8,87.5,52.8,141.7,52.8C664.9,635,762,537.9,762,418.1C762,317,692.9,232.1,599.3,208z"/>
	<path class="st1" d="M328.2,420.4c-79.5-28-136.5-103.7-136.5-192.7c0-1,0.1-2,0.1-3C102.9,250.8,38,332.9,38,430.3
		c0,118.4,95.9,214.3,214.3,214.3c59,0,112.3-23.8,151.1-62.3C357.9,542.9,328.9,485.1,328.2,420.4z"/>
	<path class="st2" d="M466.6,430.3c0-3.6-0.1-7.2-0.3-10.7c-21.9,8-45.6,12.4-70.3,12.4c-23.8,0-46.6-4.1-67.8-11.6
		c0.7,64.7,29.7,122.5,75.1,161.8C442.4,543.4,466.6,489.7,466.6,430.3z"/>
	<path class="st3" d="M390.2,266.3c39.4-40.2,94.2-65.1,154.9-65.1c18.7,0,36.9,2.4,54.2,6.8C589.4,104.4,502.2,23.4,396,23.4
		c-111.8,0-202.6,89.8-204.2,201.3c19.2-5.6,39.5-8.7,60.5-8.7C304.8,216,352.9,234.9,390.2,266.3z"/>
	<path class="st3" d="M390.2,266.3c44.1,37.2,73.1,91.8,76.1,153.3c78.2-28.7,134-103.7,134-191.9c0-6.6-0.3-13.2-1-19.7
		c-17.3-4.5-35.5-6.8-54.2-6.8C484.4,201.2,429.6,226.1,390.2,266.3z"/>
	<path class="st2" d="M390.2,266.3c44.1,37.2,73.1,91.8,76.1,153.3c78.2-28.7,134-103.7,134-191.9c0-6.6-0.3-13.2-1-19.7
		c-17.3-4.5-35.5-6.8-54.2-6.8C484.4,201.2,429.6,226.1,390.2,266.3z"/>
	<path class="st4" d="M328.2,420.4c0-0.8-0.1-1.6-0.1-2.4c0-59.1,23.7-112.7,62-151.8c-37.3-31.4-85.4-50.3-137.9-50.3
		c-21,0-41.3,3.1-60.5,8.7c0,1-0.1,2-0.1,3C191.7,316.8,248.7,392.5,328.2,420.4z"/>
	<path class="st2" d="M328.2,420.4c0-0.8-0.1-1.6-0.1-2.4c0-59.1,23.7-112.7,62-151.8c-37.3-31.4-85.4-50.3-137.9-50.3
		c-21,0-41.3,3.1-60.5,8.7c0,1-0.1,2-0.1,3C191.7,316.8,248.7,392.5,328.2,420.4z"/>
	<path class="st5" d="M390.2,266.3c-38.4,39.1-62,92.7-62,151.8c0,0.8,0.1,1.6,0.1,2.4c21.2,7.5,44,11.6,67.8,11.6
		c24.7,0,48.4-4.4,70.3-12.4C463.3,358.1,434.4,303.5,390.2,266.3z"/>
	<path class="st6" d="M390.2,266.3c-38.4,39.1-62,92.7-62,151.8c0,0.8,0.1,1.6,0.1,2.4c21.2,7.5,44,11.6,67.8,11.6
		c24.7,0,48.4-4.4,70.3-12.4C463.3,358.1,434.4,303.5,390.2,266.3z"/>
	<path class="st7" d="M337.1,98.8c-1.5-0.6-3.1-1.2-4.6-1.7C334.1,97.6,335.6,98.2,337.1,98.8L337.1,98.8z"/>
	<path class="st7" d="M245.1,303.8c-1.4-0.8-2.9-1.6-4.3-2.4C242.3,302.2,243.7,303,245.1,303.8L245.1,303.8z"/>
	<path class="st7" d="M552.2,303.8c-1.4-0.8-2.9-1.6-4.3-2.4C549.3,302.2,550.8,303,552.2,303.8L552.2,303.8z"/>
	<path class="st7" d="M86.7,609.2L86.7,609.2c0,0-0.1-0.1-0.1-0.1C86.6,609.2,86.7,609.2,86.7,609.2z"/>
	<g>
		<g>
			<path class="st5" d="M323.4,117.1h-4.7V94.5h4.7V117.1z"/>
			<path class="st5" d="M340.9,101.3c1.1,0.9,1.6,2.4,1.6,4.5v11.2h-4.5v-10.2c0-0.9-0.1-1.6-0.3-2c-0.4-0.9-1.2-1.3-2.4-1.3
				c-1.5,0-2.5,0.6-3,1.9c-0.3,0.7-0.4,1.5-0.4,2.5v9h-4.4v-16.7h4.2v2.4c0.6-0.9,1.1-1.5,1.6-1.9c0.9-0.7,2-1,3.4-1
				C338.4,100,339.8,100.4,340.9,101.3z"/>
			<path class="st5" d="M360.1,101.3c1.1,0.9,1.6,2.4,1.6,4.5v11.2h-4.5v-10.2c0-0.9-0.1-1.6-0.3-2c-0.4-0.9-1.2-1.3-2.4-1.3
				c-1.5,0-2.5,0.6-3,1.9c-0.3,0.7-0.4,1.5-0.4,2.5v9h-4.4v-16.7h4.2v2.4c0.6-0.9,1.1-1.5,1.6-1.9c0.9-0.7,2-1,3.4-1
				C357.6,100,359,100.4,360.1,101.3z"/>
			<path class="st5" d="M379.7,115c-1.4,1.7-3.5,2.6-6.4,2.6s-5-0.9-6.4-2.6c-1.4-1.7-2.1-3.8-2.1-6.3c0-2.4,0.7-4.5,2.1-6.3
				s3.5-2.6,6.4-2.6s5,0.9,6.4,2.6s2.1,3.9,2.1,6.3C381.8,111.2,381.1,113.3,379.7,115z M376.2,112.6c0.7-0.9,1-2.2,1-3.9
				c0-1.7-0.3-3-1-3.9s-1.7-1.4-2.9-1.4c-1.3,0-2.3,0.5-2.9,1.4c-0.7,0.9-1,2.2-1,3.9c0,1.7,0.3,3,1,3.9c0.7,0.9,1.7,1.4,2.9,1.4
				C374.6,114,375.5,113.5,376.2,112.6z"/>
			<path class="st5" d="M395.2,100.4h4.7l-6,16.7h-4.6l-6-16.7h4.9l3.5,12.3L395.2,100.4z"/>
			<path class="st5" d="M409,106.9c0.8-0.1,1.4-0.2,1.7-0.4c0.6-0.3,0.9-0.7,0.9-1.2c0-0.7-0.2-1.2-0.7-1.4
				c-0.5-0.3-1.2-0.4-2.1-0.4c-1,0-1.8,0.3-2.2,0.8c-0.3,0.4-0.5,0.9-0.6,1.5h-4.2c0.1-1.5,0.5-2.7,1.2-3.6c1.2-1.5,3.1-2.2,6-2.2
				c1.8,0,3.5,0.4,4.9,1.1s2.1,2.1,2.1,4.1v7.7c0,0.5,0,1.2,0,1.9c0,0.6,0.1,1,0.3,1.2c0.1,0.2,0.4,0.4,0.6,0.5v0.6h-4.7
				c-0.1-0.3-0.2-0.7-0.3-0.9c-0.1-0.3-0.1-0.6-0.1-1c-0.6,0.7-1.3,1.2-2.1,1.7c-0.9,0.5-2,0.8-3.2,0.8c-1.5,0-2.8-0.4-3.8-1.3
				c-1-0.9-1.5-2.1-1.5-3.7c0-2.1,0.8-3.5,2.4-4.5c0.9-0.5,2.2-0.9,3.9-1.1L409,106.9z M411.7,108.9c-0.3,0.2-0.6,0.3-0.8,0.4
				c-0.3,0.1-0.7,0.2-1.2,0.3l-1,0.2c-0.9,0.2-1.6,0.4-2,0.6c-0.7,0.4-1,1-1,1.9c0,0.7,0.2,1.3,0.6,1.6c0.4,0.3,0.9,0.5,1.5,0.5
				c1,0,1.8-0.3,2.6-0.8c0.8-0.6,1.2-1.6,1.3-3V108.9z"/>
			<path class="st5" d="M418.1,103.6v-3.1h2.3v-4.7h4.3v4.7h2.7v3.1h-2.7v8.8c0,0.7,0.1,1.1,0.3,1.3c0.2,0.2,0.7,0.3,1.6,0.3
				c0.1,0,0.3,0,0.4,0c0.1,0,0.3,0,0.4,0v3.3l-2.1,0.1c-2.1,0.1-3.5-0.3-4.2-1.1c-0.5-0.5-0.7-1.3-0.7-2.3v-10.3H418.1z"/>
			<path class="st5" d="M434.8,98.4h-4.4v-4h4.4V98.4z M430.4,100.4h4.4v16.7h-4.4V100.4z"/>
			<path class="st5" d="M452.9,115c-1.4,1.7-3.5,2.6-6.4,2.6c-2.9,0-5-0.9-6.4-2.6c-1.4-1.7-2.1-3.8-2.1-6.3c0-2.4,0.7-4.5,2.1-6.3
				s3.5-2.6,6.4-2.6c2.9,0,5,0.9,6.4,2.6s2.1,3.9,2.1,6.3C455.1,111.2,454.4,113.3,452.9,115z M449.5,112.6c0.7-0.9,1-2.2,1-3.9
				c0-1.7-0.3-3-1-3.9c-0.7-0.9-1.7-1.4-2.9-1.4c-1.3,0-2.3,0.5-2.9,1.4s-1,2.2-1,3.9c0,1.7,0.3,3,1,3.9s1.7,1.4,2.9,1.4
				C447.8,114,448.8,113.5,449.5,112.6z"/>
			<path class="st5" d="M471.6,101.3c1.1,0.9,1.6,2.4,1.6,4.5v11.2h-4.5v-10.2c0-0.9-0.1-1.6-0.3-2c-0.4-0.9-1.2-1.3-2.4-1.3
				c-1.5,0-2.5,0.6-3,1.9c-0.3,0.7-0.4,1.5-0.4,2.5v9h-4.4v-16.7h4.2v2.4c0.6-0.9,1.1-1.5,1.6-1.9c0.9-0.7,2-1,3.4-1
				C469.1,100,470.6,100.4,471.6,101.3z"/>
			<path class="st5" d="M316.9,134c1.8-1.9,4.1-2.8,6.9-2.8c3.8,0,6.5,1.2,8.2,3.7c1,1.4,1.5,2.8,1.5,4.2h-4.7
				c-0.3-1.1-0.7-1.9-1.2-2.5c-0.8-1-2.1-1.5-3.7-1.5c-1.7,0-3,0.7-4,2.1c-1,1.4-1.5,3.3-1.5,5.9s0.5,4.4,1.5,5.7s2.3,1.9,3.9,1.9
				c1.6,0,2.9-0.5,3.7-1.6c0.5-0.6,0.9-1.5,1.2-2.6h4.7c-0.4,2.5-1.4,4.5-3.1,6c-1.7,1.5-3.8,2.3-6.4,2.3c-3.2,0-5.7-1-7.6-3.1
				c-1.8-2.1-2.8-5-2.8-8.6C313.7,139.2,314.8,136.1,316.9,134z"/>
			<path class="st5" d="M349,137.6c0.8,0.4,1.5,0.9,2.1,1.6c0.5,0.6,0.7,1.3,0.8,1.9c0.1,0.7,0.2,1.7,0.2,3.2v9.8h-4.5V144
				c0-0.9-0.2-1.6-0.5-2.2c-0.4-0.8-1.1-1.2-2.3-1.2c-1.1,0-2,0.4-2.6,1.2s-0.9,1.9-0.9,3.3v9h-4.4v-22.5h4.4v8c0.6-1,1.4-1.6,2.2-2
				s1.7-0.6,2.6-0.6C347.2,137.1,348.2,137.2,349,137.6z"/>
			<path class="st5" d="M362.8,144c0.8-0.1,1.4-0.2,1.7-0.4c0.6-0.3,0.9-0.7,0.9-1.2c0-0.7-0.2-1.2-0.7-1.4
				c-0.5-0.3-1.2-0.4-2.1-0.4c-1,0-1.8,0.3-2.2,0.8c-0.3,0.4-0.5,0.9-0.6,1.5h-4.2c0.1-1.5,0.5-2.7,1.2-3.6c1.2-1.5,3.1-2.2,6-2.2
				c1.8,0,3.5,0.4,4.9,1.1s2.1,2.1,2.1,4.1v7.7c0,0.5,0,1.2,0,1.9c0,0.6,0.1,1,0.3,1.2c0.1,0.2,0.4,0.4,0.6,0.5v0.6H366
				c-0.1-0.3-0.2-0.7-0.3-0.9c-0.1-0.3-0.1-0.6-0.1-1c-0.6,0.7-1.3,1.2-2.1,1.7c-0.9,0.5-2,0.8-3.2,0.8c-1.5,0-2.8-0.4-3.8-1.3
				s-1.5-2.1-1.5-3.7c0-2.1,0.8-3.5,2.4-4.5c0.9-0.5,2.2-0.9,3.9-1.1L362.8,144z M365.5,146.1c-0.3,0.2-0.6,0.3-0.8,0.4
				c-0.3,0.1-0.7,0.2-1.2,0.3l-1,0.2c-0.9,0.2-1.6,0.4-2,0.6c-0.7,0.4-1,1-1,1.9c0,0.7,0.2,1.3,0.6,1.6c0.4,0.3,0.9,0.5,1.5,0.5
				c1,0,1.8-0.3,2.6-0.8c0.8-0.6,1.2-1.6,1.3-3V146.1z"/>
			<path class="st5" d="M378.1,154.2h-4.4v-22.6h4.4V154.2z"/>
			<path class="st5" d="M386.8,154.2h-4.4v-22.6h4.4V154.2z"/>
			<path class="st5" d="M401.9,137.8c1.2,0.5,2.1,1.3,2.9,2.5c0.7,1,1.1,2.1,1.3,3.5c0.1,0.8,0.2,1.9,0.1,3.3h-12.2
				c0.1,1.7,0.6,2.8,1.7,3.5c0.7,0.4,1.5,0.6,2.4,0.6c1,0,1.8-0.3,2.4-0.8c0.3-0.3,0.6-0.7,0.9-1.1h4.5c-0.1,1-0.7,2-1.6,3
				c-1.5,1.6-3.6,2.4-6.3,2.4c-2.2,0-4.2-0.7-5.9-2.1c-1.7-1.4-2.5-3.6-2.5-6.7c0-2.9,0.8-5.1,2.3-6.7s3.5-2.3,6-2.3
				C399.5,137.1,400.8,137.3,401.9,137.8z M395.4,141.6c-0.6,0.6-1,1.5-1.2,2.6h7.5c-0.1-1.2-0.5-2-1.2-2.6
				c-0.7-0.6-1.6-0.9-2.6-0.9C396.9,140.7,396,141,395.4,141.6z"/>
			<path class="st5" d="M422,138.5c1.1,0.9,1.6,2.4,1.6,4.5v11.2h-4.5V144c0-0.9-0.1-1.6-0.3-2c-0.4-0.9-1.2-1.3-2.4-1.3
				c-1.5,0-2.5,0.6-3,1.9c-0.3,0.7-0.4,1.5-0.4,2.5v9h-4.4v-16.7h4.2v2.4c0.6-0.9,1.1-1.5,1.6-1.9c0.9-0.7,2-1,3.4-1
				C419.5,137.1,420.9,137.6,422,138.5z"/>
			<path class="st5" d="M435.9,137.5c1.1,0.4,1.9,1.2,2.6,2.4v-2.4h4.3v15.8c0,2.2-0.4,3.8-1.1,4.9c-1.2,1.9-3.6,2.8-7.2,2.8
				c-2.1,0-3.9-0.4-5.2-1.3c-1.3-0.8-2.1-2.1-2.2-3.8h4.7c0.1,0.5,0.3,0.9,0.6,1.1c0.5,0.4,1.3,0.6,2.4,0.6c1.6,0,2.6-0.5,3.2-1.6
				c0.3-0.7,0.5-1.8,0.5-3.4v-1.1c-0.4,0.7-0.9,1.3-1.3,1.6c-0.9,0.7-2,1-3.4,1c-2.1,0-3.9-0.8-5.1-2.3c-1.3-1.5-1.9-3.5-1.9-6.1
				c0-2.5,0.6-4.6,1.9-6.3c1.2-1.7,3-2.5,5.2-2.5C434.6,137.1,435.3,137.2,435.9,137.5z M437.4,149.5c0.7-0.8,1.1-2,1.1-3.7
				c0-1.6-0.3-2.8-1-3.6s-1.6-1.2-2.7-1.2c-1.5,0-2.6,0.7-3.2,2.2c-0.3,0.8-0.5,1.7-0.5,2.8c0,1,0.2,1.8,0.5,2.6
				c0.6,1.4,1.6,2.1,3.2,2.1C435.9,150.6,436.7,150.2,437.4,149.5z"/>
			<path class="st5" d="M457.7,137.8c1.2,0.5,2.1,1.3,2.9,2.5c0.7,1,1.1,2.1,1.3,3.5c0.1,0.8,0.2,1.9,0.1,3.3h-12.2
				c0.1,1.7,0.7,2.8,1.7,3.5c0.7,0.4,1.5,0.6,2.4,0.6c1,0,1.8-0.3,2.4-0.8c0.3-0.3,0.6-0.7,0.9-1.1h4.5c-0.1,1-0.7,2-1.6,3
				c-1.5,1.6-3.6,2.4-6.3,2.4c-2.2,0-4.2-0.7-5.9-2.1c-1.7-1.4-2.5-3.6-2.5-6.7c0-2.9,0.8-5.1,2.3-6.7c1.5-1.5,3.5-2.3,6-2.3
				C455.2,137.1,456.6,137.3,457.7,137.8z M451.2,141.6c-0.6,0.6-1,1.5-1.2,2.6h7.5c-0.1-1.2-0.5-2-1.2-2.6
				c-0.7-0.6-1.6-0.9-2.6-0.9C452.7,140.7,451.8,141,451.2,141.6z"/>
			<path class="st5" d="M467.7,148.9c0.1,0.8,0.3,1.3,0.6,1.7c0.5,0.6,1.5,0.9,3,0.9c0.9,0,1.5-0.1,2.1-0.4s0.8-0.6,0.8-1.1
				c0-0.5-0.2-0.9-0.6-1.1c-0.4-0.3-1.9-0.7-4.6-1.3c-1.9-0.5-3.2-1.1-4-1.8c-0.8-0.7-1.2-1.7-1.2-3c0-1.5,0.6-2.9,1.8-4
				c1.2-1.1,2.9-1.7,5.1-1.7c2.1,0,3.8,0.4,5.1,1.2c1.3,0.8,2.1,2.3,2.3,4.3h-4.4c-0.1-0.6-0.2-1-0.5-1.3c-0.5-0.6-1.3-0.9-2.5-0.9
				c-1,0-1.6,0.1-2,0.4c-0.4,0.3-0.6,0.6-0.6,1c0,0.5,0.2,0.9,0.6,1.1c0.4,0.2,1.9,0.6,4.6,1.2c1.7,0.4,3,1,3.9,1.9
				c0.9,0.8,1.3,1.9,1.3,3.1c0,1.7-0.6,3-1.8,4.1c-1.2,1-3.1,1.6-5.7,1.6c-2.6,0-4.6-0.6-5.8-1.7s-1.9-2.5-1.9-4.2H467.7z"/>
		</g>
	</g>
	<g>
		<g>
			<path class="st5" d="M125,443.1c0.1,1,0.4,1.8,0.9,2.3c0.8,0.9,2.1,1.4,4,1.4c1.1,0,2.1-0.1,2.8-0.4c1.3-0.5,2-1.3,2-2.6
				c0-0.7-0.3-1.3-1-1.7c-0.7-0.4-1.7-0.8-3.1-1.1l-2.4-0.5c-2.4-0.5-4.1-1.1-5-1.7c-1.5-1-2.3-2.7-2.3-4.9c0-2,0.7-3.7,2.2-5
				s3.7-2,6.6-2c2.4,0,4.5,0.6,6.2,1.9c1.7,1.3,2.6,3.1,2.7,5.5h-4.5c-0.1-1.4-0.7-2.3-1.8-2.9c-0.8-0.4-1.7-0.6-2.8-0.6
				c-1.2,0-2.2,0.2-3,0.7c-0.7,0.5-1.1,1.2-1.1,2.1c0,0.8,0.4,1.4,1.1,1.8c0.5,0.3,1.5,0.6,3,0.9l4,0.9c1.7,0.4,3,1,3.9,1.6
				c1.3,1.1,2,2.6,2,4.6c0,2.1-0.8,3.8-2.4,5.1s-3.8,2-6.8,2c-3,0-5.3-0.7-7-2c-1.7-1.3-2.6-3.2-2.6-5.5H125z"/>
			<path class="st5" d="M156.1,448c-1.4,1.7-3.5,2.6-6.4,2.6s-5-0.9-6.4-2.6c-1.4-1.7-2.1-3.8-2.1-6.3c0-2.4,0.7-4.5,2.1-6.3
				c1.4-1.8,3.5-2.6,6.4-2.6s5,0.9,6.4,2.6c1.4,1.8,2.1,3.9,2.1,6.3C158.2,444.2,157.5,446.2,156.1,448z M152.6,445.6
				c0.7-0.9,1-2.2,1-3.9c0-1.7-0.3-3-1-3.9s-1.7-1.4-2.9-1.4c-1.3,0-2.3,0.5-2.9,1.4c-0.7,0.9-1,2.2-1,3.9c0,1.7,0.3,3,1,3.9
				c0.7,0.9,1.7,1.4,2.9,1.4C150.9,446.9,151.9,446.5,152.6,445.6z"/>
			<path class="st5" d="M165.8,450h-4.4v-22.6h4.4V450z"/>
			<path class="st5" d="M174.4,433.3v10.1c0,0.9,0.1,1.7,0.3,2.1c0.4,0.8,1.2,1.3,2.3,1.3c1.5,0,2.5-0.6,3-1.8
				c0.3-0.7,0.4-1.5,0.4-2.6v-9.1h4.4V450h-4.2v-2.4c0,0.1-0.1,0.2-0.3,0.5c-0.2,0.3-0.4,0.5-0.6,0.7c-0.7,0.6-1.3,1-2,1.3
				s-1.4,0.3-2.2,0.3c-2.5,0-4.1-0.9-5-2.7c-0.5-1-0.7-2.4-0.7-4.3v-10.1H174.4z"/>
			<path class="st5" d="M187.5,436.6v-3.1h2.3v-4.7h4.3v4.7h2.7v3.1h-2.7v8.8c0,0.7,0.1,1.1,0.3,1.3c0.2,0.2,0.7,0.3,1.6,0.3
				c0.1,0,0.3,0,0.4,0c0.1,0,0.3,0,0.4,0v3.3l-2.1,0.1c-2.1,0.1-3.5-0.3-4.2-1.1c-0.5-0.5-0.7-1.3-0.7-2.3v-10.3H187.5z"/>
			<path class="st5" d="M204.1,431.3h-4.4v-4h4.4V431.3z M199.7,433.3h4.4V450h-4.4V433.3z"/>
			<path class="st5" d="M222.3,448c-1.4,1.7-3.5,2.6-6.4,2.6s-5-0.9-6.4-2.6c-1.4-1.7-2.1-3.8-2.1-6.3c0-2.4,0.7-4.5,2.1-6.3
				c1.4-1.8,3.5-2.6,6.4-2.6s5,0.9,6.4,2.6c1.4,1.8,2.1,3.9,2.1,6.3C224.4,444.2,223.7,446.2,222.3,448z M218.8,445.6
				c0.7-0.9,1-2.2,1-3.9c0-1.7-0.3-3-1-3.9s-1.7-1.4-2.9-1.4c-1.3,0-2.3,0.5-2.9,1.4c-0.7,0.9-1,2.2-1,3.9c0,1.7,0.3,3,1,3.9
				c0.7,0.9,1.7,1.4,2.9,1.4C217.1,446.9,218.1,446.5,218.8,445.6z"/>
			<path class="st5" d="M241,434.3c1.1,0.9,1.6,2.4,1.6,4.5V450h-4.5v-10.2c0-0.9-0.1-1.6-0.3-2c-0.4-0.9-1.2-1.3-2.4-1.3
				c-1.5,0-2.5,0.6-3,1.9c-0.3,0.7-0.4,1.5-0.4,2.5v9h-4.4v-16.7h4.2v2.4c0.6-0.9,1.1-1.5,1.6-1.9c0.9-0.7,2-1,3.4-1
				C238.5,432.9,239.9,433.4,241,434.3z"/>
			<path class="st5" d="M123.4,464.6h4.9l-7.7,22.6h-4.5l-7.6-22.6h5l4.9,17.1L123.4,464.6z"/>
			<path class="st5" d="M135.7,477c0.8-0.1,1.4-0.2,1.7-0.4c0.6-0.3,0.9-0.7,0.9-1.2c0-0.7-0.2-1.2-0.7-1.4
				c-0.5-0.3-1.2-0.4-2.1-0.4c-1,0-1.8,0.3-2.2,0.8c-0.3,0.4-0.5,0.9-0.6,1.5h-4.2c0.1-1.5,0.5-2.7,1.2-3.6c1.2-1.5,3.1-2.2,6-2.2
				c1.8,0,3.5,0.4,4.9,1.1c1.4,0.7,2.1,2.1,2.1,4.1v7.7c0,0.5,0,1.2,0,1.9c0,0.6,0.1,1,0.3,1.2c0.1,0.2,0.4,0.4,0.6,0.5v0.6h-4.7
				c-0.1-0.3-0.2-0.7-0.3-1c-0.1-0.3-0.1-0.6-0.1-1c-0.6,0.7-1.3,1.2-2.1,1.7c-0.9,0.5-2,0.8-3.2,0.8c-1.5,0-2.8-0.4-3.8-1.3
				c-1-0.9-1.5-2.1-1.5-3.7c0-2.1,0.8-3.5,2.4-4.5c0.9-0.5,2.2-0.9,3.9-1.1L135.7,477z M138.3,479c-0.3,0.2-0.6,0.3-0.8,0.4
				s-0.7,0.2-1.2,0.3l-1,0.2c-0.9,0.2-1.6,0.4-2,0.6c-0.7,0.4-1,1-1,1.9c0,0.7,0.2,1.3,0.6,1.6c0.4,0.3,0.9,0.5,1.5,0.5
				c1,0,1.8-0.3,2.6-0.8c0.8-0.6,1.2-1.6,1.3-3V479z"/>
			<path class="st5" d="M151,487.2h-4.4v-22.6h4.4V487.2z"/>
			<path class="st5" d="M159.7,468.5h-4.4v-4h4.4V468.5z M155.3,470.5h4.4v16.7h-4.4V470.5z"/>
			<path class="st5" d="M172.8,470.7c0.8,0.4,1.4,1.1,1.9,1.8v-8h4.4v22.5h-4.2v-2.3c-0.6,1-1.3,1.7-2.1,2.2s-1.8,0.7-3,0.7
				c-2,0-3.6-0.8-4.9-2.4c-1.3-1.6-2-3.6-2-6.1c0-2.8,0.7-5.1,2-6.7c1.3-1.6,3.1-2.5,5.3-2.5C171.1,470.1,172,470.3,172.8,470.7z
				 M173.9,482.6c0.6-0.9,1-2.1,1-3.6c0-2-0.5-3.5-1.5-4.4c-0.6-0.5-1.4-0.8-2.2-0.8c-1.3,0-2.2,0.5-2.8,1.4c-0.6,1-0.9,2.2-0.9,3.6
				c0,1.5,0.3,2.8,0.9,3.7c0.6,0.9,1.5,1.4,2.8,1.4S173.2,483.5,173.9,482.6z"/>
			<path class="st5" d="M189.7,477c0.8-0.1,1.4-0.2,1.7-0.4c0.6-0.3,0.9-0.7,0.9-1.2c0-0.7-0.2-1.2-0.7-1.4
				c-0.5-0.3-1.2-0.4-2.1-0.4c-1,0-1.8,0.3-2.2,0.8c-0.3,0.4-0.5,0.9-0.6,1.5h-4.2c0.1-1.5,0.5-2.7,1.2-3.6c1.2-1.5,3.1-2.2,6-2.2
				c1.8,0,3.5,0.4,4.9,1.1c1.4,0.7,2.1,2.1,2.1,4.1v7.7c0,0.5,0,1.2,0,1.9c0,0.6,0.1,1,0.3,1.2c0.1,0.2,0.4,0.4,0.6,0.5v0.6h-4.7
				c-0.1-0.3-0.2-0.7-0.3-1c-0.1-0.3-0.1-0.6-0.1-1c-0.6,0.7-1.3,1.2-2.1,1.7c-0.9,0.5-2,0.8-3.2,0.8c-1.5,0-2.8-0.4-3.8-1.3
				c-1-0.9-1.5-2.1-1.5-3.7c0-2.1,0.8-3.5,2.4-4.5c0.9-0.5,2.2-0.9,3.9-1.1L189.7,477z M192.4,479c-0.3,0.2-0.6,0.3-0.8,0.4
				s-0.7,0.2-1.2,0.3l-1,0.2c-0.9,0.2-1.6,0.4-2,0.6c-0.7,0.4-1,1-1,1.9c0,0.7,0.2,1.3,0.6,1.6c0.4,0.3,0.9,0.5,1.5,0.5
				c1,0,1.8-0.3,2.6-0.8c0.8-0.6,1.2-1.6,1.3-3V479z"/>
			<path class="st5" d="M198.8,473.7v-3.1h2.3V466h4.3v4.7h2.7v3.1h-2.7v8.8c0,0.7,0.1,1.1,0.3,1.3c0.2,0.2,0.7,0.3,1.6,0.3
				c0.1,0,0.3,0,0.4,0c0.1,0,0.3,0,0.4,0v3.3l-2.1,0.1c-2.1,0.1-3.5-0.3-4.2-1.1c-0.5-0.5-0.7-1.3-0.7-2.3v-10.3H198.8z"/>
			<path class="st5" d="M215.5,468.5h-4.4v-4h4.4V468.5z M211.1,470.5h4.4v16.7h-4.4V470.5z"/>
			<path class="st5" d="M233.6,485.1c-1.4,1.7-3.5,2.6-6.4,2.6s-5-0.9-6.4-2.6c-1.4-1.7-2.1-3.8-2.1-6.3c0-2.4,0.7-4.5,2.1-6.3
				c1.4-1.8,3.5-2.6,6.4-2.6s5,0.9,6.4,2.6c1.4,1.8,2.1,3.9,2.1,6.3C235.7,481.3,235,483.4,233.6,485.1z M230.1,482.7
				c0.7-0.9,1-2.2,1-3.9c0-1.7-0.3-3-1-3.9s-1.7-1.4-2.9-1.4c-1.3,0-2.3,0.5-2.9,1.4c-0.7,0.9-1,2.2-1,3.9c0,1.7,0.3,3,1,3.9
				c0.7,0.9,1.7,1.4,2.9,1.4C228.5,484.1,229.5,483.6,230.1,482.7z"/>
			<path class="st5" d="M252.3,471.4c1.1,0.9,1.6,2.4,1.6,4.5v11.2h-4.5V477c0-0.9-0.1-1.6-0.3-2c-0.4-0.9-1.2-1.3-2.4-1.3
				c-1.5,0-2.5,0.6-3,1.9c-0.3,0.7-0.4,1.5-0.4,2.5v9h-4.4v-16.7h4.2v2.4c0.6-0.9,1.1-1.5,1.6-1.9c0.9-0.7,2-1,3.4-1
				C249.8,470.1,251.2,470.5,252.3,471.4z"/>
		</g>
	</g>
	<g>
		<g>
			<path class="st5" d="M521,429.8c1.8-1.9,4.1-2.8,6.9-2.8c3.8,0,6.5,1.2,8.2,3.7c1,1.4,1.5,2.8,1.5,4.2h-4.7
				c-0.3-1.1-0.7-1.9-1.2-2.5c-0.8-1-2.1-1.5-3.7-1.5c-1.7,0-3,0.7-4,2.1c-1,1.4-1.5,3.3-1.5,5.9c0,2.5,0.5,4.4,1.5,5.7
				c1,1.3,2.3,1.9,3.9,1.9c1.6,0,2.9-0.5,3.7-1.6c0.5-0.6,0.9-1.5,1.2-2.6h4.7c-0.4,2.5-1.4,4.5-3.1,6c-1.7,1.5-3.8,2.3-6.4,2.3
				c-3.2,0-5.7-1-7.6-3.1c-1.8-2.1-2.8-5-2.8-8.6C517.9,435,519,431.9,521,429.8z"/>
			<path class="st5" d="M555.1,448c-1.4,1.7-3.5,2.6-6.4,2.6c-2.9,0-5-0.9-6.4-2.6c-1.4-1.7-2.1-3.8-2.1-6.3c0-2.4,0.7-4.5,2.1-6.3
				c1.4-1.8,3.5-2.6,6.4-2.6c2.9,0,5,0.9,6.4,2.6c1.4,1.8,2.1,3.9,2.1,6.3C557.2,444.2,556.5,446.2,555.1,448z M551.6,445.6
				c0.7-0.9,1-2.2,1-3.9c0-1.7-0.3-3-1-3.9c-0.7-0.9-1.7-1.4-2.9-1.4c-1.3,0-2.3,0.5-2.9,1.4s-1,2.2-1,3.9c0,1.7,0.3,3,1,3.9
				c0.7,0.9,1.7,1.4,2.9,1.4C550,446.9,550.9,446.5,551.6,445.6z"/>
			<path class="st5" d="M581.2,433.4c0.7,0.3,1.4,0.8,1.9,1.5c0.5,0.6,0.8,1.3,0.9,2.1c0.1,0.6,0.2,1.4,0.2,2.5l0,10.5h-4.5v-10.6
				c0-0.6-0.1-1.2-0.3-1.6c-0.4-0.8-1.1-1.2-2.1-1.2c-1.2,0-2,0.5-2.5,1.5c-0.2,0.5-0.4,1.2-0.4,1.9v9.9H570v-9.9
				c0-1-0.1-1.7-0.3-2.2c-0.4-0.8-1.1-1.2-2.2-1.2c-1.2,0-2.1,0.4-2.5,1.2c-0.2,0.5-0.4,1.1-0.4,2.1v10h-4.4v-16.7h4.2v2.4
				c0.5-0.9,1.1-1.5,1.5-1.9c0.8-0.7,1.9-1,3.3-1c1.3,0,2.3,0.3,3.1,0.8c0.6,0.5,1.1,1.2,1.4,2c0.6-1,1.3-1.7,2.1-2.2
				c0.9-0.5,1.9-0.7,3-0.7C579.7,433,580.5,433.1,581.2,433.4z"/>
			<path class="st5" d="M609.1,433.4c0.7,0.3,1.4,0.8,1.9,1.5c0.5,0.6,0.8,1.3,0.9,2.1c0.1,0.6,0.2,1.4,0.2,2.5l0,10.5h-4.5v-10.6
				c0-0.6-0.1-1.2-0.3-1.6c-0.4-0.8-1.1-1.2-2.1-1.2c-1.2,0-2,0.5-2.5,1.5c-0.2,0.5-0.4,1.2-0.4,1.9v9.9h-4.4v-9.9
				c0-1-0.1-1.7-0.3-2.2c-0.4-0.8-1.1-1.2-2.2-1.2c-1.2,0-2.1,0.4-2.5,1.2c-0.2,0.5-0.4,1.1-0.4,2.1v10h-4.4v-16.7h4.2v2.4
				c0.5-0.9,1.1-1.5,1.5-1.9c0.8-0.7,1.9-1,3.3-1c1.3,0,2.3,0.3,3.1,0.8c0.6,0.5,1.1,1.2,1.4,2c0.6-1,1.3-1.7,2.1-2.2
				c0.9-0.5,1.9-0.7,3-0.7C607.6,433,608.4,433.1,609.1,433.4z"/>
			<path class="st5" d="M627,433.7c1.2,0.5,2.1,1.3,2.9,2.5c0.7,1,1.1,2.1,1.3,3.5c0.1,0.8,0.2,1.9,0.1,3.3h-12.2
				c0.1,1.7,0.7,2.8,1.7,3.5c0.7,0.4,1.5,0.6,2.4,0.6c1,0,1.8-0.3,2.4-0.8c0.3-0.3,0.6-0.7,0.9-1.1h4.5c-0.1,1-0.7,2-1.6,3
				c-1.5,1.6-3.6,2.4-6.3,2.4c-2.2,0-4.2-0.7-5.9-2.1c-1.7-1.4-2.5-3.6-2.5-6.7c0-2.9,0.8-5.1,2.3-6.7c1.5-1.5,3.5-2.3,6-2.3
				C624.5,432.9,625.9,433.2,627,433.7z M620.5,437.4c-0.6,0.6-1,1.5-1.2,2.6h7.5c-0.1-1.2-0.5-2-1.2-2.6c-0.7-0.6-1.6-0.9-2.6-0.9
				C622,436.5,621.1,436.8,620.5,437.4z"/>
			<path class="st5" d="M642.9,432.9c0.1,0,0.2,0,0.4,0v4.5c-0.3,0-0.5-0.1-0.7-0.1c-0.2,0-0.4,0-0.5,0c-1.8,0-2.9,0.6-3.5,1.7
				c-0.3,0.6-0.5,1.6-0.5,3v8h-4.4v-16.7h4.2v2.9c0.7-1.1,1.3-1.9,1.8-2.3c0.8-0.7,1.9-1,3.2-1C642.7,432.9,642.8,432.9,642.9,432.9
				z"/>
			<path class="st5" d="M655.8,439.3c-0.1-0.6-0.3-1.2-0.6-1.7c-0.5-0.7-1.3-1-2.3-1c-1.5,0-2.5,0.7-3,2.2c-0.3,0.8-0.4,1.8-0.4,3.1
				c0,1.2,0.1,2.2,0.4,2.9c0.5,1.4,1.5,2.1,2.9,2.1c1,0,1.8-0.3,2.2-0.8c0.4-0.6,0.7-1.3,0.8-2.1h4.5c-0.1,1.3-0.6,2.6-1.4,3.8
				c-1.4,1.9-3.4,2.9-6.1,2.9s-4.7-0.8-5.9-2.4c-1.3-1.6-1.9-3.7-1.9-6.2c0-2.9,0.7-5.1,2.1-6.7c1.4-1.6,3.3-2.4,5.8-2.4
				c2.1,0,3.8,0.5,5.1,1.4c1.3,0.9,2.1,2.6,2.4,5H655.8z"/>
			<path class="st5" d="M667.7,431.3h-4.4v-4h4.4V431.3z M663.3,433.3h4.4V450h-4.4V433.3z"/>
			<path class="st5" d="M678.6,439.9c0.8-0.1,1.4-0.2,1.7-0.4c0.6-0.3,0.9-0.7,0.9-1.2c0-0.7-0.2-1.2-0.7-1.4
				c-0.5-0.3-1.2-0.4-2.1-0.4c-1,0-1.8,0.3-2.2,0.8c-0.3,0.4-0.5,0.9-0.6,1.5h-4.2c0.1-1.5,0.5-2.7,1.2-3.6c1.2-1.5,3.1-2.2,6-2.2
				c1.8,0,3.5,0.4,4.9,1.1c1.4,0.7,2.1,2.1,2.1,4.1v7.7c0,0.5,0,1.2,0,1.9c0,0.6,0.1,1,0.3,1.2c0.1,0.2,0.4,0.4,0.6,0.5v0.6h-4.7
				c-0.1-0.3-0.2-0.7-0.3-1c-0.1-0.3-0.1-0.6-0.1-1c-0.6,0.7-1.3,1.2-2.1,1.7c-0.9,0.5-2,0.8-3.2,0.8c-1.5,0-2.8-0.4-3.8-1.3
				c-1-0.9-1.5-2.1-1.5-3.7c0-2.1,0.8-3.5,2.4-4.5c0.9-0.5,2.2-0.9,3.9-1.1L678.6,439.9z M681.2,441.9c-0.3,0.2-0.6,0.3-0.8,0.4
				s-0.7,0.2-1.2,0.3l-1,0.2c-0.9,0.2-1.6,0.4-2,0.6c-0.7,0.4-1,1-1,1.9c0,0.7,0.2,1.3,0.6,1.6c0.4,0.3,0.9,0.5,1.5,0.5
				c1,0,1.8-0.3,2.6-0.8c0.8-0.6,1.2-1.6,1.3-3V441.9z"/>
			<path class="st5" d="M693.9,450h-4.4v-22.6h4.4V450z"/>
			<path class="st5" d="M527.1,477.4c-1.3,1.1-3.2,1.7-5.7,1.7h-4.7v8.1H512v-22.6h9.7c2.2,0,4,0.6,5.3,1.7c1.3,1.2,2,3,2,5.4
				C529.1,474.4,528.4,476.3,527.1,477.4z M523.5,469.3c-0.6-0.5-1.4-0.8-2.5-0.8h-4.3v6.6h4.3c1.1,0,1.9-0.3,2.5-0.8
				s0.9-1.4,0.9-2.6C524.4,470.6,524.1,469.8,523.5,469.3z"/>
			<path class="st5" d="M541.8,470.1c0.1,0,0.2,0,0.4,0v4.5c-0.3,0-0.5-0.1-0.7-0.1c-0.2,0-0.4,0-0.5,0c-1.8,0-2.9,0.6-3.5,1.7
				c-0.3,0.6-0.5,1.6-0.5,3v8h-4.4v-16.7h4.2v2.9c0.7-1.1,1.3-1.9,1.8-2.3c0.8-0.7,1.9-1,3.2-1C541.6,470.1,541.7,470.1,541.8,470.1
				z"/>
			<path class="st5" d="M558.6,485.1c-1.4,1.7-3.5,2.6-6.4,2.6c-2.9,0-5-0.9-6.4-2.6c-1.4-1.7-2.1-3.8-2.1-6.3
				c0-2.4,0.7-4.5,2.1-6.3c1.4-1.8,3.5-2.6,6.4-2.6c2.9,0,5,0.9,6.4,2.6c1.4,1.8,2.1,3.9,2.1,6.3C560.7,481.3,560,483.4,558.6,485.1
				z M555.1,482.7c0.7-0.9,1-2.2,1-3.9c0-1.7-0.3-3-1-3.9c-0.7-0.9-1.7-1.4-2.9-1.4c-1.3,0-2.3,0.5-2.9,1.4s-1,2.2-1,3.9
				c0,1.7,0.3,3,1,3.9c0.7,0.9,1.7,1.4,2.9,1.4C553.5,484.1,554.5,483.6,555.1,482.7z"/>
			<path class="st5" d="M573.9,476.5c-0.1-0.6-0.3-1.2-0.6-1.7c-0.5-0.7-1.3-1-2.3-1c-1.5,0-2.5,0.7-3,2.2c-0.3,0.8-0.4,1.8-0.4,3.1
				c0,1.2,0.1,2.2,0.4,2.9c0.5,1.4,1.5,2.1,2.9,2.1c1,0,1.8-0.3,2.2-0.8c0.4-0.6,0.7-1.3,0.8-2.1h4.5c-0.1,1.3-0.6,2.6-1.4,3.8
				c-1.4,1.9-3.4,2.9-6.1,2.9s-4.7-0.8-5.9-2.4c-1.3-1.6-1.9-3.7-1.9-6.2c0-2.9,0.7-5.1,2.1-6.7c1.4-1.6,3.3-2.4,5.8-2.4
				c2.1,0,3.8,0.5,5.1,1.4c1.3,0.9,2.1,2.6,2.4,5H573.9z"/>
			<path class="st5" d="M585.7,470.5v10.1c0,0.9,0.1,1.7,0.3,2.1c0.4,0.8,1.2,1.3,2.3,1.3c1.5,0,2.5-0.6,3-1.8
				c0.3-0.7,0.4-1.5,0.4-2.6v-9.1h4.4v16.7H592v-2.4c0,0.1-0.1,0.2-0.3,0.5c-0.2,0.3-0.4,0.5-0.6,0.7c-0.7,0.6-1.3,1-2,1.3
				c-0.6,0.2-1.4,0.3-2.2,0.3c-2.5,0-4.1-0.9-5-2.7c-0.5-1-0.7-2.4-0.7-4.3v-10.1H585.7z"/>
			<path class="st5" d="M609.8,470.1c0.1,0,0.2,0,0.4,0v4.5c-0.3,0-0.5-0.1-0.7-0.1c-0.2,0-0.4,0-0.5,0c-1.8,0-2.9,0.6-3.5,1.7
				c-0.3,0.6-0.5,1.6-0.5,3v8h-4.4v-16.7h4.2v2.9c0.7-1.1,1.3-1.9,1.8-2.3c0.8-0.7,1.9-1,3.2-1C609.6,470.1,609.7,470.1,609.8,470.1
				z"/>
			<path class="st5" d="M623.6,470.8c1.2,0.5,2.1,1.3,2.9,2.5c0.7,1,1.1,2.1,1.3,3.5c0.1,0.8,0.2,1.9,0.1,3.3h-12.2
				c0.1,1.7,0.7,2.8,1.7,3.5c0.7,0.4,1.5,0.6,2.4,0.6c1,0,1.8-0.3,2.4-0.8c0.3-0.3,0.6-0.7,0.9-1.1h4.5c-0.1,1-0.7,2-1.6,3
				c-1.5,1.6-3.6,2.4-6.3,2.4c-2.2,0-4.2-0.7-5.9-2.1c-1.7-1.4-2.5-3.6-2.5-6.7c0-2.9,0.8-5.1,2.3-6.7c1.5-1.5,3.5-2.3,6-2.3
				C621.1,470,622.4,470.3,623.6,470.8z M617,474.6c-0.6,0.6-1,1.5-1.2,2.6h7.5c-0.1-1.2-0.5-2-1.2-2.6c-0.7-0.6-1.6-0.9-2.6-0.9
				C618.5,473.6,617.7,473.9,617,474.6z"/>
			<path class="st5" d="M651,470.5c0.7,0.3,1.4,0.8,1.9,1.5c0.5,0.6,0.8,1.3,0.9,2.1c0.1,0.6,0.2,1.4,0.2,2.5l0,10.5h-4.5v-10.6
				c0-0.6-0.1-1.2-0.3-1.6c-0.4-0.8-1.1-1.2-2.1-1.2c-1.2,0-2,0.5-2.5,1.5c-0.2,0.5-0.4,1.2-0.4,1.9v9.9h-4.4v-9.9
				c0-1-0.1-1.7-0.3-2.2c-0.4-0.8-1.1-1.2-2.2-1.2c-1.2,0-2.1,0.4-2.5,1.2c-0.2,0.5-0.4,1.1-0.4,2.1v10h-4.4v-16.7h4.2v2.4
				c0.5-0.9,1.1-1.5,1.5-1.9c0.8-0.7,1.9-1,3.3-1c1.3,0,2.3,0.3,3.1,0.8c0.6,0.5,1.1,1.2,1.4,2c0.6-1,1.3-1.7,2.1-2.2
				c0.9-0.5,1.9-0.7,3-0.7C649.5,470.1,650.3,470.2,651,470.5z"/>
			<path class="st5" d="M668.9,470.8c1.2,0.5,2.1,1.3,2.9,2.5c0.7,1,1.1,2.1,1.3,3.5c0.1,0.8,0.2,1.9,0.1,3.3h-12.2
				c0.1,1.7,0.7,2.8,1.7,3.5c0.7,0.4,1.5,0.6,2.4,0.6c1,0,1.8-0.3,2.4-0.8c0.3-0.3,0.6-0.7,0.9-1.1h4.5c-0.1,1-0.7,2-1.6,3
				c-1.5,1.6-3.6,2.4-6.3,2.4c-2.2,0-4.2-0.7-5.9-2.1c-1.7-1.4-2.5-3.6-2.5-6.7c0-2.9,0.8-5.1,2.3-6.7c1.5-1.5,3.5-2.3,6-2.3
				C666.4,470,667.7,470.3,668.9,470.8z M662.4,474.6c-0.6,0.6-1,1.5-1.2,2.6h7.5c-0.1-1.2-0.5-2-1.2-2.6c-0.7-0.6-1.6-0.9-2.6-0.9
				C663.9,473.6,663,473.9,662.4,474.6z"/>
			<path class="st5" d="M688.9,471.4c1.1,0.9,1.6,2.4,1.6,4.5v11.2h-4.5V477c0-0.9-0.1-1.6-0.3-2c-0.4-0.9-1.2-1.3-2.4-1.3
				c-1.5,0-2.5,0.6-3,1.9c-0.3,0.7-0.4,1.5-0.4,2.5v9h-4.4v-16.7h4.2v2.4c0.6-0.9,1.1-1.5,1.6-1.9c0.9-0.7,2-1,3.4-1
				C686.4,470.1,687.8,470.5,688.9,471.4z"/>
			<path class="st5" d="M692.9,473.7v-3.1h2.3V466h4.3v4.7h2.7v3.1h-2.7v8.8c0,0.7,0.1,1.1,0.3,1.3c0.2,0.2,0.7,0.3,1.6,0.3
				c0.1,0,0.3,0,0.4,0c0.1,0,0.3,0,0.4,0v3.3l-2.1,0.1c-2.1,0.1-3.5-0.3-4.2-1.1c-0.5-0.5-0.7-1.3-0.7-2.3v-10.3H692.9z"/>
		</g>
	</g>
	<g>
		<path class="st8" d="M268.4,245.9h6.8c1.4,0,2.4,0.4,3.3,1.1c0.8,0.8,1.2,1.8,1.2,3.2c0,1.2-0.4,2.2-1.1,3.1
			c-0.7,0.9-1.9,1.3-3.4,1.3h-4.8v6.4h-2.1V245.9z M276.5,247.9c-0.5-0.2-1.1-0.3-1.9-0.3h-4.1v5.3h4.1c0.9,0,1.7-0.2,2.3-0.6
			c0.6-0.4,0.9-1.1,0.9-2.1C277.7,249.1,277.3,248.3,276.5,247.9z"/>
		<path class="st8" d="M282.1,245.9h1.9v2.1h-1.9V245.9z M282.1,250h1.9v11h-1.9V250z"/>
		<path class="st8" d="M286.9,245.9h1.9v15.2h-1.9V245.9z"/>
		<path class="st8" d="M299.7,251.1c1,1,1.5,2.4,1.5,4.2c0,1.8-0.4,3.3-1.3,4.4c-0.9,1.2-2.2,1.8-4.1,1.8c-1.5,0-2.7-0.5-3.6-1.5
			c-0.9-1-1.3-2.4-1.3-4.2c0-1.9,0.5-3.4,1.4-4.5c0.9-1.1,2.2-1.7,3.8-1.7C297.5,249.7,298.7,250.1,299.7,251.1z M298.5,258.5
			c0.5-0.9,0.7-2,0.7-3.1c0-1-0.2-1.9-0.5-2.5c-0.5-1-1.4-1.5-2.7-1.5c-1.1,0-2,0.4-2.5,1.3c-0.5,0.9-0.8,1.9-0.8,3.1
			c0,1.2,0.3,2.2,0.8,3c0.5,0.8,1.3,1.2,2.5,1.2C297.2,259.9,298.1,259.4,298.5,258.5z"/>
		<path class="st8" d="M303.7,246.9h1.9v3.1h1.8v1.5h-1.8v7.2c0,0.4,0.1,0.6,0.4,0.8c0.1,0.1,0.4,0.1,0.7,0.1c0.1,0,0.2,0,0.3,0
			s0.2,0,0.4,0v1.5c-0.2,0.1-0.4,0.1-0.7,0.1c-0.2,0-0.5,0-0.8,0c-0.9,0-1.5-0.2-1.8-0.7c-0.3-0.4-0.5-1-0.5-1.7v-7.3h-1.5V250h1.5
			V246.9z"/>
		<path class="st8" d="M216.8,271.3h2.1v15.2h-2.1V271.3z"/>
		<path class="st8" d="M222,275.4h1.8v1.6c0.4-0.5,0.8-0.9,1.2-1.2c0.6-0.4,1.3-0.6,2.1-0.6c0.9,0,1.6,0.2,2.1,0.7
			c0.3,0.2,0.6,0.6,0.8,1.1c0.4-0.6,0.9-1,1.5-1.3c0.6-0.3,1.2-0.4,1.9-0.4c1.5,0,2.5,0.5,3,1.6c0.3,0.6,0.4,1.4,0.4,2.3v7.4H235
			v-7.7c0-0.7-0.2-1.2-0.6-1.5c-0.4-0.3-0.8-0.4-1.4-0.4c-0.7,0-1.4,0.2-1.9,0.7c-0.5,0.5-0.8,1.3-0.8,2.5v6.5h-1.9v-7.2
			c0-0.8-0.1-1.3-0.3-1.6c-0.3-0.5-0.8-0.8-1.6-0.8c-0.7,0-1.3,0.3-1.9,0.8c-0.6,0.5-0.9,1.5-0.9,3v5.9H222V275.4z"/>
		<path class="st8" d="M239.5,275.5h1.8v1.5c0.4-0.5,0.8-0.9,1.2-1.2c0.6-0.4,1.4-0.6,2.2-0.6c1.3,0,2.3,0.5,3.2,1.4
			c0.9,1,1.3,2.3,1.3,4.1c0,2.4-0.6,4.1-1.9,5.2c-0.8,0.7-1.7,1-2.8,1c-0.8,0-1.5-0.2-2.1-0.5c-0.3-0.2-0.7-0.6-1.1-1.1v5.7h-1.9
			V275.5z M246.5,284.2c0.6-0.7,0.9-1.8,0.9-3.3c0-0.9-0.1-1.6-0.4-2.3c-0.5-1.2-1.4-1.8-2.7-1.8c-1.3,0-2.2,0.6-2.7,1.9
			c-0.3,0.7-0.4,1.6-0.4,2.6c0,0.9,0.1,1.6,0.4,2.2c0.5,1.1,1.4,1.7,2.7,1.7C245.2,285.3,245.9,284.9,246.5,284.2z"/>
		<path class="st8" d="M251.5,271.3h1.9v15.2h-1.9V271.3z"/>
		<path class="st8" d="M263.1,275.7c0.7,0.4,1.3,0.8,1.7,1.4c0.4,0.6,0.6,1.2,0.7,2c0.1,0.5,0.2,1.3,0.2,2.4h-8.1
			c0,1.1,0.3,2,0.8,2.7c0.5,0.7,1.3,1,2.3,1c1,0,1.8-0.3,2.3-1c0.3-0.4,0.6-0.8,0.7-1.3h1.8c0,0.4-0.2,0.9-0.5,1.4
			c-0.3,0.5-0.6,0.9-0.9,1.2c-0.6,0.6-1.3,0.9-2.1,1.1c-0.4,0.1-1,0.2-1.5,0.2c-1.4,0-2.6-0.5-3.5-1.5s-1.4-2.4-1.4-4.2
			c0-1.8,0.5-3.2,1.5-4.3c1-1.1,2.2-1.7,3.8-1.7C261.6,275.2,262.3,275.4,263.1,275.7z M263.8,280.1c-0.1-0.8-0.3-1.5-0.5-1.9
			c-0.5-0.9-1.4-1.3-2.6-1.3c-0.9,0-1.6,0.3-2.2,0.9s-0.9,1.4-0.9,2.4H263.8z"/>
		<path class="st8" d="M268,275.4h1.8v1.6c0.4-0.5,0.8-0.9,1.2-1.2c0.6-0.4,1.3-0.6,2.1-0.6c0.9,0,1.6,0.2,2.1,0.7
			c0.3,0.2,0.6,0.6,0.8,1.1c0.4-0.6,0.9-1,1.5-1.3c0.6-0.3,1.2-0.4,1.9-0.4c1.5,0,2.5,0.5,3,1.6c0.3,0.6,0.4,1.4,0.4,2.3v7.4H281
			v-7.7c0-0.7-0.2-1.2-0.6-1.5c-0.4-0.3-0.8-0.4-1.4-0.4c-0.7,0-1.4,0.2-1.9,0.7c-0.5,0.5-0.8,1.3-0.8,2.5v6.5h-1.9v-7.2
			c0-0.8-0.1-1.3-0.3-1.6c-0.3-0.5-0.8-0.8-1.6-0.8c-0.7,0-1.3,0.3-1.9,0.8c-0.6,0.5-0.9,1.5-0.9,3v5.9H268V275.4z"/>
		<path class="st8" d="M292.6,275.7c0.7,0.4,1.3,0.8,1.7,1.4c0.4,0.6,0.6,1.2,0.7,2c0.1,0.5,0.2,1.3,0.2,2.4H287
			c0,1.1,0.3,2,0.8,2.7c0.5,0.7,1.3,1,2.3,1c1,0,1.8-0.3,2.3-1c0.3-0.4,0.6-0.8,0.7-1.3h1.8c0,0.4-0.2,0.9-0.5,1.4
			c-0.3,0.5-0.6,0.9-0.9,1.2c-0.6,0.6-1.3,0.9-2.1,1.1c-0.4,0.1-1,0.2-1.5,0.2c-1.4,0-2.6-0.5-3.5-1.5s-1.4-2.4-1.4-4.2
			c0-1.8,0.5-3.2,1.5-4.3c1-1.1,2.2-1.7,3.8-1.7C291.1,275.2,291.8,275.4,292.6,275.7z M293.2,280.1c-0.1-0.8-0.3-1.5-0.5-1.9
			c-0.5-0.9-1.4-1.3-2.6-1.3c-0.9,0-1.6,0.3-2.2,0.9s-0.9,1.4-0.9,2.4H293.2z"/>
		<path class="st8" d="M297.5,275.4h1.8v1.6c0.5-0.6,1.1-1.1,1.7-1.4c0.6-0.3,1.2-0.4,2-0.4c1.6,0,2.6,0.5,3.2,1.6
			c0.3,0.6,0.5,1.5,0.5,2.6v7.1h-1.9v-7c0-0.7-0.1-1.2-0.3-1.6c-0.3-0.7-0.9-1-1.8-1c-0.4,0-0.8,0-1.1,0.1c-0.5,0.2-1,0.5-1.3,0.9
			c-0.3,0.4-0.5,0.7-0.6,1.1s-0.1,0.9-0.1,1.7v5.8h-1.9V275.4z"/>
		<path class="st8" d="M309.6,272.3h1.9v3.1h1.8v1.5h-1.8v7.2c0,0.4,0.1,0.6,0.4,0.8c0.1,0.1,0.4,0.1,0.7,0.1c0.1,0,0.2,0,0.3,0
			s0.2,0,0.4,0v1.5c-0.2,0.1-0.4,0.1-0.7,0.1c-0.2,0-0.5,0-0.8,0c-0.9,0-1.5-0.2-1.8-0.7c-0.3-0.4-0.5-1-0.5-1.7V277h-1.5v-1.5h1.5
			V272.3z"/>
		<path class="st8" d="M321.1,279.8c0.4-0.1,0.7-0.2,0.9-0.5c0.1-0.2,0.1-0.4,0.1-0.7c0-0.6-0.2-1.1-0.7-1.4
			c-0.5-0.3-1.1-0.4-1.9-0.4c-1,0-1.7,0.3-2.1,0.8c-0.2,0.3-0.4,0.7-0.4,1.3h-1.7c0-1.4,0.5-2.3,1.3-2.9c0.9-0.5,1.8-0.8,3-0.8
			c1.3,0,2.4,0.2,3.2,0.7c0.8,0.5,1.2,1.3,1.2,2.3v6.4c0,0.2,0,0.3,0.1,0.5c0.1,0.1,0.2,0.2,0.5,0.2c0.1,0,0.2,0,0.3,0
			c0.1,0,0.2,0,0.3,0v1.4c-0.3,0.1-0.5,0.1-0.7,0.2c-0.2,0-0.4,0-0.6,0c-0.6,0-1.1-0.2-1.4-0.7c-0.2-0.2-0.3-0.6-0.3-1
			c-0.4,0.5-0.9,0.9-1.6,1.3c-0.7,0.4-1.5,0.5-2.4,0.5c-1,0-1.9-0.3-2.5-0.9c-0.7-0.6-1-1.4-1-2.3c0-1,0.3-1.8,1-2.4
			c0.6-0.6,1.5-0.9,2.5-1L321.1,279.8z M317.2,284.9c0.4,0.3,0.9,0.5,1.4,0.5c0.7,0,1.3-0.2,1.9-0.5c1-0.5,1.6-1.3,1.6-2.5v-1.5
			c-0.2,0.1-0.5,0.3-0.9,0.4s-0.7,0.2-1.1,0.2l-1.1,0.1c-0.7,0.1-1.2,0.2-1.5,0.4c-0.6,0.3-0.9,0.8-0.9,1.6
			C316.6,284.1,316.8,284.6,317.2,284.9z"/>
		<path class="st8" d="M327.3,272.3h1.9v3.1h1.8v1.5h-1.8v7.2c0,0.4,0.1,0.6,0.4,0.8c0.1,0.1,0.4,0.1,0.7,0.1c0.1,0,0.2,0,0.3,0
			s0.2,0,0.4,0v1.5c-0.2,0.1-0.4,0.1-0.7,0.1c-0.2,0-0.5,0-0.8,0c-0.9,0-1.5-0.2-1.8-0.7c-0.3-0.4-0.5-1-0.5-1.7V277h-1.5v-1.5h1.5
			V272.3z"/>
		<path class="st8" d="M332.8,271.3h1.9v2.1h-1.9V271.3z M332.8,275.5h1.9v11h-1.9V275.5z"/>
		<path class="st8" d="M345.7,276.6c1,1,1.5,2.4,1.5,4.2c0,1.8-0.4,3.3-1.3,4.4c-0.9,1.2-2.2,1.8-4.1,1.8c-1.5,0-2.7-0.5-3.6-1.5
			c-0.9-1-1.3-2.4-1.3-4.2c0-1.9,0.5-3.4,1.4-4.5c0.9-1.1,2.2-1.7,3.8-1.7C343.5,275.1,344.7,275.6,345.7,276.6z M344.5,283.9
			c0.5-0.9,0.7-2,0.7-3.1c0-1-0.2-1.9-0.5-2.5c-0.5-1-1.4-1.5-2.7-1.5c-1.1,0-2,0.4-2.5,1.3c-0.5,0.9-0.8,1.9-0.8,3.1
			c0,1.2,0.3,2.2,0.8,3c0.5,0.8,1.3,1.2,2.5,1.2C343.2,285.3,344.1,284.9,344.5,283.9z"/>
		<path class="st8" d="M349.4,275.4h1.8v1.6c0.5-0.6,1.1-1.1,1.7-1.4c0.6-0.3,1.2-0.4,2-0.4c1.6,0,2.6,0.5,3.2,1.6
			c0.3,0.6,0.5,1.5,0.5,2.6v7.1h-1.9v-7c0-0.7-0.1-1.2-0.3-1.6c-0.3-0.7-0.9-1-1.8-1c-0.4,0-0.8,0-1.1,0.1c-0.5,0.2-1,0.5-1.3,0.9
			c-0.3,0.4-0.5,0.7-0.6,1.1s-0.1,0.9-0.1,1.7v5.8h-1.9V275.4z"/>
	</g>
	<g>
		<g>
			<path class="st8" d="M460.5,256.5h2.1v15.2h-2.1V256.5z"/>
			<path class="st8" d="M465.7,260.6h1.8v1.6c0.5-0.6,1.1-1.1,1.7-1.4s1.2-0.4,2-0.4c1.6,0,2.6,0.5,3.2,1.6c0.3,0.6,0.5,1.5,0.5,2.6
				v7.1h-1.9v-7c0-0.7-0.1-1.2-0.3-1.6c-0.3-0.7-0.9-1-1.8-1c-0.4,0-0.8,0-1.1,0.1c-0.5,0.2-1,0.5-1.3,0.9c-0.3,0.4-0.5,0.7-0.6,1.1
				c-0.1,0.4-0.1,0.9-0.1,1.7v5.8h-1.9V260.6z"/>
			<path class="st8" d="M477.5,260.6h1.8v1.6c0.5-0.6,1.1-1.1,1.7-1.4s1.2-0.4,2-0.4c1.6,0,2.6,0.5,3.2,1.6c0.3,0.6,0.5,1.5,0.5,2.6
				v7.1h-1.9v-7c0-0.7-0.1-1.2-0.3-1.6c-0.3-0.7-0.9-1-1.8-1c-0.4,0-0.8,0-1.1,0.1c-0.5,0.2-1,0.5-1.3,0.9c-0.3,0.4-0.5,0.7-0.6,1.1
				c-0.1,0.4-0.1,0.9-0.1,1.7v5.8h-1.9V260.6z"/>
			<path class="st8" d="M497.4,261.7c1,1,1.5,2.4,1.5,4.2c0,1.8-0.4,3.3-1.3,4.4c-0.9,1.2-2.2,1.8-4.1,1.8c-1.5,0-2.7-0.5-3.6-1.5
				c-0.9-1-1.3-2.4-1.3-4.2c0-1.9,0.5-3.4,1.4-4.5c0.9-1.1,2.2-1.7,3.8-1.7C495.2,260.3,496.4,260.7,497.4,261.7z M496.3,269.1
				c0.5-0.9,0.7-2,0.7-3.1c0-1-0.2-1.9-0.5-2.5c-0.5-1-1.4-1.5-2.7-1.5c-1.1,0-2,0.4-2.5,1.3c-0.5,0.9-0.8,1.9-0.8,3.1
				c0,1.2,0.3,2.2,0.8,3c0.5,0.8,1.3,1.2,2.5,1.2C495,270.5,495.8,270,496.3,269.1z"/>
			<path class="st8" d="M502,260.6l3,9l3.1-9h2l-4.2,11.1h-2l-4.1-11.1H502z"/>
			<path class="st8" d="M517.7,265c0.4-0.1,0.7-0.2,0.9-0.5c0.1-0.2,0.1-0.4,0.1-0.7c0-0.6-0.2-1.1-0.7-1.4
				c-0.5-0.3-1.1-0.4-1.9-0.4c-1,0-1.7,0.3-2.1,0.8c-0.2,0.3-0.4,0.7-0.4,1.3h-1.7c0-1.4,0.5-2.3,1.3-2.9c0.9-0.5,1.8-0.8,3-0.8
				c1.3,0,2.4,0.2,3.2,0.7c0.8,0.5,1.2,1.3,1.2,2.3v6.4c0,0.2,0,0.3,0.1,0.5c0.1,0.1,0.2,0.2,0.5,0.2c0.1,0,0.2,0,0.3,0
				c0.1,0,0.2,0,0.3,0v1.4c-0.3,0.1-0.5,0.1-0.7,0.2c-0.2,0-0.4,0-0.6,0c-0.6,0-1.1-0.2-1.4-0.7c-0.2-0.2-0.3-0.6-0.3-1
				c-0.4,0.5-0.9,0.9-1.6,1.3c-0.7,0.4-1.5,0.5-2.4,0.5c-1,0-1.9-0.3-2.5-0.9c-0.7-0.6-1-1.4-1-2.3c0-1,0.3-1.8,1-2.4s1.5-0.9,2.5-1
				L517.7,265z M513.8,270c0.4,0.3,0.9,0.5,1.4,0.5c0.7,0,1.3-0.2,1.9-0.5c1-0.5,1.6-1.3,1.6-2.5V266c-0.2,0.1-0.5,0.3-0.9,0.4
				c-0.4,0.1-0.7,0.2-1.1,0.2l-1.1,0.1c-0.7,0.1-1.2,0.2-1.5,0.4c-0.6,0.3-0.9,0.8-0.9,1.6C513.2,269.3,513.4,269.7,513.8,270z"/>
			<path class="st8" d="M523.9,257.5h1.9v3.1h1.8v1.5h-1.8v7.2c0,0.4,0.1,0.6,0.4,0.8c0.1,0.1,0.4,0.1,0.7,0.1c0.1,0,0.2,0,0.3,0
				s0.2,0,0.4,0v1.5c-0.2,0.1-0.4,0.1-0.7,0.1c-0.2,0-0.5,0-0.8,0c-0.9,0-1.5-0.2-1.8-0.7c-0.3-0.4-0.5-1-0.5-1.7v-7.3h-1.5v-1.5
				h1.5V257.5z"/>
			<path class="st8" d="M529.4,256.5h1.9v2.1h-1.9V256.5z M529.4,260.6h1.9v11h-1.9V260.6z"/>
			<path class="st8" d="M542.2,261.7c1,1,1.5,2.4,1.5,4.2c0,1.8-0.4,3.3-1.3,4.4c-0.9,1.2-2.2,1.8-4.1,1.8c-1.5,0-2.7-0.5-3.6-1.5
				c-0.9-1-1.3-2.4-1.3-4.2c0-1.9,0.5-3.4,1.4-4.5c0.9-1.1,2.2-1.7,3.8-1.7C540,260.3,541.3,260.7,542.2,261.7z M541.1,269.1
				c0.5-0.9,0.7-2,0.7-3.1c0-1-0.2-1.9-0.5-2.5c-0.5-1-1.4-1.5-2.7-1.5c-1.1,0-2,0.4-2.5,1.3c-0.5,0.9-0.8,1.9-0.8,3.1
				c0,1.2,0.3,2.2,0.8,3c0.5,0.8,1.3,1.2,2.5,1.2C539.8,270.5,540.6,270,541.1,269.1z"/>
			<path class="st8" d="M545.9,260.6h1.8v1.6c0.5-0.6,1.1-1.1,1.7-1.4s1.2-0.4,2-0.4c1.6,0,2.6,0.5,3.2,1.6c0.3,0.6,0.5,1.5,0.5,2.6
				v7.1h-1.9v-7c0-0.7-0.1-1.2-0.3-1.6c-0.3-0.7-0.9-1-1.8-1c-0.4,0-0.8,0-1.1,0.1c-0.5,0.2-1,0.5-1.3,0.9c-0.3,0.4-0.5,0.7-0.6,1.1
				c-0.1,0.4-0.1,0.9-0.1,1.7v5.8h-1.9V260.6z"/>
			<path class="st8" d="M466.7,284.1c1,1.3,1.5,3.1,1.5,5.2c0,2.3-0.6,4.2-1.7,5.7c-1.4,1.8-3.3,2.7-5.8,2.7c-2.3,0-4.2-0.8-5.5-2.3
				c-1.2-1.5-1.8-3.4-1.8-5.7c0-2.1,0.5-3.8,1.5-5.3c1.3-1.9,3.3-2.8,5.8-2.8C463.4,281.5,465.4,282.4,466.7,284.1z M464.9,293.8
				c0.8-1.3,1.2-2.8,1.2-4.5c0-1.8-0.5-3.2-1.4-4.3c-0.9-1.1-2.2-1.6-3.8-1.6c-1.6,0-2.9,0.5-3.9,1.6c-1,1.1-1.5,2.7-1.5,4.8
				c0,1.7,0.4,3.1,1.3,4.3c0.9,1.2,2.2,1.7,4.1,1.7C462.8,295.8,464.1,295.1,464.9,293.8z"/>
			<path class="st8" d="M470.3,286.1h1.8v1.5c0.4-0.5,0.8-0.9,1.2-1.2c0.6-0.4,1.4-0.6,2.2-0.6c1.3,0,2.3,0.5,3.2,1.4
				c0.9,1,1.3,2.3,1.3,4.1c0,2.4-0.6,4.1-1.9,5.2c-0.8,0.7-1.7,1-2.8,1c-0.8,0-1.5-0.2-2.1-0.5c-0.3-0.2-0.7-0.6-1.1-1.1v5.7h-1.9
				V286.1z M477.3,294.8c0.6-0.7,0.9-1.8,0.9-3.3c0-0.9-0.1-1.6-0.4-2.3c-0.5-1.2-1.4-1.8-2.7-1.8c-1.3,0-2.2,0.6-2.7,1.9
				c-0.3,0.7-0.4,1.6-0.4,2.6c0,0.9,0.1,1.6,0.4,2.2c0.5,1.1,1.4,1.7,2.7,1.7C476,295.9,476.7,295.5,477.3,294.8z"/>
			<path class="st8" d="M482.1,286.1h1.8v1.5c0.4-0.5,0.8-0.9,1.2-1.2c0.6-0.4,1.4-0.6,2.2-0.6c1.3,0,2.3,0.5,3.2,1.4
				c0.9,1,1.3,2.3,1.3,4.1c0,2.4-0.6,4.1-1.9,5.2c-0.8,0.7-1.7,1-2.8,1c-0.8,0-1.5-0.2-2.1-0.5c-0.3-0.2-0.7-0.6-1.1-1.1v5.7h-1.9
				V286.1z M489.1,294.8c0.6-0.7,0.9-1.8,0.9-3.3c0-0.9-0.1-1.6-0.4-2.3c-0.5-1.2-1.4-1.8-2.7-1.8c-1.3,0-2.2,0.6-2.7,1.9
				c-0.3,0.7-0.4,1.6-0.4,2.6c0,0.9,0.1,1.6,0.4,2.2c0.5,1.1,1.4,1.7,2.7,1.7C487.8,295.9,488.5,295.5,489.1,294.8z"/>
			<path class="st8" d="M502.1,287.2c1,1,1.5,2.4,1.5,4.2c0,1.8-0.4,3.3-1.3,4.4c-0.9,1.2-2.2,1.8-4.1,1.8c-1.5,0-2.7-0.5-3.6-1.5
				c-0.9-1-1.3-2.4-1.3-4.2c0-1.9,0.5-3.4,1.4-4.5c0.9-1.1,2.2-1.7,3.8-1.7C499.9,285.7,501.2,286.2,502.1,287.2z M501,294.5
				c0.5-0.9,0.7-2,0.7-3.1c0-1-0.2-1.9-0.5-2.5c-0.5-1-1.4-1.5-2.7-1.5c-1.1,0-2,0.4-2.5,1.3c-0.5,0.9-0.8,1.9-0.8,3.1
				c0,1.2,0.3,2.2,0.8,3c0.5,0.8,1.3,1.2,2.5,1.2C499.7,296,500.5,295.5,501,294.5z"/>
			<path class="st8" d="M505.9,286.1h1.8v1.9c0.1-0.4,0.5-0.8,1.1-1.4c0.6-0.5,1.2-0.8,2-0.8c0,0,0.1,0,0.2,0s0.2,0,0.4,0v2
				c-0.1,0-0.2,0-0.3,0c-0.1,0-0.2,0-0.3,0c-0.9,0-1.7,0.3-2.2,0.9c-0.5,0.6-0.8,1.3-0.8,2.1v6.4h-1.9V286.1z"/>
			<path class="st8" d="M513.3,283h1.9v3.1h1.8v1.5h-1.8v7.2c0,0.4,0.1,0.6,0.4,0.8c0.1,0.1,0.4,0.1,0.7,0.1c0.1,0,0.2,0,0.3,0
				s0.2,0,0.4,0v1.5c-0.2,0.1-0.4,0.1-0.7,0.1c-0.2,0-0.5,0-0.8,0c-0.9,0-1.5-0.2-1.8-0.7c-0.3-0.4-0.5-1-0.5-1.7v-7.3h-1.5v-1.5
				h1.5V283z"/>
			<path class="st8" d="M520.7,286.1v7.4c0,0.6,0.1,1,0.3,1.4c0.3,0.7,1,1,1.9,1c1.3,0,2.2-0.6,2.7-1.7c0.3-0.6,0.4-1.5,0.4-2.6
				v-5.4h1.9v11.1h-1.8l0-1.6c-0.2,0.4-0.5,0.8-0.9,1.1c-0.7,0.6-1.6,0.9-2.6,0.9c-1.6,0-2.7-0.5-3.2-1.6c-0.3-0.6-0.5-1.3-0.5-2.3
				v-7.5H520.7z"/>
			<path class="st8" d="M530.6,286.1h1.8v1.6c0.5-0.6,1.1-1.1,1.7-1.4s1.2-0.4,2-0.4c1.6,0,2.6,0.5,3.2,1.6c0.3,0.6,0.5,1.5,0.5,2.6
				v7.1h-1.9v-7c0-0.7-0.1-1.2-0.3-1.6c-0.3-0.7-0.9-1-1.8-1c-0.4,0-0.8,0-1.1,0.1c-0.5,0.2-1,0.5-1.3,0.9c-0.3,0.4-0.5,0.7-0.6,1.1
				c-0.1,0.4-0.1,0.9-0.1,1.7v5.8h-1.9V286.1z"/>
			<path class="st8" d="M542.4,281.9h1.9v2.1h-1.9V281.9z M542.4,286.1h1.9v11h-1.9V286.1z"/>
			<path class="st8" d="M547.5,283h1.9v3.1h1.8v1.5h-1.8v7.2c0,0.4,0.1,0.6,0.4,0.8c0.1,0.1,0.4,0.1,0.7,0.1c0.1,0,0.2,0,0.3,0
				s0.2,0,0.4,0v1.5c-0.2,0.1-0.4,0.1-0.7,0.1c-0.2,0-0.5,0-0.8,0c-0.9,0-1.5-0.2-1.8-0.7c-0.3-0.4-0.5-1-0.5-1.7v-7.3H546v-1.5h1.5
				V283z"/>
			<path class="st8" d="M559.9,286.1h2.1c-0.3,0.7-0.8,2.3-1.8,4.9c-0.7,1.9-1.2,3.5-1.7,4.7c-1.1,2.8-1.8,4.6-2.3,5.2
				c-0.4,0.6-1.2,0.9-2.3,0.9c-0.3,0-0.5,0-0.6,0c-0.1,0-0.3-0.1-0.5-0.1v-1.7c0.3,0.1,0.6,0.1,0.7,0.2c0.1,0,0.3,0,0.4,0
				c0.3,0,0.6-0.1,0.8-0.2c0.2-0.1,0.3-0.3,0.4-0.4c0-0.1,0.2-0.3,0.4-0.8s0.4-0.9,0.5-1.1l-4.1-11.4h2.1l3,9L559.9,286.1z"/>
		</g>
	</g>
	<g>
		<path class="st8" d="M380.8,363.5c-1.2,1.3-3,1.9-5.3,1.9c-2.3,0-4.1-0.6-5.3-1.9c-1.6-1.5-2.5-3.8-2.5-6.7c0-3,0.8-5.2,2.5-6.7
			c1.2-1.3,3-1.9,5.3-1.9c2.3,0,4.1,0.6,5.3,1.9c1.6,1.5,2.5,3.7,2.5,6.7C383.2,359.7,382.4,361.9,380.8,363.5z M378.6,361
			c0.8-1,1.2-2.4,1.2-4.2c0-1.8-0.4-3.2-1.2-4.2c-0.8-1-1.9-1.5-3.2-1.5s-2.4,0.5-3.2,1.5c-0.8,1-1.2,2.4-1.2,4.2
			c0,1.8,0.4,3.2,1.2,4.2c0.8,1,1.9,1.5,3.2,1.5S377.9,362,378.6,361z"/>
		<path class="st8" d="M395.6,354.2c1,1,1.5,2.6,1.5,4.6c0,2.1-0.5,3.7-1.4,4.8c-1,1.1-2.2,1.7-3.7,1.7c-1,0-1.8-0.2-2.4-0.7
			c-0.3-0.3-0.7-0.6-1-1.2v6.3h-3.1v-16.7h3v1.8c0.3-0.5,0.7-0.9,1.1-1.2c0.7-0.5,1.5-0.8,2.5-0.8
			C393.5,352.7,394.7,353.2,395.6,354.2z M393.2,356.5c-0.4-0.7-1.1-1.1-2.1-1.1c-1.1,0-1.9,0.5-2.4,1.6c-0.2,0.6-0.3,1.3-0.3,2.2
			c0,1.4,0.4,2.4,1.1,2.9c0.4,0.3,1,0.5,1.6,0.5c0.9,0,1.6-0.3,2-1c0.5-0.7,0.7-1.6,0.7-2.7C393.9,358,393.7,357.2,393.2,356.5z"/>
		<path class="st8" d="M407.1,353.2c0.8,0.4,1.5,1,2.1,1.8c0.5,0.7,0.8,1.5,1,2.5c0.1,0.6,0.1,1.3,0.1,2.4h-8.7c0,1.2,0.5,2,1.3,2.5
			c0.5,0.3,1.1,0.5,1.7,0.5c0.7,0,1.3-0.2,1.7-0.6c0.2-0.2,0.5-0.5,0.6-0.8h3.2c-0.1,0.7-0.5,1.4-1.2,2.2c-1.1,1.2-2.6,1.8-4.5,1.8
			c-1.6,0-3-0.5-4.2-1.5s-1.8-2.6-1.8-4.8c0-2.1,0.6-3.7,1.7-4.8c1.1-1.1,2.5-1.7,4.3-1.7C405.4,352.6,406.3,352.8,407.1,353.2z
			 M402.4,355.9c-0.4,0.5-0.7,1.1-0.8,1.9h5.4c-0.1-0.8-0.3-1.5-0.8-1.9c-0.5-0.4-1.1-0.6-1.9-0.6
			C403.5,355.2,402.9,355.4,402.4,355.9z"/>
		<path class="st8" d="M421.5,353.6c0.8,0.6,1.2,1.7,1.2,3.2v8.1h-3.2v-7.3c0-0.6-0.1-1.1-0.3-1.5c-0.3-0.6-0.9-0.9-1.7-0.9
			c-1.1,0-1.8,0.5-2.2,1.4c-0.2,0.5-0.3,1.1-0.3,1.8v6.5h-3.1v-12h3v1.8c0.4-0.6,0.8-1.1,1.1-1.3c0.6-0.5,1.5-0.7,2.4-0.7
			C419.7,352.6,420.8,353,421.5,353.6z"/>
		<path class="st8" d="M343.2,392h-3.4v-16.2h3.4V392z"/>
		<path class="st8" d="M355.8,380.7c0.8,0.6,1.2,1.7,1.2,3.2v8.1h-3.2v-7.3c0-0.6-0.1-1.1-0.3-1.5c-0.3-0.6-0.9-0.9-1.7-0.9
			c-1.1,0-1.8,0.5-2.2,1.4c-0.2,0.5-0.3,1.1-0.3,1.8v6.5h-3.1v-12h3v1.8c0.4-0.6,0.8-1.1,1.1-1.3c0.6-0.5,1.5-0.7,2.4-0.7
			C354,379.7,355,380,355.8,380.7z"/>
		<path class="st8" d="M369.5,380.7c0.8,0.6,1.2,1.7,1.2,3.2v8.1h-3.2v-7.3c0-0.6-0.1-1.1-0.3-1.5c-0.3-0.6-0.9-0.9-1.7-0.9
			c-1.1,0-1.8,0.5-2.2,1.4c-0.2,0.5-0.3,1.1-0.3,1.8v6.5h-3.1v-12h3v1.8c0.4-0.6,0.8-1.1,1.1-1.3c0.6-0.5,1.5-0.7,2.4-0.7
			C367.8,379.7,368.8,380,369.5,380.7z"/>
		<path class="st8" d="M383.6,390.5c-1,1.2-2.6,1.9-4.6,1.9c-2.1,0-3.6-0.6-4.6-1.9c-1-1.2-1.5-2.8-1.5-4.5c0-1.7,0.5-3.2,1.5-4.5
			c1-1.3,2.6-1.9,4.6-1.9c2.1,0,3.6,0.6,4.6,1.9c1,1.3,1.5,2.8,1.5,4.5C385.2,387.7,384.7,389.3,383.6,390.5z M381.1,388.8
			c0.5-0.7,0.7-1.6,0.7-2.8c0-1.2-0.2-2.1-0.7-2.8s-1.2-1-2.1-1s-1.6,0.3-2.1,1c-0.5,0.6-0.7,1.6-0.7,2.8c0,1.2,0.2,2.1,0.7,2.8
			c0.5,0.7,1.2,1,2.1,1S380.6,389.4,381.1,388.8z"/>
		<path class="st8" d="M394.8,380h3.4l-4.3,12h-3.3l-4.3-12h3.5l2.5,8.9L394.8,380z"/>
		<path class="st8" d="M404.7,384.7c0.6-0.1,1-0.2,1.3-0.3c0.5-0.2,0.7-0.5,0.7-0.9c0-0.5-0.2-0.8-0.5-1c-0.3-0.2-0.9-0.3-1.5-0.3
			c-0.8,0-1.3,0.2-1.6,0.6c-0.2,0.3-0.4,0.6-0.4,1.1h-3c0.1-1,0.4-1.9,0.9-2.6c0.8-1.1,2.3-1.6,4.3-1.6c1.3,0,2.5,0.3,3.5,0.8
			c1,0.5,1.5,1.5,1.5,3v5.5c0,0.4,0,0.8,0,1.4c0,0.4,0.1,0.7,0.2,0.8c0.1,0.1,0.3,0.3,0.5,0.4v0.5H407c-0.1-0.2-0.2-0.5-0.2-0.7
			c0-0.2-0.1-0.5-0.1-0.7c-0.4,0.5-0.9,0.9-1.5,1.2c-0.7,0.4-1.4,0.6-2.3,0.6c-1.1,0-2-0.3-2.7-0.9c-0.7-0.6-1.1-1.5-1.1-2.6
			c0-1.5,0.6-2.5,1.7-3.2c0.6-0.4,1.6-0.6,2.8-0.8L404.7,384.7z M406.6,386.1c-0.2,0.1-0.4,0.2-0.6,0.3c-0.2,0.1-0.5,0.1-0.8,0.2
			l-0.7,0.1c-0.7,0.1-1.2,0.3-1.4,0.4c-0.5,0.3-0.7,0.7-0.7,1.3c0,0.5,0.2,0.9,0.5,1.2c0.3,0.2,0.7,0.4,1.1,0.4
			c0.7,0,1.3-0.2,1.9-0.6c0.6-0.4,0.9-1.1,0.9-2.2V386.1z"/>
		<path class="st8" d="M411.3,382.3v-2.2h1.7v-3.3h3.1v3.3h1.9v2.2H416v6.3c0,0.5,0.1,0.8,0.2,0.9s0.5,0.2,1.1,0.2
			c0.1,0,0.2,0,0.3,0c0.1,0,0.2,0,0.3,0v2.3l-1.5,0.1c-1.5,0.1-2.5-0.2-3-0.8c-0.4-0.4-0.5-0.9-0.5-1.7v-7.4H411.3z"/>
		<path class="st8" d="M423.2,378.5H420v-2.9h3.2V378.5z M420,380h3.2v12H420V380z"/>
		<path class="st8" d="M436.3,390.5c-1,1.2-2.5,1.9-4.6,1.9s-3.6-0.6-4.6-1.9s-1.5-2.8-1.5-4.5c0-1.7,0.5-3.2,1.5-4.5
			s2.5-1.9,4.6-1.9s3.6,0.6,4.6,1.9s1.5,2.8,1.5,4.5C437.8,387.7,437.3,389.3,436.3,390.5z M433.8,388.8c0.5-0.7,0.7-1.6,0.7-2.8
			c0-1.2-0.2-2.1-0.7-2.8c-0.5-0.6-1.2-1-2.1-1c-0.9,0-1.6,0.3-2.1,1c-0.5,0.6-0.7,1.6-0.7,2.8c0,1.2,0.2,2.1,0.7,2.8
			c0.5,0.7,1.2,1,2.1,1C432.6,389.7,433.3,389.4,433.8,388.8z"/>
		<path class="st8" d="M449.7,380.7c0.8,0.6,1.2,1.7,1.2,3.2v8.1h-3.2v-7.3c0-0.6-0.1-1.1-0.3-1.5c-0.3-0.6-0.9-0.9-1.7-0.9
			c-1.1,0-1.8,0.5-2.2,1.4c-0.2,0.5-0.3,1.1-0.3,1.8v6.5h-3.1v-12h3v1.8c0.4-0.6,0.8-1.1,1.1-1.3c0.6-0.5,1.5-0.7,2.4-0.7
			C447.9,379.7,448.9,380,449.7,380.7z"/>
	</g>
	<g>
		<g>
			<path class="st8" d="M373.7,452.9c1.1,1,1.7,2.2,1.8,3.5h-2c-0.2-1-0.7-1.8-1.4-2.3c-0.7-0.6-1.6-0.9-2.9-0.9
				c-1.5,0-2.7,0.5-3.6,1.6c-0.9,1.1-1.4,2.7-1.4,4.8c0,1.8,0.4,3.2,1.2,4.3c0.8,1.1,2.1,1.7,3.7,1.7c1.5,0,2.7-0.6,3.5-1.8
				c0.4-0.6,0.7-1.4,0.9-2.4h2c-0.2,1.6-0.8,2.9-1.8,4c-1.2,1.3-2.8,2-4.9,2c-1.8,0-3.3-0.5-4.5-1.6c-1.6-1.4-2.4-3.6-2.4-6.6
				c0-2.2,0.6-4.1,1.8-5.5c1.3-1.6,3.1-2.3,5.3-2.3C371.1,451.4,372.6,451.9,373.7,452.9z"/>
			<path class="st8" d="M384.8,456.2c0.7,0.4,1.3,0.8,1.7,1.4c0.4,0.6,0.6,1.2,0.7,2c0.1,0.5,0.2,1.3,0.2,2.4h-8.1
				c0,1.1,0.3,2,0.8,2.7c0.5,0.7,1.3,1,2.3,1c1,0,1.8-0.3,2.3-1c0.3-0.4,0.6-0.8,0.7-1.3h1.8c0,0.4-0.2,0.9-0.5,1.4
				c-0.3,0.5-0.6,0.9-0.9,1.2c-0.6,0.6-1.3,0.9-2.1,1.1c-0.4,0.1-1,0.2-1.5,0.2c-1.4,0-2.6-0.5-3.5-1.5c-1-1-1.4-2.4-1.4-4.2
				c0-1.8,0.5-3.2,1.5-4.3c1-1.1,2.2-1.7,3.8-1.7C383.3,455.7,384,455.9,384.8,456.2z M385.4,460.6c-0.1-0.8-0.3-1.5-0.5-1.9
				c-0.5-0.9-1.4-1.3-2.6-1.3c-0.9,0-1.6,0.3-2.2,0.9s-0.9,1.4-0.9,2.4H385.4z"/>
			<path class="st8" d="M389.7,455.9h1.8v1.9c0.1-0.4,0.5-0.8,1.1-1.4c0.6-0.5,1.2-0.8,2-0.8c0,0,0.1,0,0.2,0c0.1,0,0.2,0,0.4,0v2
				c-0.1,0-0.2,0-0.3,0c-0.1,0-0.2,0-0.3,0c-0.9,0-1.7,0.3-2.2,0.9c-0.5,0.6-0.8,1.3-0.8,2.1v6.4h-1.9V455.9z"/>
			<path class="st8" d="M397.1,452.8h1.9v3.1h1.8v1.5H399v7.2c0,0.4,0.1,0.6,0.4,0.8c0.1,0.1,0.4,0.1,0.7,0.1c0.1,0,0.2,0,0.3,0
				s0.2,0,0.4,0v1.5c-0.2,0.1-0.4,0.1-0.7,0.1s-0.5,0-0.8,0c-0.9,0-1.5-0.2-1.8-0.7c-0.3-0.4-0.5-1-0.5-1.7v-7.3h-1.5v-1.5h1.5
				V452.8z"/>
			<path class="st8" d="M402.6,451.8h1.9v2.1h-1.9V451.8z M402.6,456h1.9v11h-1.9V456z"/>
			<path class="st8" d="M408.2,452.5c0.4-0.6,1.3-1,2.5-1c0.1,0,0.2,0,0.4,0c0.1,0,0.3,0,0.4,0v1.7c-0.2,0-0.3,0-0.4,0
				c-0.1,0-0.2,0-0.2,0c-0.6,0-0.9,0.1-1,0.4c-0.1,0.3-0.2,1-0.2,2.2h1.8v1.5h-1.9v9.6h-1.8v-9.6h-1.5V456h1.5v-1.7
				C407.8,453.5,408,452.9,408.2,452.5z"/>
			<path class="st8" d="M413.2,451.8h1.9v2.1h-1.9V451.8z M413.2,456h1.9v11h-1.9V456z"/>
			<path class="st8" d="M424.8,456.2c0.7,0.4,1.3,0.8,1.7,1.4c0.4,0.6,0.6,1.2,0.7,2c0.1,0.5,0.2,1.3,0.2,2.4h-8.1
				c0,1.1,0.3,2,0.8,2.7c0.5,0.7,1.3,1,2.3,1c1,0,1.8-0.3,2.3-1c0.3-0.4,0.6-0.8,0.7-1.3h1.8c0,0.4-0.2,0.9-0.5,1.4
				c-0.3,0.5-0.6,0.9-0.9,1.2c-0.6,0.6-1.3,0.9-2.1,1.1c-0.4,0.1-1,0.2-1.5,0.2c-1.4,0-2.6-0.5-3.5-1.5c-1-1-1.4-2.4-1.4-4.2
				c0-1.8,0.5-3.2,1.5-4.3c1-1.1,2.2-1.7,3.8-1.7C423.3,455.7,424.1,455.9,424.8,456.2z M425.5,460.6c-0.1-0.8-0.3-1.5-0.5-1.9
				c-0.5-0.9-1.4-1.3-2.6-1.3c-0.9,0-1.6,0.3-2.2,0.9s-0.9,1.4-0.9,2.4H425.5z"/>
			<path class="st8" d="M435.9,456.3c0.3,0.2,0.7,0.6,1.1,1.1v-5.6h1.8V467h-1.7v-1.5c-0.4,0.7-1,1.2-1.5,1.5
				c-0.6,0.3-1.3,0.5-2,0.5c-1.2,0-2.3-0.5-3.2-1.6c-0.9-1-1.4-2.4-1.4-4.1c0-1.6,0.4-3,1.2-4.2s2-1.8,3.5-1.8
				C434.6,455.7,435.3,455.9,435.9,456.3z M431.7,464.6c0.5,0.8,1.3,1.2,2.4,1.2c0.9,0,1.6-0.4,2.1-1.1c0.6-0.7,0.8-1.8,0.8-3.2
				c0-1.4-0.3-2.4-0.9-3.1c-0.6-0.7-1.3-1-2.1-1c-0.9,0-1.7,0.4-2.3,1.1c-0.6,0.7-0.9,1.8-0.9,3.2
				C430.9,462.8,431.2,463.8,431.7,464.6z"/>
			<path class="st8" d="M360,487.6c0,0.9,0.3,1.6,0.6,2.1c0.7,1,1.9,1.5,3.6,1.5c0.8,0,1.5-0.1,2.1-0.3c1.2-0.4,1.8-1.2,1.8-2.3
				c0-0.8-0.3-1.4-0.8-1.8c-0.5-0.3-1.3-0.6-2.5-0.9l-2.1-0.5c-1.3-0.3-2.3-0.6-2.9-1c-1-0.6-1.5-1.6-1.5-2.8c0-1.4,0.5-2.5,1.4-3.4
				c0.9-0.9,2.3-1.3,4-1.3c1.6,0,3,0.4,4.1,1.2c1.1,0.8,1.7,2,1.7,3.7h-1.9c-0.1-0.8-0.3-1.4-0.7-1.9c-0.6-0.8-1.7-1.2-3.2-1.2
				c-1.2,0-2.1,0.3-2.6,0.8c-0.5,0.5-0.8,1.1-0.8,1.8c0,0.7,0.3,1.3,0.9,1.6c0.4,0.2,1.3,0.5,2.8,0.8l2.1,0.5c1,0.2,1.8,0.6,2.4,1
				c1,0.7,1.5,1.7,1.5,3.1c0,1.7-0.6,2.9-1.8,3.6c-1.2,0.7-2.7,1.1-4.3,1.1c-1.9,0-3.4-0.5-4.4-1.5c-1.1-1-1.6-2.3-1.6-3.9H360z"/>
			<path class="st8" d="M380.6,482.5c1,1,1.5,2.4,1.5,4.2c0,1.8-0.4,3.3-1.3,4.4c-0.9,1.2-2.2,1.8-4.1,1.8c-1.5,0-2.7-0.5-3.6-1.5
				c-0.9-1-1.3-2.4-1.3-4.2c0-1.9,0.5-3.4,1.4-4.5c0.9-1.1,2.2-1.7,3.8-1.7C378.4,481.1,379.7,481.6,380.6,482.5z M379.5,489.9
				c0.5-0.9,0.7-2,0.7-3.1c0-1-0.2-1.9-0.5-2.5c-0.5-1-1.4-1.5-2.7-1.5c-1.1,0-2,0.4-2.5,1.3c-0.5,0.9-0.8,1.9-0.8,3.1
				c0,1.2,0.3,2.2,0.8,3c0.5,0.8,1.3,1.2,2.5,1.2C378.2,491.3,379,490.8,379.5,489.9z"/>
			<path class="st8" d="M384.4,477.3h1.9v15.2h-1.9V477.3z"/>
			<path class="st8" d="M390.9,481.4v7.4c0,0.6,0.1,1,0.3,1.4c0.3,0.7,0.9,1,1.9,1c1.3,0,2.2-0.6,2.7-1.7c0.3-0.6,0.4-1.5,0.4-2.6
				v-5.5h1.9v11.1h-1.8l0-1.6c-0.2,0.4-0.5,0.8-0.9,1.1c-0.7,0.6-1.6,0.9-2.6,0.9c-1.6,0-2.7-0.5-3.2-1.6c-0.3-0.6-0.5-1.3-0.5-2.3
				v-7.5H390.9z"/>
			<path class="st8" d="M401.2,478.3h1.9v3.1h1.8v1.5h-1.8v7.2c0,0.4,0.1,0.6,0.4,0.8c0.1,0.1,0.4,0.1,0.7,0.1c0.1,0,0.2,0,0.3,0
				s0.2,0,0.4,0v1.5c-0.2,0.1-0.4,0.1-0.7,0.1s-0.5,0-0.8,0c-0.9,0-1.5-0.2-1.8-0.7s-0.5-1-0.5-1.7v-7.3h-1.5v-1.5h1.5V478.3z"/>
			<path class="st8" d="M406.7,477.3h1.9v2.1h-1.9V477.3z M406.7,481.5h1.9v11h-1.9V481.5z"/>
			<path class="st8" d="M419.6,482.5c1,1,1.5,2.4,1.5,4.2c0,1.8-0.4,3.3-1.3,4.4c-0.9,1.2-2.2,1.8-4.1,1.8c-1.5,0-2.7-0.5-3.6-1.5
				c-0.9-1-1.3-2.4-1.3-4.2c0-1.9,0.5-3.4,1.4-4.5c0.9-1.1,2.2-1.7,3.8-1.7C417.4,481.1,418.6,481.6,419.6,482.5z M418.4,489.9
				c0.5-0.9,0.7-2,0.7-3.1c0-1-0.2-1.9-0.5-2.5c-0.5-1-1.4-1.5-2.7-1.5c-1.1,0-2,0.4-2.5,1.3c-0.5,0.9-0.8,1.9-0.8,3.1
				c0,1.2,0.3,2.2,0.8,3c0.5,0.8,1.3,1.2,2.5,1.2C417.1,491.3,418,490.8,418.4,489.9z"/>
			<path class="st8" d="M423.3,481.4h1.8v1.6c0.5-0.6,1.1-1.1,1.7-1.4s1.2-0.4,2-0.4c1.6,0,2.6,0.5,3.2,1.6c0.3,0.6,0.5,1.5,0.5,2.6
				v7.1h-1.9v-7c0-0.7-0.1-1.2-0.3-1.6c-0.3-0.7-0.9-1-1.8-1c-0.4,0-0.8,0-1.1,0.1c-0.5,0.2-1,0.5-1.3,0.9c-0.3,0.4-0.5,0.7-0.6,1.1
				c-0.1,0.4-0.1,0.9-0.1,1.7v5.8h-1.9V481.4z"/>
			<path class="st8" d="M436.2,489c0.1,0.6,0.2,1.1,0.5,1.4c0.5,0.6,1.3,0.9,2.4,0.9c0.7,0,1.3-0.2,1.8-0.5c0.5-0.3,0.8-0.8,0.8-1.4
				c0-0.5-0.2-0.8-0.6-1.1c-0.3-0.2-0.8-0.3-1.6-0.5l-1.5-0.4c-0.9-0.2-1.6-0.5-2.1-0.8c-0.8-0.5-1.2-1.2-1.2-2.1
				c0-1,0.4-1.9,1.1-2.5c0.8-0.6,1.8-1,3.1-1c1.7,0,2.9,0.5,3.6,1.5c0.5,0.6,0.7,1.3,0.7,2h-1.8c0-0.4-0.2-0.8-0.4-1.2
				c-0.4-0.5-1.2-0.7-2.2-0.7c-0.7,0-1.2,0.1-1.6,0.4c-0.4,0.3-0.5,0.6-0.5,1.1c0,0.5,0.2,0.9,0.7,1.2c0.3,0.2,0.7,0.3,1.2,0.5
				l1.2,0.3c1.3,0.3,2.2,0.6,2.7,0.9c0.7,0.5,1.1,1.2,1.1,2.2c0,1-0.4,1.8-1.1,2.6c-0.7,0.7-1.9,1.1-3.4,1.1c-1.7,0-2.8-0.4-3.5-1.1
				c-0.7-0.8-1.1-1.7-1.1-2.8H436.2z"/>
		</g>
	</g>
	<circle class="st9" cx="545.1" cy="418.1" r="216.9"/>
	<circle class="st9" cx="252.3" cy="430.3" r="214.3"/>
</g>
</svg>
