<svg width="80" height="80" viewBox="0 0 80 80" fill="none" xmlns="http://www.w3.org/2000/svg">
<path d="M79.2681 56.7943C77.0038 54.6683 73.9929 53.4974 70.7904 53.4974C67.5879 53.4974 64.577 54.6683 62.3126 56.7943L54.8185 63.8297H51.2643C52.7787 61.9102 53.6752 59.536 53.6752 56.9693C53.6752 55.6744 52.5569 54.6245 51.1775 54.6245H42.8843C40.1738 54.6245 37.5711 53.4702 34.8155 52.2481C31.9252 50.9662 28.9365 49.6408 25.4419 49.4227C22.3859 49.2319 19.3221 49.5457 16.3362 50.3552C13.157 51.217 10.8672 53.8592 10.5678 56.9162H2.49767C1.11829 56.9162 0 57.9661 0 59.261V77.6552C0 78.9502 1.11829 80 2.49767 80H53.5005C56.4549 80 59.2329 78.9198 61.3222 76.9585L79.2681 60.1103C80.2437 59.1948 80.2437 57.7102 79.2681 56.7943ZM4.99534 61.6059H10.534V75.3103H4.99534V61.6059ZM57.79 73.6422C56.6441 74.718 55.1209 75.3103 53.5005 75.3103H15.5293V57.5829C15.5332 56.329 16.4348 55.2096 17.7225 54.8607C20.149 54.2027 22.6352 53.9473 25.1107 54.1019C27.6598 54.2611 30.0992 55.3428 32.682 56.4885C35.8146 57.8777 39.0535 59.3142 42.8845 59.3142H48.2403C47.273 61.8036 44.8112 63.6227 41.8796 63.8122C41.7598 63.7956 28.8539 63.7842 28.8539 63.7842C28.2475 63.7842 27.6918 63.9874 27.2592 64.3248C26.6892 64.7545 26.3234 65.4133 26.3234 66.153C26.3234 67.448 27.4417 68.4978 28.8211 68.4978L55.8532 68.5192C56.5157 68.5192 57.151 68.2722 57.6192 67.8323L65.8448 60.1102C67.1659 58.8699 68.9221 58.1869 70.7904 58.1869C71.7911 58.1869 72.7599 58.383 73.6466 58.7556L57.79 73.6422Z" fill="#1B7A43"/>
<path d="M45.5289 48.9696C59.9098 48.9696 71.6095 37.9858 71.6095 24.4848C71.6095 10.9838 59.9099 0 45.5289 0C31.1478 0 19.4482 10.9838 19.4482 24.4848C19.4482 37.9858 31.148 48.9696 45.5289 48.9696ZM45.5289 4.68968C57.1553 4.68968 66.6142 13.5697 66.6142 24.4848C66.6142 35.3999 57.1553 44.2799 45.5289 44.2799C33.9024 44.2799 24.4436 35.3999 24.4436 24.4848C24.4436 13.5697 33.9024 4.68968 45.5289 4.68968Z" fill="#1B7A43"/>
<path d="M38.1375 20.745C39.8171 20.745 41.4263 19.3584 41.3487 17.7304C41.2708 16.0972 39.9378 14.7159 38.1375 14.7159C36.4579 14.7159 34.8488 16.1025 34.9265 17.7304C35.0045 19.3637 36.3374 20.745 38.1375 20.745Z" fill="#1B7A43"/>
<path d="M49.7078 31.4558C49.7857 33.089 51.1186 34.4703 52.9188 34.4703C54.5984 34.4703 56.2075 33.0837 56.1298 31.4558C56.0519 29.8225 54.7189 28.4413 52.9188 28.4413C51.2392 28.4411 49.63 29.8277 49.7078 31.4558Z" fill="#1B7A43"/>
<path d="M39.2661 38.7342C39.5818 38.8587 39.9093 38.9176 40.2315 38.9176C41.2074 38.9176 42.1344 38.3772 42.5357 37.4796L53.4804 12.9963C54.0143 11.8022 53.4158 10.428 52.144 9.92679C50.8721 9.42578 49.4084 9.98729 48.8744 11.1814L37.9297 35.6647C37.3958 36.8588 37.9941 38.2331 39.2661 38.7342Z" fill="#1B7A43"/>
</svg>
