<svg width="16" height="16" viewBox="0 0 16 16" fill="none" xmlns="http://www.w3.org/2000/svg">
<rect x="10.1621" y="0.426758" width="4.10804" height="9.60001" fill="#4F4F4F"/>
<rect x="4.54062" width="4.54047" height="8.74668" fill="#4F4F4F"/>
<path d="M2.22266 15.0933V9.27146L3.60617 9.1283H4.90584L8.721 9.89182C9.96198 10.6553 9.43372 11.6097 8.721 11.8483H5.57664C4.57045 12.001 5.15739 12.3255 5.57664 12.4687H6.54091L9.68527 12.2778L12.075 11.228L15.0516 9.89182C16.2675 9.70094 16.0998 11.0371 15.7224 11.228L9.01448 15.8091L8.17598 16C6.24744 16 3.43848 15.3796 2.22266 15.0933Z" fill="#4F4F4F"/>
<rect y="8.74683" width="1.50929" height="6.3945" fill="#4F4F4F"/>
<rect x="10.8105" y="1.49353" width="1.08106" height="1.06667" fill="white"/>
<rect x="10.8105" y="3.41345" width="1.08106" height="1.06667" fill="white"/>
<rect x="10.8105" y="5.33325" width="1.08106" height="1.06667" fill="white"/>
<rect x="10.8105" y="7.2533" width="1.08106" height="1.06667" fill="white"/>
<rect x="12.54" y="1.49353" width="1.08106" height="1.06667" fill="white"/>
<rect x="12.54" y="3.41345" width="1.08106" height="1.06667" fill="white"/>
<rect x="12.54" y="5.33325" width="1.08106" height="1.06667" fill="white"/>
<rect x="12.54" y="7.2533" width="1.08106" height="1.06667" fill="white"/>
<rect x="5.40479" y="1.06763" width="1.08106" height="1.06667" fill="white"/>
<rect x="5.4043" y="2.98669" width="1.08106" height="1.06667" fill="white"/>
<rect x="5.4043" y="4.90698" width="1.08106" height="1.06667" fill="white"/>
<rect x="5.4043" y="6.82654" width="1.08106" height="1.06667" fill="white"/>
<rect x="7.13644" y="1.06665" width="1.08106" height="1.06667" fill="white"/>
<rect x="7.13574" y="2.98669" width="1.08106" height="1.06667" fill="white"/>
<rect x="7.13574" y="4.90649" width="1.08106" height="1.06667" fill="white"/>
<rect x="7.13574" y="6.82678" width="1.08106" height="1.06667" fill="white"/>
</svg>
