<svg width="24" height="34" viewBox="0 0 24 34" fill="none" xmlns="http://www.w3.org/2000/svg">
<path d="M12.0002 0.333984C5.55016 0.333984 0.333496 5.55065 0.333496 12.0007C0.333496 20.7507 12.0002 33.6673 12.0002 33.6673C12.0002 33.6673 23.6668 20.7507 23.6668 12.0007C23.6668 5.55065 18.4502 0.333984 12.0002 0.333984ZM12.0002 16.1673C10.8951 16.1673 9.83529 15.7283 9.05389 14.9469C8.27248 14.1655 7.8335 13.1057 7.8335 12.0007C7.8335 10.8956 8.27248 9.83577 9.05389 9.05437C9.83529 8.27297 10.8951 7.83398 12.0002 7.83398C13.1052 7.83398 14.165 8.27297 14.9464 9.05437C15.7278 9.83577 16.1668 10.8956 16.1668 12.0007C16.1668 13.1057 15.7278 14.1655 14.9464 14.9469C14.165 15.7283 13.1052 16.1673 12.0002 16.1673Z" fill="#186A34"/>
</svg>
