<svg width="27" height="30" viewBox="0 0 27 30" fill="none" xmlns="http://www.w3.org/2000/svg">
<path fill-rule="evenodd" clip-rule="evenodd" d="M2.34087 24.272L1.05353 24.091C0.939482 24.0754 0.8362 24.0152 0.766659 23.9232C0.697088 23.8313 0.666992 23.7156 0.683041 23.6014L3.39674 4.29242C3.3974 4.2877 3.39944 4.2835 3.40147 4.2793C3.4035 4.2751 3.40553 4.2709 3.4062 4.26618C3.41356 4.22897 3.42611 4.19292 3.44348 4.15903L3.44988 4.14609C3.45401 4.13752 3.4581 4.12903 3.46338 4.12081C3.49069 4.077 3.52582 4.03835 3.56677 4.00692L7.9716 0.687654C8.01333 0.656769 8.06038 0.633681 8.1102 0.619743C8.12327 0.616452 8.13628 0.613579 8.14959 0.611604C8.18829 0.603796 8.22793 0.601462 8.26717 0.605053C8.27109 0.60522 8.27495 0.604639 8.27878 0.604062L8.27878 0.604062L8.27879 0.604061C8.28347 0.603357 8.28812 0.602656 8.29284 0.603319L22.4537 2.5935C22.6907 2.6268 22.8558 2.84594 22.8225 3.08292L22.6416 4.37027L23.9289 4.55119C24.1659 4.5845 24.331 4.80364 24.2977 5.04062L23.2122 12.7647L22.3539 12.6441L23.3792 5.34912L22.5209 5.2285L21.6163 11.6652L20.7581 11.5446L21.9039 3.39142L8.60134 1.52186L8.11887 4.95479C8.08557 5.19177 7.86643 5.3569 7.62945 5.3236L4.19652 4.84113L1.60326 23.2931L13.1894 24.9215L13.0688 25.7797L3.19911 24.3926L3.07849 25.2508L20.2431 27.6632L20.4241 26.3758L21.2823 26.4964L21.0411 28.2129C21.0078 28.4499 20.7886 28.615 20.5516 28.5817L2.52876 26.0487C2.29178 26.0154 2.12664 25.7963 2.15995 25.5593L2.34087 24.272ZM7.32095 4.40506L7.65783 2.00804L4.92393 4.06818L7.32095 4.40506ZM16.052 10.8874L15.9917 11.3165L15.1335 11.1959L15.1938 10.7667L8.32791 9.8018L8.14698 11.0892L13.7255 11.8732L13.6049 12.7314L8.02636 11.9474L7.84544 13.2347L11.7075 13.7775L11.5869 14.6357L7.72482 14.093L7.5439 15.3803L10.6336 15.8145L10.513 16.6728L7.42328 16.2385L7.24236 17.5259L10.2462 17.9481L10.1256 18.8063L7.12174 18.3841L6.94081 19.6715L10.3737 20.1539L10.2531 21.0122L6.8202 20.5297L6.63927 21.8171L10.9304 22.4201L10.8098 23.2784L4.37307 22.3738C3.66214 22.2738 3.1667 21.6166 3.26665 20.9055L5.19651 7.17376C5.29643 6.46282 5.95386 5.96742 6.66479 6.06733L18.6801 7.75597C18.7182 7.76112 18.7558 7.76875 18.7929 7.77887C19.4482 7.93101 19.8793 8.55803 19.7865 9.22424L19.4849 11.3698L16.052 10.8874ZM18.9283 9.10363C18.96 8.88054 18.8143 8.67054 18.5942 8.62229C18.5765 8.61874 18.559 8.61435 18.5418 8.60873L16.4143 8.30973L16.1726 10.0291L18.7473 10.391L18.9283 9.10363ZM7.83152 7.10649L6.54417 6.92556C6.30719 6.89226 6.08805 7.05739 6.05475 7.29437L5.87382 8.58172L7.59029 8.82296L7.83152 7.10649ZM4.49369 21.5155L5.78104 21.6964L5.96196 20.4091L4.2455 20.1679L4.12488 21.0261C4.09158 21.2631 4.25671 21.4822 4.49369 21.5155ZM4.36611 19.3096L6.08258 19.5509L6.26351 18.2635L4.54704 18.0223L4.36611 19.3096ZM4.66766 17.164L6.38412 17.4053L6.56505 16.1179L4.84858 15.8767L4.66766 17.164ZM4.9692 15.0185L6.68566 15.2597L6.86659 13.9724L5.15012 13.7311L4.9692 15.0185ZM5.27074 12.8729L6.98721 13.1141L7.16813 11.8268L5.45166 11.5855L5.27074 12.8729ZM5.57228 10.7273L7.28875 10.9685L7.46967 9.68119L5.75321 9.43995L5.57228 10.7273ZM8.68976 7.22711L8.44852 8.94357L15.3144 9.90851L15.5559 8.18995L8.68976 7.22711ZM9.89274 4.77767L13.3255 5.26011L13.2049 6.11835L9.77212 5.63591L9.89274 4.77767ZM15.9351 5.62616L14.2187 5.38493L14.0981 6.24316L15.8145 6.4844L15.9351 5.62616ZM10.1403 3.01937L16.1479 3.86368L16.0273 4.72192L10.0197 3.8776L10.1403 3.01937ZM23.2431 23.4485L23.3057 23.4013L26.0271 27.0129C26.4768 27.6094 26.3577 28.4573 25.761 28.9068C25.1644 29.3565 24.3165 29.2373 23.8668 28.6406L21.207 25.111C18.0483 26.8154 14.1116 25.8389 12.1153 22.8559C10.119 19.8731 10.7178 15.8616 13.498 13.5916C16.2783 11.3216 20.3286 11.5372 22.8521 14.0898C25.3755 16.6422 25.5448 20.6946 23.2431 23.4485ZM18.7683 13.0086C15.4504 12.5423 12.3826 14.854 11.9163 18.1718C11.4538 21.4887 13.7637 24.554 17.0797 25.0236C20.3976 25.4899 23.4653 23.1783 23.9316 19.8604C24.3979 16.5426 22.0862 13.4749 18.7683 13.0086ZM24.5589 28.1193C24.6365 28.2223 24.7517 28.2902 24.8794 28.3077C25.074 28.3351 25.2659 28.2424 25.3655 28.073C25.4652 27.9037 25.453 27.6911 25.3347 27.5341L22.697 24.0339C22.4611 24.2571 22.2101 24.4635 21.9455 24.6515L24.5589 28.1193ZM18.6803 13.912C15.8364 13.5123 13.207 15.4938 12.8073 18.3377C12.4076 21.1817 14.389 23.8111 17.2329 24.2108C20.0768 24.6105 22.7062 22.629 23.1059 19.7851C23.5025 16.942 21.5225 14.3146 18.6803 13.912ZM16.2402 18.8202C16.3734 17.8723 17.2499 17.2117 18.1978 17.3449C19.1459 17.4782 19.8062 18.3547 19.673 19.3026C19.5398 20.2507 18.6635 20.9111 17.7154 20.7779C16.7675 20.6446 16.1069 19.7683 16.2402 18.8202ZM15.5577 20.055C14.8605 19.669 14.2598 19.1297 13.8015 18.4774C14.4218 17.977 15.1479 17.624 15.9245 17.4451C15.3327 18.182 15.1919 19.1837 15.5577 20.055ZM20.3555 18.0678C21.0529 18.4539 21.6533 18.9934 22.1117 19.6454C21.4914 20.146 20.7655 20.4989 19.9887 20.6777C20.5805 19.941 20.7213 18.9393 20.3555 18.0678ZM18.5597 14.7702C20.4677 15.0407 21.9683 16.5377 22.2441 18.445C21.2587 17.435 19.9758 16.7666 18.5834 16.538C18.4094 16.4948 18.2315 16.4698 18.0523 16.4634C16.6499 16.2988 15.2316 16.5873 14.0051 17.2871C14.7959 15.5297 16.6512 14.5044 18.5597 14.7702ZM17.3535 23.3526C15.4457 23.0821 13.9448 21.5853 13.6691 19.678C14.6546 20.6881 15.9374 21.3562 17.3297 21.585C17.5038 21.628 17.6819 21.653 17.8611 21.6596C19.2633 21.8242 20.6816 21.5355 21.908 20.8359C21.1173 22.5933 19.2622 23.6185 17.3535 23.3526ZM17.8222 19.9004C18.2962 19.967 18.7345 19.6367 18.8011 19.1628C18.8677 18.6888 18.5374 18.2505 18.0635 18.1839C17.5895 18.1173 17.1512 18.4476 17.0846 18.9216C17.018 19.3955 17.3483 19.8338 17.8222 19.9004Z" fill="#ACB1C1"/>
</svg>
