<svg width="25" height="26" viewBox="0 0 25 26" fill="none" xmlns="http://www.w3.org/2000/svg">
<path fill-rule="evenodd" clip-rule="evenodd" d="M24.5657 1.94095C24.5124 0.908162 23.7354 0.0868801 22.7585 0.0305132C20.7872 -0.083338 16.9297 0.0274156 13.2411 2.04429C11.3607 3.0725 9.372 4.81577 7.78494 6.8271C7.77355 6.84154 7.76233 6.85604 7.75112 6.87053L7.72696 6.90165L4.12521 7.19577C3.53235 7.24422 3.00429 7.57272 2.67639 8.09698L0.219153 12.026C-0.0295302 12.4236 -0.069064 12.9212 0.113329 13.3571C0.29577 13.793 0.670644 14.0968 1.11618 14.1697L4.15067 14.6666L4.1488 14.6775C4.13871 14.7362 4.12862 14.7949 4.11935 14.8536C4.01833 15.4924 4.21854 16.1492 4.655 16.6106L8.8818 21.079C9.24365 21.4615 9.73261 21.6724 10.2336 21.6724C10.3368 21.6724 10.4406 21.6634 10.5438 21.6452C10.5994 21.6354 10.6549 21.6247 10.7104 21.614L10.7208 21.6121L11.1907 24.82C11.2598 25.291 11.5471 25.6873 11.9594 25.8802C12.1309 25.9604 12.3124 26 12.4932 26C12.7469 26 12.9989 25.9218 13.2185 25.7683L16.9352 23.1706C17.4312 22.8239 17.7419 22.2657 17.7876 21.639L18.0658 17.8315C18.0893 17.811 18.1129 17.7909 18.1364 17.7702C20.0391 16.0925 21.6881 13.9901 22.6607 12.0022C24.5687 8.10272 24.6732 4.02475 24.5657 1.94095ZM16.1404 21.8998L12.5852 24.3847L12.1272 21.2583C13.6297 20.7913 15.1161 20.0433 16.5322 19.0412L16.3509 21.5216C16.3396 21.6763 16.2629 21.8142 16.1404 21.8998ZM9.90079 20.0017L5.67394 15.5334C5.5661 15.4193 5.51624 15.2591 5.54069 15.1048C5.66635 14.3104 5.86162 13.5542 6.10334 12.8419L12.4455 19.5464C11.6361 19.8528 10.9112 20.0357 10.3062 20.1426C10.16 20.1683 10.0086 20.1157 9.90079 20.0017ZM4.23622 8.71468L6.5825 8.52309C5.63455 10.0201 4.92698 11.5914 4.48519 13.1798L1.5279 12.6956L3.8785 8.93721C3.95949 8.80771 4.0899 8.72662 4.23622 8.71468ZM17.2134 16.6003C16.0494 17.6267 14.9194 18.3691 13.8779 18.9063L6.70989 11.3287C7.37558 9.89143 8.18801 8.69457 8.89155 7.80296C10.3603 5.94158 12.1869 4.33583 13.9032 3.3974C17.2885 1.54628 20.8552 1.44659 22.68 1.55161C22.9216 1.56552 23.1137 1.7686 23.1268 2.02397C23.2263 3.95305 23.1318 7.72354 21.3807 11.3023C20.4931 13.1166 18.9741 15.0476 17.2134 16.6003ZM16.8471 11.9954C17.7695 11.9953 18.6923 11.624 19.3945 10.8817C20.075 10.1624 20.4497 9.20595 20.4497 8.18871C20.4497 7.17146 20.0749 6.21505 19.3945 5.49574C17.9898 4.01075 15.7043 4.01085 14.2997 5.49574C13.6192 6.21505 13.2445 7.17146 13.2445 8.18871C13.2445 9.20595 13.6193 10.1624 14.2997 10.8817C15.0021 11.6242 15.9244 11.9955 16.8471 11.9954ZM15.3186 6.57291C15.74 6.1274 16.2935 5.90468 16.847 5.90468C17.4006 5.90468 17.9541 6.1274 18.3755 6.57291C18.7837 7.00449 19.0085 7.57832 19.0085 8.18866C19.0085 8.799 18.7837 9.37287 18.3755 9.80446C17.5327 10.6954 16.1613 10.6954 15.3185 9.80446C14.9103 9.37287 14.6854 8.79905 14.6854 8.18871C14.6854 7.57837 14.9103 7.00449 15.3186 6.57291ZM1.24586 21.2032C1.10521 21.352 0.9208 21.4263 0.736389 21.4263C0.551978 21.4263 0.367568 21.3519 0.226918 21.2032C-0.0544777 20.9057 -0.0544777 20.4235 0.226918 20.126L2.57934 17.6391C2.86074 17.3416 3.31699 17.3416 3.59833 17.6391C3.87973 17.9366 3.87973 18.4188 3.59833 18.7163L1.24586 21.2032ZM5.75283 19.9179C5.47148 19.6204 5.01524 19.6204 4.73384 19.9179L0.211049 24.6992C-0.0703469 24.9967 -0.0703469 25.479 0.211049 25.7764C0.351746 25.9252 0.536109 25.9995 0.72052 25.9995C0.90493 25.9995 1.08934 25.9252 1.22999 25.7764L5.75278 20.9951C6.03423 20.6977 6.03423 20.2154 5.75283 19.9179ZM4.53701 24.6836L6.88948 22.1967C7.17083 21.8993 7.62708 21.8993 7.90843 22.1967C8.18982 22.4942 8.18982 22.9765 7.90843 23.274L5.55595 25.7609C5.4153 25.9097 5.23084 25.984 5.04648 25.984C4.86212 25.984 4.67771 25.9096 4.53701 25.7609C4.25561 25.4634 4.25561 24.9811 4.53701 24.6836Z" fill="#2D9851"/>
</svg>
