<svg width="27" height="29" viewBox="0 0 27 29" fill="none" xmlns="http://www.w3.org/2000/svg">
<path d="M3.67311 22.3699L19.1739 24.4106C19.3193 24.4298 19.4216 24.5631 19.4025 24.7085C19.3833 24.8539 19.25 24.9562 19.1046 24.937L3.60381 22.8963C3.45848 22.8772 3.35613 22.7439 3.37527 22.5985C3.39441 22.4531 3.52778 22.3508 3.67311 22.3699ZM19.0457 25.3843L3.54493 23.3436C3.39959 23.3244 3.26623 23.4267 3.24709 23.5721C3.22794 23.7175 3.33029 23.8508 3.47563 23.87L18.9764 25.9107C19.1218 25.9298 19.2552 25.8275 19.2743 25.6821C19.2934 25.5368 19.1911 25.4034 19.0457 25.3843ZM25.4043 8.43474L24.4879 8.58202L25.335 8.96178C25.4421 9.00977 25.5049 9.1223 25.4896 9.23863L25.0822 12.3326C25.0669 12.4489 24.977 12.5414 24.8612 12.56L23.9448 12.7073L24.7919 13.087C24.899 13.135 24.9618 13.2475 24.9465 13.3639L24.5391 16.4578C24.5238 16.5742 24.434 16.6666 24.3181 16.6853L23.4017 16.8325L24.2488 17.2123C24.3559 17.2603 24.4187 17.3728 24.4034 17.4891L23.996 20.5831C23.9807 20.6994 23.8909 20.7919 23.775 20.8105L22.8586 20.9578L23.7057 21.3375C23.8128 21.3855 23.8756 21.498 23.8603 21.6144L23.4529 24.7083C23.4376 24.8247 23.3478 24.9171 23.2319 24.9358L21.6337 25.1926L21.2344 28.2255C21.2152 28.3709 21.0819 28.4732 20.9365 28.4541L3.48119 26.156C2.15501 25.9815 0.711233 24.9807 1.00691 22.7348L3.68709 2.3768C3.85957 1.06624 5.0662 0.140368 6.3768 0.312912L24.3303 2.67653C24.4757 2.69567 24.578 2.82899 24.5588 2.97438L24.4009 4.17417L25.8782 4.83648C25.9852 4.88447 26.048 4.99701 26.0327 5.11334L25.6254 8.20724C25.6101 8.32362 25.5202 8.41611 25.4043 8.43474ZM4.14755 21.8117C3.42303 21.7163 2.75603 22.2281 2.66065 22.9526C2.56526 23.6771 3.07707 24.3441 3.80159 24.4395L20.9009 26.6907L21.2469 24.0628L19.3293 23.8104L4.14755 21.8117ZM20.7426 27.8932L20.8316 27.2171L3.73229 24.9659C2.71757 24.8323 2.00067 23.898 2.13426 22.8833C2.26785 21.8686 3.20213 21.1517 4.21685 21.2853L19.3986 23.284L21.3163 23.5365L21.3883 22.9892L3.8443 20.6795C3.55079 20.6409 3.18518 20.7273 2.81474 20.9227C2.76427 20.9493 2.70903 20.958 2.65645 20.9511C2.57396 20.9403 2.49787 20.891 2.45609 20.8118C2.3877 20.6821 2.43737 20.5216 2.56698 20.4531C3.03382 20.2068 3.51208 20.1003 3.91366 20.1531L4.00225 20.1648L4.10886 19.355C4.128 19.2096 4.26137 19.1073 4.4067 19.1265C4.55204 19.1456 4.65439 19.2789 4.63525 19.4243L4.52864 20.2341L21.4577 22.4629L23.9978 3.16828L7.06876 0.939521L4.90129 17.4031C4.88215 17.5485 4.74879 17.6508 4.60345 17.6316C4.45811 17.6125 4.35577 17.4792 4.37491 17.3338L6.54238 0.870221L6.3075 0.839299C5.28715 0.704968 4.3478 1.4258 4.21348 2.4461L1.53328 22.8042C1.21797 25.1992 3.15832 25.5781 3.55047 25.6298L20.7426 27.8932ZM23.3081 21.7412L22.1561 21.2247L21.7061 24.6433L22.9524 24.4431L23.3081 21.7412ZM23.8512 17.6159L22.6992 17.0994L22.2492 20.518L23.4955 20.3178L23.8512 17.6159ZM24.3943 13.4906L23.2423 12.9741L22.7923 16.3927L24.0386 16.1925L24.3943 13.4906ZM24.9374 9.36531L23.7854 8.84886L23.3354 12.2674L24.5817 12.0672L24.9374 9.36531ZM25.4805 5.24007L24.3285 4.72356L23.8785 8.14218L25.1248 7.94191L25.4805 5.24007ZM7.52349 12.5418L10.3274 8.39492C10.3837 8.31167 10.4823 8.26729 10.582 8.28042C10.6817 8.29354 10.7654 8.36186 10.7982 8.4569L11.8929 11.6244C11.8932 11.6256 11.8938 11.6268 11.8941 11.6281L12.4333 13.1882C12.4812 13.3268 12.4077 13.478 12.2691 13.5258C12.2289 13.5397 12.1876 13.5434 12.148 13.5382C12.0514 13.5255 11.9655 13.4599 11.9315 13.3616L11.4401 11.9395L8.8061 11.5928L7.96336 12.8392C7.88123 12.9606 7.71622 12.9925 7.59477 12.9103C7.47324 12.8283 7.44137 12.6633 7.52349 12.5418ZM9.13859 11.1011L11.2462 11.3786L10.4698 9.13217L9.13859 11.1011ZM15.8469 14.026L20.2858 14.6104C20.4312 14.6295 20.5645 14.5272 20.5837 14.3819C20.6028 14.2365 20.5005 14.1031 20.3551 14.084L16.5516 13.5833L21.0665 10.1187C21.1517 10.0533 21.1891 9.94313 21.1613 9.83943C21.1336 9.73569 21.046 9.65894 20.9395 9.64493L17.0022 9.12657C16.8568 9.10743 16.7235 9.20972 16.7044 9.35511C16.6852 9.5005 16.7875 9.63382 16.9329 9.65296L20.2348 10.0877L15.7199 13.5522C15.6347 13.6176 15.5973 13.7278 15.6251 13.8315C15.6528 13.9352 15.7404 14.012 15.8469 14.026ZM13.1921 11.3225L15.4116 11.6147C15.557 11.6339 15.6903 11.5316 15.7095 11.3862C15.7286 11.2408 15.6263 11.1075 15.4809 11.0884L13.2614 10.7962C13.1161 10.777 12.9827 10.8793 12.9636 11.0247C12.9444 11.1701 13.0467 11.3034 13.1921 11.3225Z" fill="#ACB1C1"/>
</svg>
