<svg width="26" height="26" viewBox="0 0 26 26" fill="none" xmlns="http://www.w3.org/2000/svg">
<path d="M26 17.5957C26 13.806 23.4465 10.4949 19.8456 9.49709C19.6192 4.22198 15.2576 0 9.92773 0C4.45348 0 0 4.45348 0 9.92773C0 11.7118 0.474884 13.4489 1.37665 14.9739L0.036499 19.8188L4.88155 18.4788C6.28339 19.3078 7.86475 19.7747 9.49689 19.8452C10.4945 23.4463 13.8058 26 17.5957 26C19.1084 26 20.5795 25.5971 21.872 24.8316L25.9633 25.9633L24.8316 21.872C25.5971 20.5795 26 19.1084 26 17.5957ZM5.12196 16.8316L2.22148 17.634L3.02386 14.7335L2.84097 14.4475C1.97908 13.099 1.52344 11.5361 1.52344 9.92773C1.52344 5.29355 5.29355 1.52344 9.92773 1.52344C14.5619 1.52344 18.332 5.29355 18.332 9.92773C18.332 14.5619 14.5619 18.332 9.92773 18.332C8.3194 18.332 6.75668 17.8764 5.408 17.0145L5.12196 16.8316ZM23.7785 23.7785L21.6263 23.183L21.3388 23.3701C20.2246 24.0939 18.9301 24.4766 17.5957 24.4766C14.6171 24.4766 11.9996 22.5506 11.0723 19.789C15.6335 19.2632 19.2632 15.6335 19.7892 11.0721C22.5506 11.9996 24.4766 14.6171 24.4766 17.5957C24.4766 18.9301 24.0939 20.2246 23.3701 21.3388L23.183 21.6263L23.7785 23.7785Z" fill="#ACB1C1"/>
</svg>
