<svg width="32" height="32" viewBox="0 0 32 32" fill="none" xmlns="http://www.w3.org/2000/svg">
<path d="M32 5.08801L13.744 23.36L6.96 16.576L9.216 14.32L13.744 18.848L29.744 2.84801L32 5.08801ZM28.464 13.152C28.672 14.064 28.8 15.024 28.8 16C28.8 23.072 23.072 28.8 16 28.8C8.928 28.8 3.2 23.072 3.2 16C3.2 8.92801 8.928 3.20001 16 3.20001C18.528 3.20001 20.864 3.93601 22.848 5.20001L25.152 2.89601C22.4743 1.00729 19.2768 -0.00451379 16 1.51376e-05C7.168 1.51376e-05 0 7.16801 0 16C0 24.832 7.168 32 16 32C24.832 32 32 24.832 32 16C32 14.096 31.648 12.272 31.04 10.576L28.464 13.152Z" fill="#186A34"/>
</svg>
