<svg width="26" height="26" viewBox="0 0 26 26" fill="none" xmlns="http://www.w3.org/2000/svg">
<path d="M13 0C5.83174 0 0 5.83174 0 13C0 20.1683 5.83174 26 13 26C20.1683 26 26 20.1683 26 13C26 5.83174 20.1683 0 13 0ZM13 23.9668C6.95287 23.9668 2.03324 19.0471 2.03324 13C2.03324 6.95287 6.95287 2.03324 13 2.03324C19.0471 2.03324 23.9668 6.95287 23.9668 13C23.9668 19.0471 19.0471 23.9668 13 23.9668Z" fill="#ACB1C1"/>
<path d="M6.74129 13.5263L9.07328 12.0714C9.47017 11.8238 9.36959 11.2199 8.91388 11.1145L8.01776 10.9069C8.82021 8.88887 10.7918 7.49041 13.0574 7.49041C15.2833 7.49041 17.2591 8.82448 18.0906 10.889C18.3003 11.4098 18.8926 11.6618 19.4134 11.4522C19.9342 11.2425 20.1864 10.6502 19.9766 10.1294C18.8335 7.29115 16.1175 5.45703 13.0574 5.45703C9.83575 5.45703 7.04641 7.51426 6.02044 10.4442L5.1269 10.2372C4.67118 10.1316 4.31536 10.6297 4.56288 11.0266L6.01773 13.3586C6.17131 13.6048 6.49513 13.6799 6.74129 13.5263Z" fill="#ACB1C1"/>
<path d="M21.4423 15.3806L20.032 13.0213C19.8832 12.7725 19.5608 12.6913 19.3118 12.8401L16.9526 14.2504C16.5511 14.4904 16.6402 15.0961 17.0938 15.2102L17.9952 15.4371C17.0991 17.3139 15.1765 18.5484 13.0049 18.5089C10.867 18.4702 8.94501 17.1732 8.10854 15.2045C7.88895 14.6878 7.29212 14.4466 6.77527 14.6664C6.25856 14.886 6.01769 15.4828 6.23714 15.9996C7.38687 18.7056 10.029 20.4886 12.968 20.5419C13.0145 20.5427 13.0604 20.5431 13.1066 20.5431C16.1802 20.5431 18.8656 18.6904 19.9953 15.9407L20.8631 16.1592C21.317 16.2734 21.6823 15.7822 21.4423 15.3806Z" fill="#ACB1C1"/>
</svg>
